<svg width="84" height="95" viewBox="0 0 84 95" fill="none" xmlns="http://www.w3.org/2000/svg">
<path d="M83.7858 47.198V58.4716C83.7858 60.1295 83.1253 61.4558 82.1346 62.4505C81.1438 63.4453 79.8228 64.1084 78.1715 64.1084H53.7326V88.6451C53.7326 90.303 53.072 91.6293 52.0813 92.624C51.0905 93.6188 49.7695 94.2819 48.1182 94.2819H36.8895C35.2382 94.2819 33.9172 93.6188 32.9264 92.624C31.9357 91.6293 31.2751 90.303 31.2751 88.6451V64.1084H6.50595C4.85467 64.1084 3.53365 63.4453 2.54288 62.4505C1.55211 61.4558 0.891602 60.1295 0.891602 58.8032V47.5296C0.891602 45.8717 1.55211 44.5454 2.54288 43.5507C3.53365 42.5559 4.85467 41.8928 6.50595 41.8928H30.9449V17.0245C30.9449 15.3666 31.6054 14.0403 32.5962 13.0456C33.5869 12.0508 34.908 11.3877 36.5592 11.3877H47.7879C49.4392 11.3877 50.7602 12.0508 51.751 13.0456C53.072 14.0403 53.7326 15.3666 53.7326 17.0245V41.5612H78.1715C79.8228 41.5612 81.1438 42.2244 82.1346 43.2191C83.4556 44.5454 83.7858 45.8717 83.7858 47.198Z" fill="#FF575F"/>
<path d="M83.7858 36.1453V47.4189C83.7858 49.0768 83.1253 50.4031 82.1346 51.3978C81.1438 52.3925 79.8228 53.0557 78.1715 53.0557H53.7325V77.5924C53.7325 79.2503 53.072 80.5766 52.0813 81.5713C51.0905 82.566 49.7695 83.2292 48.1182 83.2292H36.8895C35.2382 83.2292 33.9172 82.566 32.9264 81.5713C31.9357 80.5766 31.2751 79.2503 31.2751 77.5924V53.0557H6.50595C4.85467 53.0557 3.53365 52.3925 2.54288 51.3978C1.55211 50.4031 0.891602 49.0768 0.891602 47.7505V36.4768C0.891602 34.819 1.55211 33.4927 2.54288 32.4979C3.53365 31.5032 4.85467 30.84 6.50595 30.84H30.9449V5.97177C30.9449 4.31388 31.6054 2.98758 32.5962 1.99285C33.5869 0.998115 34.908 0.334961 36.8895 0.334961H48.1182C49.7695 0.334961 51.0905 0.998115 52.0813 1.99285C53.4023 2.98758 54.0628 4.31388 54.0628 5.97177V30.5085H78.5017C80.153 30.5085 81.474 31.1716 82.4648 32.1663C83.7858 33.4927 83.7858 34.819 83.7858 36.1453Z" fill="black"/>
</svg>
