<svg width="30" height="34" viewBox="0 0 30 34" fill="none" xmlns="http://www.w3.org/2000/svg">
<path d="M30 16.96V21.04C30 21.64 29.761 22.12 29.4024 22.48C29.0438 22.84 28.5657 23.08 27.9681 23.08H19.1235V31.96C19.1235 32.56 18.8845 33.04 18.5259 33.4C18.1673 33.76 17.6892 34 17.0916 34H13.0279C12.4303 34 11.9522 33.76 11.5936 33.4C11.2351 33.04 10.996 32.56 10.996 31.96V23.08H2.03187C1.43426 23.08 0.956175 22.84 0.59761 22.48C0.239044 22.12 0 21.64 0 21.16V17.08C0 16.48 0.239044 16 0.59761 15.64C0.956175 15.28 1.43426 15.04 2.03187 15.04H10.8765V6.04C10.8765 5.44 11.1155 4.96 11.4741 4.6C11.8327 4.24 12.3108 4 12.9084 4H16.9721C17.5697 4 18.0478 4.24 18.4064 4.6C18.8845 4.96 19.1235 5.44 19.1235 6.04V14.92H27.9681C28.5657 14.92 29.0438 15.16 29.4024 15.52C29.8805 16 30 16.48 30 16.96Z" fill="#FF7501"/>
<path d="M30 12.96V17.04C30 17.64 29.761 18.12 29.4024 18.48C29.0438 18.84 28.5657 19.08 27.9681 19.08H19.1235V27.96C19.1235 28.56 18.8845 29.04 18.5259 29.4C18.1673 29.76 17.6892 30 17.0916 30H13.0279C12.4303 30 11.9522 29.76 11.5936 29.4C11.2351 29.04 10.996 28.56 10.996 27.96V19.08H2.03187C1.43426 19.08 0.956175 18.84 0.59761 18.48C0.239044 18.12 0 17.64 0 17.16V13.08C0 12.48 0.239044 12 0.59761 11.64C0.956175 11.28 1.43426 11.04 2.03187 11.04H10.8765V2.04C10.8765 1.44 11.1155 0.96 11.4741 0.6C11.8327 0.24 12.3108 0 13.0279 0H17.0916C17.6892 0 18.1673 0.24 18.5259 0.6C19.004 0.96 19.243 1.44 19.243 2.04V10.92H28.0877C28.6853 10.92 29.1633 11.16 29.5219 11.52C30 12 30 12.48 30 12.96Z" fill="#121212"/>
</svg>
