<svg width="76" height="76" viewBox="0 0 76 76" fill="none" xmlns="http://www.w3.org/2000/svg">
<path d="M73 33.24V42.76C73 44.16 72.4422 45.28 71.6056 46.12C70.7689 46.96 69.6534 47.52 68.259 47.52H47.6215V68.24C47.6215 69.64 47.0637 70.76 46.2271 71.6C45.3904 72.44 44.2749 73 42.8805 73H33.3984C32.004 73 30.8884 72.44 30.0518 71.6C29.2151 70.76 28.6574 69.64 28.6574 68.24V47.52H7.74104C6.34661 47.52 5.23108 46.96 4.39442 46.12C3.55777 45.28 3 44.16 3 43.04V33.52C3 32.12 3.55777 31 4.39442 30.16C5.23108 29.32 6.34661 28.76 7.74104 28.76H28.3785V7.76C28.3785 6.36 28.9363 5.24 29.7729 4.4C30.6096 3.56 31.7251 3 33.3984 3H42.8805C44.2749 3 45.3904 3.56 46.2271 4.4C47.3426 5.24 47.9004 6.36 47.9004 7.76V28.48H68.5378C69.9323 28.48 71.0478 29.04 71.8845 29.88C73 31 73 32.12 73 33.24Z" stroke="black" stroke-width="6"/>
</svg>
