<?xml version="1.0" encoding="utf-8"?>
<!-- Generator: Adobe Illustrator 27.4.1, SVG Export Plug-In . SVG Version: 6.00 Build 0)  -->
<svg version="1.1" id="Layer_1" xmlns="http://www.w3.org/2000/svg" xmlns:xlink="http://www.w3.org/1999/xlink" x="0px" y="0px"
	 viewBox="0 0 20 18" style="enable-background:new 0 0 20 18;" xml:space="preserve">
<style type="text/css">
	.st0{fill:#FFFFFF;}
</style>
<path class="st0" d="M19.7,8.3l-8-8c-0.4-0.4-1-0.4-1.4,0C10.1,0.5,10,0.7,10,1v3.5C4.3,5.1,0,9.8,0,15.5V17c0,0.5,0.4,1,1,1
	c0.3,0,0.6-0.1,0.8-0.4c2-2.4,4.8-3.8,7.9-4.1c0.1,0,0.2,0,0.3,0V17c0,0.5,0.4,1,1,1c0.3,0,0.5-0.1,0.7-0.3l8-8
	C20.1,9.3,20.1,8.7,19.7,8.3L19.7,8.3z M12,14.6v-2.1c0-0.6-0.4-1-1-1l0,0c-0.2,0-1.3,0.1-1.6,0.1c-2.7,0.2-5.3,1.3-7.4,2.9
	c0.5-4.6,4.3-8,8.9-8c0.6,0,1-0.4,1-1l0,0V3.4L17.6,9L12,14.6L12,14.6z"/>
</svg>
