<svg width="37" height="36" viewBox="0 0 37 36" fill="none" xmlns="http://www.w3.org/2000/svg">
<path d="M32.4922 27.5062C27.3734 27.5062 26.6984 22.725 26.0234 18.1125C25.2922 13.1062 24.6172 8.43748 18.9922 8.43748C13.3672 8.43748 12.6922 13.1625 11.9609 18.1125C11.2859 22.725 10.6109 27.5062 5.49219 27.5062V26.0437C9.09219 26.0437 9.76718 23.0062 10.4984 17.9437C11.1734 13.05 12.0734 6.97498 18.9922 6.97498C25.9109 6.97498 26.8109 13.05 27.4859 17.9437C28.2172 23.0062 28.8922 26.0437 32.4922 26.0437V27.5062Z" fill="#E9E6FF"/>
<path d="M18.9922 30.6562C16.8547 30.6562 15.0547 28.9125 15.0547 26.7188H16.5172C16.5172 28.0688 17.5859 29.1375 18.9359 29.1375C20.2859 29.1375 21.3547 28.0688 21.3547 26.7188H22.8172C22.9297 28.9125 21.1297 30.6562 18.9922 30.6562Z" fill="#E9E6FF"/>
<path d="M5.49219 25.9875H32.4922V27.5625H5.49219V25.9875Z" fill="#E9E6FF"/>
<path d="M20.567 6.91874C20.567 7.81874 19.8357 8.1 18.992 8.1C18.1482 8.1 17.417 7.76249 17.417 6.91874C17.417 6.07499 18.1482 5.34375 18.992 5.34375C19.8357 5.34375 20.567 6.01874 20.567 6.91874Z" fill="#E9E6FF"/>
<path d="M27.9922 23L29.9922 27H6.49219L9.49219 24L10.9922 19L11.9922 14L13.4922 10L17.4922 8H21.4922L24.4922 10L26.4922 15.5L27.9922 23Z" fill="#E9E6FF"/>
<circle cx="26.4922" cy="11.5" r="5.5" fill="#FE805C"/>
</svg>
