<svg width="26" height="26" viewBox="0 0 26 26" fill="none" xmlns="http://www.w3.org/2000/svg">
<path d="M7.45268 7.55698C8.01589 7.1885 8.38674 6.56187 8.38674 5.85024C8.38674 4.716 7.44521 3.79688 6.28288 3.79688C5.12055 3.79688 4.17867 4.716 4.17867 5.85024C4.17867 6.56187 4.55023 7.18884 5.11309 7.55698C3.65315 7.97785 2.59998 9.13638 2.59998 10.2633C2.59998 11.6734 4.24943 11.4933 6.28324 11.4933C8.31776 11.4933 9.9665 11.6738 9.9665 10.2633C9.96686 9.13603 8.91404 7.97751 7.45268 7.55698ZM20.8862 7.55698C21.4494 7.1885 21.8202 6.56187 21.8202 5.85024C21.8202 4.716 20.8787 3.79688 19.7164 3.79688C18.554 3.79688 17.6121 4.71634 17.6121 5.85024C17.6121 6.56187 17.9837 7.18884 18.5466 7.55698C17.0866 7.97785 16.0334 9.13638 16.0334 10.2633C16.0334 11.6734 17.6829 11.4933 19.7167 11.4933C21.7512 11.4933 23.4 11.6738 23.4 10.2633C23.4 9.13603 22.3472 7.97751 20.8862 7.55698ZM14.2912 17.4432C14.9127 17.0362 15.3223 16.3447 15.3223 15.5588C15.3223 14.3069 14.2827 13.2917 12.9994 13.2917C11.7166 13.2917 10.6766 14.3069 10.6766 15.5588C10.6766 16.3447 11.0862 17.0365 11.708 17.4432C10.0956 17.9078 8.93324 19.1867 8.93324 20.4309C8.93324 21.9878 10.7537 21.7886 12.9998 21.7886C15.2459 21.7886 17.066 21.9878 17.066 20.4309C17.0664 19.1863 15.9037 17.9074 14.2912 17.4432Z" stroke="white" stroke-width="1.3" stroke-miterlimit="10"/>
<path d="M16.6 16.9968L20.2 13.3969" stroke="white" stroke-width="1.3" stroke-miterlimit="10"/>
<path d="M5.80005 13.3969L9.40005 16.9968" stroke="white" stroke-width="1.3" stroke-miterlimit="10"/>
<path d="M10.2 7.79688H15.4" stroke="white" stroke-width="1.3" stroke-miterlimit="10"/>
</svg>
