<svg width="26" height="26" viewBox="0 0 26 26" fill="none" xmlns="http://www.w3.org/2000/svg">
<path d="M7.4528 7.55698C8.01601 7.1885 8.38686 6.56187 8.38686 5.85024C8.38686 4.716 7.44534 3.79688 6.283 3.79688C5.12067 3.79688 4.17879 4.716 4.17879 5.85024C4.17879 6.56187 4.55035 7.18884 5.11321 7.55698C3.65327 7.97785 2.6001 9.13638 2.6001 10.2633C2.6001 11.6734 4.24955 11.4933 6.28336 11.4933C8.31788 11.4933 9.96662 11.6738 9.96662 10.2633C9.96698 9.13603 8.91416 7.97751 7.4528 7.55698ZM20.8863 7.55698C21.4495 7.1885 21.8203 6.56187 21.8203 5.85024C21.8203 4.716 20.8788 3.79688 19.7165 3.79688C18.5541 3.79688 17.6123 4.71634 17.6123 5.85024C17.6123 6.56187 17.9838 7.18884 18.5467 7.55698C17.0867 7.97785 16.0336 9.13638 16.0336 10.2633C16.0336 11.6734 17.683 11.4933 19.7168 11.4933C21.7514 11.4933 23.4001 11.6738 23.4001 10.2633C23.4001 9.13603 22.3473 7.97751 20.8863 7.55698ZM14.2913 17.4432C14.9128 17.0362 15.3224 16.3447 15.3224 15.5588C15.3224 14.3069 14.2828 13.2917 12.9996 13.2917C11.7167 13.2917 10.6767 14.3069 10.6767 15.5588C10.6767 16.3447 11.0863 17.0365 11.7082 17.4432C10.0957 17.9078 8.93336 19.1867 8.93336 20.4309C8.93336 21.9878 10.7538 21.7886 12.9999 21.7886C15.246 21.7886 17.0661 21.9878 17.0661 20.4309C17.0665 19.1863 15.9038 17.9074 14.2913 17.4432Z" stroke="black" stroke-width="1.3" stroke-miterlimit="10"/>
<path d="M16.6001 16.9965L20.2001 13.3965" stroke="black" stroke-width="1.3" stroke-miterlimit="10"/>
<path d="M5.80005 13.3965L9.40005 16.9965" stroke="black" stroke-width="1.3" stroke-miterlimit="10"/>
<path d="M10.2 7.79688H15.4" stroke="black" stroke-width="1.3" stroke-miterlimit="10"/>
</svg>
