<svg width="16" height="16" viewBox="0 0 16 16" fill="none" xmlns="http://www.w3.org/2000/svg">
<path d="M12.0872 14.0435C11.0079 14.0435 10.1307 13.1656 10.1307 12.0869M12.0872 14.0435C13.166 14.0435 14.0438 13.1656 14.0438 12.0869M12.0872 14.0435V16M10.1307 12.0869C10.1307 11.0082 11.0079 10.1304 12.0872 10.1304M10.1307 12.0869H8.17417M12.0872 10.1304C13.166 10.1304 14.0438 11.0082 14.0438 12.0869M12.0872 10.1304V8.17384M14.0438 12.0869H16.0003M13.4705 13.4708L14.8538 14.8541M9.32005 14.8541L10.7033 13.4702M10.7033 10.7036L9.32005 9.32038M13.4705 10.7036L14.8538 9.32038M8.50007 8.50007C7.69532 7.8126 6.72293 7.5218 5.56526 7.5218M5.56526 7.5218C3.04394 7.5218 1 8.84535 1 12.0871V15.348H7.5218M5.56526 7.5218C7.3662 7.5218 8.82616 6.06184 8.82616 4.2609C8.82616 2.45995 7.3662 1 5.56526 1C3.76431 1 2.30436 2.45995 2.30436 4.2609C2.30436 6.06184 3.76431 7.5218 5.56526 7.5218Z" stroke="black" stroke-width="1.30436"/>
</svg>
