<svg width="21" height="21" viewBox="0 0 21 21" fill="none" xmlns="http://www.w3.org/2000/svg">
<path d="M15.783 18.3913C14.3439 18.3913 13.1743 17.2208 13.1743 15.7826M15.783 18.3913C17.2213 18.3913 18.3917 17.2208 18.3917 15.7826M15.783 18.3913V21M13.1743 15.7826C13.1743 14.3443 14.3439 13.1738 15.783 13.1738M13.1743 15.7826H10.5656M15.783 13.1738C17.2213 13.1738 18.3917 14.3443 18.3917 15.7826M15.783 13.1738V10.5651M18.3917 15.7826H21.0004M17.6274 17.6278L19.4717 19.4722M12.0934 19.4722L13.9378 17.6269M13.9378 13.9382L12.0934 12.0938M17.6274 13.9382L19.4717 12.0938M11.0001 11.0001C9.92709 10.0835 8.63058 9.69573 7.08701 9.69573M7.08701 9.69573C3.72525 9.69573 1 11.4605 1 15.7827V20.1306H9.69573M7.08701 9.69573C9.48827 9.69573 11.4349 7.74912 11.4349 5.34786C11.4349 2.9466 9.48827 1 7.08701 1C4.68575 1 2.73915 2.9466 2.73915 5.34786C2.73915 7.74912 4.68575 9.69573 7.08701 9.69573Z" stroke="black" stroke-width="1.73915"/>
</svg>
