<svg width="25" height="25" viewBox="0 0 25 25" fill="none" xmlns="http://www.w3.org/2000/svg">
<mask id="path-1-outside-1_156_19343" maskUnits="userSpaceOnUse" x="1.73438" y="1.73438" width="21" height="21" fill="black">
<rect fill="white" x="1.73438" y="1.73438" width="21" height="21"/>
<path d="M12.5 2.73438C7.11515 2.73438 2.73438 7.11515 2.73438 12.5C2.73438 17.8849 7.11515 22.2656 12.5 22.2656C17.8849 22.2656 22.2656 17.8849 22.2656 12.5C22.2656 7.11515 17.8849 2.73438 12.5 2.73438ZM21.3307 10.4464L20.9809 10.8122C20.9414 10.8534 20.8954 10.853 20.8705 10.8495C20.846 10.8455 20.8014 10.8314 20.7769 10.7798L20.4741 10.1465C20.4339 10.0632 20.3808 9.98758 20.3154 9.9215L19.7966 9.40056C19.6434 9.24644 19.4308 9.15805 19.2132 9.15805H19.0824C18.6284 9.15805 18.2592 9.52726 18.2592 9.98264C18.2592 10.0228 18.2398 10.061 18.2074 10.0845L17.9247 10.2893C17.7071 10.447 17.4336 10.4959 17.1744 10.4242C16.9155 10.3524 16.7064 10.1691 16.6011 9.9215L16.2585 9.11446C16.2285 9.04361 16.1887 8.97771 16.142 8.92032L15.092 7.61395C15.0286 7.53493 14.9523 7.4692 14.8661 7.41913L13.4533 6.59165C13.2473 6.47142 12.9997 6.44587 12.7732 6.52268L11.5 6.95489L10.1553 7.35901C9.97787 7.41198 9.82188 7.52489 9.71697 7.67611L9.62024 7.81422C9.58959 7.85833 9.54599 7.86668 9.52283 7.8677C9.50069 7.86616 9.45574 7.86429 9.42099 7.82274L9.02147 7.34369C8.9932 7.30997 8.98469 7.26331 8.99967 7.22158L9.50717 5.79277C9.51977 5.75684 9.54804 5.72891 9.58414 5.71631L11.7544 4.95814C11.9169 4.90126 12.0555 4.79687 12.1546 4.65654L13.0104 3.44712C17.0771 3.67396 20.4346 6.59278 21.3307 10.4464ZM6.40413 5.79218L6.6223 6.15721C6.84335 6.5271 6.82496 6.99338 6.57598 7.34488L5.80487 8.43445L4.92033 9.77385C4.9108 9.78799 4.89887 9.79991 4.88423 9.80945L4.5593 10.0211C4.18839 10.2628 4.07497 10.7503 4.30113 11.1313L4.43771 11.3612C4.46972 11.4155 4.45235 11.4632 4.43907 11.4869C4.42613 11.5104 4.39445 11.5502 4.3311 11.5509L3.48045 11.5614C3.71572 9.28403 4.79701 7.254 6.40413 5.79218ZM3.52392 13.7797L4.38832 13.5034C4.42987 13.4905 4.47585 13.4993 4.50923 13.5284L5.86447 14.71C5.96222 14.7953 6.08041 14.8569 6.20643 14.8884L7.40636 15.1885C7.4554 15.2008 7.4789 15.2353 7.48844 15.2549C7.49832 15.2743 7.51126 15.3139 7.49117 15.3602L7.33415 15.7215C7.24696 15.922 7.24287 16.1442 7.32155 16.3472L7.55384 16.9457C7.57734 17.0059 7.55145 17.0735 7.49389 17.103L6.9503 17.3803C6.69962 17.5082 6.53306 17.7519 6.50514 18.0322L6.38944 19.1938C4.87124 17.8067 3.82644 15.9112 3.52392 13.7797ZM12.5 21.5681C10.45 21.5681 8.55734 20.8835 7.03685 19.732L7.19927 18.1013C7.20336 18.0584 7.22891 18.0213 7.26705 18.0017L7.81065 17.7244C8.18803 17.532 8.35731 17.0889 8.20438 16.6934L7.97175 16.0947C7.95983 16.0638 7.96051 16.0298 7.97379 15.9995L8.13081 15.6384C8.22754 15.416 8.22141 15.1638 8.11412 14.9463C8.00683 14.7289 7.81065 14.5705 7.57529 14.5117L6.37537 14.2117C6.35629 14.2069 6.33824 14.1975 6.32326 14.1844L4.96768 13.0026C4.75242 12.8147 4.44997 12.7526 4.17613 12.8389L3.4517 13.0704C3.4399 12.8816 3.43192 12.6917 3.43192 12.5C3.43192 12.4194 3.4359 12.3397 3.43801 12.2596L4.33961 12.2485C4.6373 12.2449 4.90194 12.0877 5.04772 11.8282C5.19315 11.5685 5.18941 11.2607 5.03716 11.0049L4.90092 10.7752C4.86618 10.717 4.88355 10.6424 4.94009 10.6056L5.26536 10.3937C5.36073 10.3314 5.44077 10.2519 5.50241 10.1579L6.38048 8.82835L7.14546 7.74815C7.55384 7.17134 7.58347 6.40653 7.22107 5.79942L6.94612 5.33931C8.39946 4.20953 10.2033 3.51205 12.1654 3.44041L11.5852 4.25395C11.5702 4.2749 11.5484 4.29125 11.5242 4.29976L9.3539 5.05793C9.11718 5.14053 8.9336 5.32343 8.84981 5.55929L8.34232 6.98793C8.24525 7.26109 8.30043 7.56882 8.48605 7.79089L8.88557 8.2696C9.05111 8.46817 9.29565 8.57461 9.55315 8.56456C9.81132 8.55332 10.0446 8.42543 10.1921 8.21357L10.2892 8.07495C10.3048 8.05213 10.3283 8.03527 10.3556 8.0271L11.7125 7.61906L12.9973 7.18327C13.0307 7.17083 13.0695 7.17543 13.1012 7.19365L14.5146 8.02148C14.5272 8.0288 14.5385 8.03868 14.5484 8.05077L15.6165 9.38693L15.9595 10.1943C16.1481 10.6385 16.5228 10.9671 16.9877 11.0964C17.453 11.2253 17.9434 11.1369 18.3341 10.8541L18.6168 10.649C18.8297 10.4947 18.9567 10.2456 18.9567 9.98111C18.9567 9.91197 19.0133 9.8556 19.0824 9.8556H19.2132C19.2466 9.8556 19.2789 9.86905 19.3021 9.89255L19.8205 10.4132C19.8307 10.4234 19.8389 10.4353 19.845 10.4479L20.1478 11.0809C20.2646 11.3248 20.4938 11.4957 20.7609 11.5383C20.8038 11.5451 20.847 11.5485 20.8903 11.5485C21.113 11.5485 21.3286 11.4579 21.485 11.2943L21.4854 11.2938C21.5382 11.6888 21.5681 12.0908 21.5681 12.5C21.5681 17.5001 17.5003 21.5681 12.5 21.5681Z"/>
</mask>
<path d="M12.5 2.73438C7.11515 2.73438 2.73438 7.11515 2.73438 12.5C2.73438 17.8849 7.11515 22.2656 12.5 22.2656C17.8849 22.2656 22.2656 17.8849 22.2656 12.5C22.2656 7.11515 17.8849 2.73438 12.5 2.73438ZM21.3307 10.4464L20.9809 10.8122C20.9414 10.8534 20.8954 10.853 20.8705 10.8495C20.846 10.8455 20.8014 10.8314 20.7769 10.7798L20.4741 10.1465C20.4339 10.0632 20.3808 9.98758 20.3154 9.9215L19.7966 9.40056C19.6434 9.24644 19.4308 9.15805 19.2132 9.15805H19.0824C18.6284 9.15805 18.2592 9.52726 18.2592 9.98264C18.2592 10.0228 18.2398 10.061 18.2074 10.0845L17.9247 10.2893C17.7071 10.447 17.4336 10.4959 17.1744 10.4242C16.9155 10.3524 16.7064 10.1691 16.6011 9.9215L16.2585 9.11446C16.2285 9.04361 16.1887 8.97771 16.142 8.92032L15.092 7.61395C15.0286 7.53493 14.9523 7.4692 14.8661 7.41913L13.4533 6.59165C13.2473 6.47142 12.9997 6.44587 12.7732 6.52268L11.5 6.95489L10.1553 7.35901C9.97787 7.41198 9.82188 7.52489 9.71697 7.67611L9.62024 7.81422C9.58959 7.85833 9.54599 7.86668 9.52283 7.8677C9.50069 7.86616 9.45574 7.86429 9.42099 7.82274L9.02147 7.34369C8.9932 7.30997 8.98469 7.26331 8.99967 7.22158L9.50717 5.79277C9.51977 5.75684 9.54804 5.72891 9.58414 5.71631L11.7544 4.95814C11.9169 4.90126 12.0555 4.79687 12.1546 4.65654L13.0104 3.44712C17.0771 3.67396 20.4346 6.59278 21.3307 10.4464ZM6.40413 5.79218L6.6223 6.15721C6.84335 6.5271 6.82496 6.99338 6.57598 7.34488L5.80487 8.43445L4.92033 9.77385C4.9108 9.78799 4.89887 9.79991 4.88423 9.80945L4.5593 10.0211C4.18839 10.2628 4.07497 10.7503 4.30113 11.1313L4.43771 11.3612C4.46972 11.4155 4.45235 11.4632 4.43907 11.4869C4.42613 11.5104 4.39445 11.5502 4.3311 11.5509L3.48045 11.5614C3.71572 9.28403 4.79701 7.254 6.40413 5.79218ZM3.52392 13.7797L4.38832 13.5034C4.42987 13.4905 4.47585 13.4993 4.50923 13.5284L5.86447 14.71C5.96222 14.7953 6.08041 14.8569 6.20643 14.8884L7.40636 15.1885C7.4554 15.2008 7.4789 15.2353 7.48844 15.2549C7.49832 15.2743 7.51126 15.3139 7.49117 15.3602L7.33415 15.7215C7.24696 15.922 7.24287 16.1442 7.32155 16.3472L7.55384 16.9457C7.57734 17.0059 7.55145 17.0735 7.49389 17.103L6.9503 17.3803C6.69962 17.5082 6.53306 17.7519 6.50514 18.0322L6.38944 19.1938C4.87124 17.8067 3.82644 15.9112 3.52392 13.7797ZM12.5 21.5681C10.45 21.5681 8.55734 20.8835 7.03685 19.732L7.19927 18.1013C7.20336 18.0584 7.22891 18.0213 7.26705 18.0017L7.81065 17.7244C8.18803 17.532 8.35731 17.0889 8.20438 16.6934L7.97175 16.0947C7.95983 16.0638 7.96051 16.0298 7.97379 15.9995L8.13081 15.6384C8.22754 15.416 8.22141 15.1638 8.11412 14.9463C8.00683 14.7289 7.81065 14.5705 7.57529 14.5117L6.37537 14.2117C6.35629 14.2069 6.33824 14.1975 6.32326 14.1844L4.96768 13.0026C4.75242 12.8147 4.44997 12.7526 4.17613 12.8389L3.4517 13.0704C3.4399 12.8816 3.43192 12.6917 3.43192 12.5C3.43192 12.4194 3.4359 12.3397 3.43801 12.2596L4.33961 12.2485C4.6373 12.2449 4.90194 12.0877 5.04772 11.8282C5.19315 11.5685 5.18941 11.2607 5.03716 11.0049L4.90092 10.7752C4.86618 10.717 4.88355 10.6424 4.94009 10.6056L5.26536 10.3937C5.36073 10.3314 5.44077 10.2519 5.50241 10.1579L6.38048 8.82835L7.14546 7.74815C7.55384 7.17134 7.58347 6.40653 7.22107 5.79942L6.94612 5.33931C8.39946 4.20953 10.2033 3.51205 12.1654 3.44041L11.5852 4.25395C11.5702 4.2749 11.5484 4.29125 11.5242 4.29976L9.3539 5.05793C9.11718 5.14053 8.9336 5.32343 8.84981 5.55929L8.34232 6.98793C8.24525 7.26109 8.30043 7.56882 8.48605 7.79089L8.88557 8.2696C9.05111 8.46817 9.29565 8.57461 9.55315 8.56456C9.81132 8.55332 10.0446 8.42543 10.1921 8.21357L10.2892 8.07495C10.3048 8.05213 10.3283 8.03527 10.3556 8.0271L11.7125 7.61906L12.9973 7.18327C13.0307 7.17083 13.0695 7.17543 13.1012 7.19365L14.5146 8.02148C14.5272 8.0288 14.5385 8.03868 14.5484 8.05077L15.6165 9.38693L15.9595 10.1943C16.1481 10.6385 16.5228 10.9671 16.9877 11.0964C17.453 11.2253 17.9434 11.1369 18.3341 10.8541L18.6168 10.649C18.8297 10.4947 18.9567 10.2456 18.9567 9.98111C18.9567 9.91197 19.0133 9.8556 19.0824 9.8556H19.2132C19.2466 9.8556 19.2789 9.86905 19.3021 9.89255L19.8205 10.4132C19.8307 10.4234 19.8389 10.4353 19.845 10.4479L20.1478 11.0809C20.2646 11.3248 20.4938 11.4957 20.7609 11.5383C20.8038 11.5451 20.847 11.5485 20.8903 11.5485C21.113 11.5485 21.3286 11.4579 21.485 11.2943L21.4854 11.2938C21.5382 11.6888 21.5681 12.0908 21.5681 12.5C21.5681 17.5001 17.5003 21.5681 12.5 21.5681Z" fill="black"/>
<path d="M12.5 2.73438C7.11515 2.73438 2.73438 7.11515 2.73438 12.5C2.73438 17.8849 7.11515 22.2656 12.5 22.2656C17.8849 22.2656 22.2656 17.8849 22.2656 12.5C22.2656 7.11515 17.8849 2.73438 12.5 2.73438ZM21.3307 10.4464L20.9809 10.8122C20.9414 10.8534 20.8954 10.853 20.8705 10.8495C20.846 10.8455 20.8014 10.8314 20.7769 10.7798L20.4741 10.1465C20.4339 10.0632 20.3808 9.98758 20.3154 9.9215L19.7966 9.40056C19.6434 9.24644 19.4308 9.15805 19.2132 9.15805H19.0824C18.6284 9.15805 18.2592 9.52726 18.2592 9.98264C18.2592 10.0228 18.2398 10.061 18.2074 10.0845L17.9247 10.2893C17.7071 10.447 17.4336 10.4959 17.1744 10.4242C16.9155 10.3524 16.7064 10.1691 16.6011 9.9215L16.2585 9.11446C16.2285 9.04361 16.1887 8.97771 16.142 8.92032L15.092 7.61395C15.0286 7.53493 14.9523 7.4692 14.8661 7.41913L13.4533 6.59165C13.2473 6.47142 12.9997 6.44587 12.7732 6.52268L11.5 6.95489L10.1553 7.35901C9.97787 7.41198 9.82188 7.52489 9.71697 7.67611L9.62024 7.81422C9.58959 7.85833 9.54599 7.86668 9.52283 7.8677C9.50069 7.86616 9.45574 7.86429 9.42099 7.82274L9.02147 7.34369C8.9932 7.30997 8.98469 7.26331 8.99967 7.22158L9.50717 5.79277C9.51977 5.75684 9.54804 5.72891 9.58414 5.71631L11.7544 4.95814C11.9169 4.90126 12.0555 4.79687 12.1546 4.65654L13.0104 3.44712C17.0771 3.67396 20.4346 6.59278 21.3307 10.4464ZM6.40413 5.79218L6.6223 6.15721C6.84335 6.5271 6.82496 6.99338 6.57598 7.34488L5.80487 8.43445L4.92033 9.77385C4.9108 9.78799 4.89887 9.79991 4.88423 9.80945L4.5593 10.0211C4.18839 10.2628 4.07497 10.7503 4.30113 11.1313L4.43771 11.3612C4.46972 11.4155 4.45235 11.4632 4.43907 11.4869C4.42613 11.5104 4.39445 11.5502 4.3311 11.5509L3.48045 11.5614C3.71572 9.28403 4.79701 7.254 6.40413 5.79218ZM3.52392 13.7797L4.38832 13.5034C4.42987 13.4905 4.47585 13.4993 4.50923 13.5284L5.86447 14.71C5.96222 14.7953 6.08041 14.8569 6.20643 14.8884L7.40636 15.1885C7.4554 15.2008 7.4789 15.2353 7.48844 15.2549C7.49832 15.2743 7.51126 15.3139 7.49117 15.3602L7.33415 15.7215C7.24696 15.922 7.24287 16.1442 7.32155 16.3472L7.55384 16.9457C7.57734 17.0059 7.55145 17.0735 7.49389 17.103L6.9503 17.3803C6.69962 17.5082 6.53306 17.7519 6.50514 18.0322L6.38944 19.1938C4.87124 17.8067 3.82644 15.9112 3.52392 13.7797ZM12.5 21.5681C10.45 21.5681 8.55734 20.8835 7.03685 19.732L7.19927 18.1013C7.20336 18.0584 7.22891 18.0213 7.26705 18.0017L7.81065 17.7244C8.18803 17.532 8.35731 17.0889 8.20438 16.6934L7.97175 16.0947C7.95983 16.0638 7.96051 16.0298 7.97379 15.9995L8.13081 15.6384C8.22754 15.416 8.22141 15.1638 8.11412 14.9463C8.00683 14.7289 7.81065 14.5705 7.57529 14.5117L6.37537 14.2117C6.35629 14.2069 6.33824 14.1975 6.32326 14.1844L4.96768 13.0026C4.75242 12.8147 4.44997 12.7526 4.17613 12.8389L3.4517 13.0704C3.4399 12.8816 3.43192 12.6917 3.43192 12.5C3.43192 12.4194 3.4359 12.3397 3.43801 12.2596L4.33961 12.2485C4.6373 12.2449 4.90194 12.0877 5.04772 11.8282C5.19315 11.5685 5.18941 11.2607 5.03716 11.0049L4.90092 10.7752C4.86618 10.717 4.88355 10.6424 4.94009 10.6056L5.26536 10.3937C5.36073 10.3314 5.44077 10.2519 5.50241 10.1579L6.38048 8.82835L7.14546 7.74815C7.55384 7.17134 7.58347 6.40653 7.22107 5.79942L6.94612 5.33931C8.39946 4.20953 10.2033 3.51205 12.1654 3.44041L11.5852 4.25395C11.5702 4.2749 11.5484 4.29125 11.5242 4.29976L9.3539 5.05793C9.11718 5.14053 8.9336 5.32343 8.84981 5.55929L8.34232 6.98793C8.24525 7.26109 8.30043 7.56882 8.48605 7.79089L8.88557 8.2696C9.05111 8.46817 9.29565 8.57461 9.55315 8.56456C9.81132 8.55332 10.0446 8.42543 10.1921 8.21357L10.2892 8.07495C10.3048 8.05213 10.3283 8.03527 10.3556 8.0271L11.7125 7.61906L12.9973 7.18327C13.0307 7.17083 13.0695 7.17543 13.1012 7.19365L14.5146 8.02148C14.5272 8.0288 14.5385 8.03868 14.5484 8.05077L15.6165 9.38693L15.9595 10.1943C16.1481 10.6385 16.5228 10.9671 16.9877 11.0964C17.453 11.2253 17.9434 11.1369 18.3341 10.8541L18.6168 10.649C18.8297 10.4947 18.9567 10.2456 18.9567 9.98111C18.9567 9.91197 19.0133 9.8556 19.0824 9.8556H19.2132C19.2466 9.8556 19.2789 9.86905 19.3021 9.89255L19.8205 10.4132C19.8307 10.4234 19.8389 10.4353 19.845 10.4479L20.1478 11.0809C20.2646 11.3248 20.4938 11.4957 20.7609 11.5383C20.8038 11.5451 20.847 11.5485 20.8903 11.5485C21.113 11.5485 21.3286 11.4579 21.485 11.2943L21.4854 11.2938C21.5382 11.6888 21.5681 12.0908 21.5681 12.5C21.5681 17.5001 17.5003 21.5681 12.5 21.5681Z" stroke="black" stroke-width="0.3" mask="url(#path-1-outside-1_156_19343)"/>
<path d="M16.3837 12.2149L16.3838 12.2149C16.6676 12.3047 16.889 12.5261 16.9753 12.8081C16.9753 12.8081 16.9753 12.8081 16.9753 12.8081L16.3837 12.2149ZM16.3837 12.2149L16.0257 12.1018C16.0257 12.1018 16.0257 12.1018 16.0257 12.1018C16.0134 12.0978 16.0035 12.09 15.9973 12.0796L15.9971 12.0794M16.3837 12.2149L15.9971 12.0794M15.9971 12.0794L14.6847 9.92251L14.6846 9.92247M15.9971 12.0794L14.6846 9.92247M14.6846 9.92247C14.5793 9.74971 14.4164 9.61593 14.2251 9.54523C14.2251 9.54523 14.2251 9.54523 14.2251 9.54523L13.4024 9.24102L14.6846 9.92247ZM12.6279 9.30432L12.628 9.30429C12.8646 9.1693 13.147 9.14622 13.4023 9.24099L12.6279 9.30432ZM12.6279 9.30432L12.3473 9.46474L12.3469 9.46496M12.6279 9.30432L12.3469 9.46496M12.3469 9.46496C12.3282 9.47582 12.304 9.47392 12.2865 9.45917L11.8502 9.09009L11.8502 9.09004M12.3469 9.46496L11.8502 9.09004M11.8502 9.09004C11.6676 8.93591 11.427 8.85681 11.1864 8.87745M11.8502 9.09004L11.1864 8.87745M11.1864 8.87745C11.1863 8.87746 11.1862 8.87746 11.1861 8.87747L9.87594 8.98093C9.87593 8.98093 9.87593 8.98093 9.87592 8.98093C9.56468 9.00544 9.291 9.18259 9.14546 9.45562M11.1864 8.87745L11.3519 16.9218M9.14546 9.45562L9.14549 9.45556L9.21165 9.4909L9.14546 9.45562ZM9.14546 9.45562L8.6854 10.317L8.75155 10.3523M8.75155 10.3523L8.68539 10.317C8.11766 11.3791 8.52801 12.7082 9.59812 13.2807L9.63352 13.2145M8.75155 10.3523C8.20363 11.3774 8.59933 12.6613 9.63352 13.2145M8.75155 10.3523L9.63352 13.2145M9.63352 13.2145L9.59814 13.2807L10.5176 13.773L10.5178 13.773C10.528 13.7785 10.5361 13.7872 10.5407 13.7975L10.5407 13.7973L10.6092 13.7668M10.6092 13.7668L10.5408 13.7976L10.9493 14.7151L11.018 14.685M10.6092 13.7668L11.018 14.685M10.6092 13.7668L11.1922 14.9367M11.018 14.685L10.9494 14.7155L10.9494 14.7153C10.9946 14.8181 11.0586 14.9106 11.1397 14.9902M11.018 14.685C11.0593 14.779 11.1178 14.8637 11.1922 14.9367M11.1397 14.9902L11.5563 15.4003L11.5565 15.4004C11.5699 15.4136 11.5745 15.4324 11.5697 15.449L11.5697 15.4489L11.6416 15.4702M11.1397 14.9902L11.1396 14.9902L11.1922 14.9367M11.1397 14.9902L11.1922 14.9367M11.6416 15.4702L11.5697 15.4491L11.3135 16.3164L11.3854 16.3378M11.6416 15.4702L11.3854 16.3378M11.6416 15.4702L11.4205 16.8916M11.3854 16.3378L11.3135 16.3166C11.254 16.5164 11.268 16.7315 11.3519 16.9218M11.3854 16.3378C11.331 16.5206 11.3438 16.7175 11.4205 16.8916M11.3519 16.9218L11.4205 16.8916M11.3519 16.9218L11.4205 16.8916M16.1473 13.0966L16.1475 13.0964C16.1556 13.0864 16.158 13.0779 16.1586 13.0714C16.1594 13.064 16.1581 13.057 16.1565 13.0521C16.1549 13.0468 16.1519 13.04 16.147 13.034C16.1425 13.0286 16.1356 13.0226 16.1229 13.0186L15.7644 12.9052L15.7643 12.9052C15.5541 12.8385 15.3764 12.6995 15.2635 12.5131L13.9511 10.3569L13.9509 10.3566C13.9451 10.347 13.9364 10.3397 13.9249 10.3355L13.9247 10.3354L13.1023 10.0311C13.1022 10.0311 13.1022 10.0311 13.1022 10.0311C13.0863 10.0253 13.07 10.0269 13.0568 10.0345L13.0564 10.0348L12.7758 10.195L12.7757 10.195L12.7385 10.1299L16.1473 13.0966ZM16.1473 13.0966L15.1875 14.2768C15.0589 14.4346 14.9881 14.6331 14.9881 14.8359V16.3116C14.9881 16.3298 14.9781 16.3466 14.9606 16.3555L14.9605 16.3556L16.1473 13.0966ZM13.1142 18.3626L13.1144 18.3626C13.2633 18.4119 13.4201 18.396 13.5561 18.3194L13.5929 18.3847L13.5561 18.3194L13.8388 18.1602C13.8539 18.1517 13.8631 18.1366 13.8642 18.1203L13.9131 17.3774L13.9131 17.3773L13.988 17.3822L13.1142 18.3626ZM13.1142 18.3626C12.965 18.3137 12.8495 18.2094 12.7876 18.0683L12.7876 18.0683M13.1142 18.3626L12.7876 18.0683M12.7876 18.0683L12.1365 16.586C12.1365 16.586 12.1364 16.5859 12.1364 16.5859C12.132 16.5755 12.1312 16.5643 12.1344 16.5533L12.391 15.6845L12.391 15.6844M12.7876 18.0683L12.391 15.6844M12.391 15.6844C12.4829 15.3712 12.3947 15.0335 12.1606 14.803L12.1605 14.8029M12.391 15.6844L12.1605 14.8029M12.1605 14.8029L11.7435 14.3926C11.739 14.3882 11.7357 14.3835 11.7328 14.3772C11.7328 14.3772 11.7328 14.3771 11.7328 14.3771L11.3238 13.4582L12.1605 14.8029ZM10.9259 13.0315L10.926 13.0316C11.1023 13.1262 11.2435 13.2773 11.3238 13.4581L10.9259 13.0315ZM10.9259 13.0315L10.0057 12.5389L10.0057 12.5389M10.9259 13.0315L10.0057 12.5389M10.0057 12.5389C9.34461 12.1851 9.09236 11.3644 9.44173 10.7105L9.44173 10.7105M10.0057 12.5389L9.44173 10.7105M9.44173 10.7105L9.90161 9.84952M9.44173 10.7105L9.90161 9.84952M9.90161 9.84952C9.90164 9.84947 9.90167 9.84942 9.9017 9.84937M9.90161 9.84952L9.9017 9.84937M9.9017 9.84937C9.91023 9.83375 9.92546 9.82366 9.94396 9.82213C9.94399 9.82213 9.94401 9.82213 9.94404 9.82213L11.254 9.71857L9.9017 9.84937ZM11.3519 16.9219L12.0028 18.4039L12.0028 18.4039C12.1609 18.7633 12.4679 19.0402 12.8447 19.1636L12.868 19.0923L12.8447 19.1636C12.9884 19.2107 13.1375 19.2337 13.2858 19.2337C13.5268 19.2337 13.7668 19.1724 13.9803 19.0521L14.2634 18.8927L14.2635 18.8927C14.528 18.7434 14.6982 18.4749 14.7178 18.1747C14.7178 18.1747 14.7178 18.1747 14.7178 18.1746L14.7667 17.4315L14.7667 17.4314C14.7678 17.4152 14.7779 17.3992 14.7941 17.3909L14.7942 17.3909L15.3538 17.1049C15.6554 16.9509 15.8434 16.647 15.8434 16.3116V14.8359C15.8434 14.8246 15.8473 14.8141 15.8541 14.8058L15.8545 14.8053L16.8143 13.6249L11.3519 16.9219Z" fill="black" stroke="black" stroke-width="0.15"/>
</svg>
