<svg width="28" height="28" viewBox="0 0 28 28" fill="none" xmlns="http://www.w3.org/2000/svg">
<path d="M21.4375 3.0625V7.4375" stroke="white" stroke-width="1.2" stroke-miterlimit="10" stroke-linecap="round"/>
<path d="M12.6875 11.375C14.3789 11.375 15.75 10.0039 15.75 8.3125C15.75 6.62113 14.3789 5.25 12.6875 5.25C10.9961 5.25 9.625 6.62113 9.625 8.3125C9.625 10.0039 10.9961 11.375 12.6875 11.375Z" stroke="white" stroke-width="1.2" stroke-miterlimit="10"/>
<path d="M12.25 14.875H13.2475C15.104 14.875 16.8845 15.6125 18.1972 16.9253C19.51 18.238 20.2475 20.0185 20.2475 21.875C20.2475 22.3391 20.0631 22.7842 19.7349 23.1124C19.4067 23.4406 18.9616 23.625 18.4975 23.625H7C6.53587 23.625 6.09075 23.4406 5.76256 23.1124C5.43437 22.7842 5.25 22.3391 5.25 21.875C5.25 20.0185 5.9875 18.238 7.30025 16.9253C8.61301 15.6125 10.3935 14.875 12.25 14.875V14.875Z" stroke="white" stroke-width="1.2" stroke-miterlimit="10"/>
<path d="M19.25 5.04004L23.625 5.05754" stroke="white" stroke-width="1.2" stroke-miterlimit="10" stroke-linecap="round"/>
</svg>
