<svg width="28" height="26" viewBox="0 0 28 26" fill="none" xmlns="http://www.w3.org/2000/svg">
<path d="M7.53773 21.525L5.8346 25.9531H9.58149L12.3065 23.5687L16.0534 22.2062H19.8003L22.5253 20.8437L24.9096 18.8L26.6128 15.7344L27.6346 11.9875L27.294 7.55934L24.2284 4.15308L21.5034 2.10933L15.7127 0.746826L9.58149 1.42808L4.4721 3.47183L1.40647 8.24059L0.72522 14.0312L3.1096 17.7781L7.53773 21.525Z" fill="#352E71"/>
<path d="M7.53773 21.525L5.8346 25.9531H9.58149L12.3065 23.5687L16.0534 22.2062H19.8003L22.5253 20.8437L24.9096 18.8L26.6128 15.7344L27.6346 11.9875L27.294 7.55934L24.2284 4.15308L21.5034 2.10933L15.7127 0.746826L9.58149 1.42808L4.4721 3.47183L1.40647 8.24059L0.72522 14.0312L3.1096 17.7781L7.53773 21.525Z" fill="#352E71" fill-opacity="0.6"/>
<path d="M7.53773 21.525L5.8346 25.9531H9.58149L12.3065 23.5687L16.0534 22.2062H19.8003L22.5253 20.8437L24.9096 18.8L26.6128 15.7344L27.6346 11.9875L27.294 7.55934L24.2284 4.15308L21.5034 2.10933L15.7127 0.746826L9.58149 1.42808L4.4721 3.47183L1.40647 8.24059L0.72522 14.0312L3.1096 17.7781L7.53773 21.525Z" fill="#352E71" fill-opacity="0.4"/>
</svg>
