<svg width="33" height="33" viewBox="0 0 33 33" fill="none" xmlns="http://www.w3.org/2000/svg">
<path d="M7.97755 29.8844H6.48552L7.38074 28.6282C8.03723 27.6711 8.51467 26.5345 8.75339 25.039C4.51604 23.1248 2.24817 19.5357 2.24817 14.81C2.24817 7.57191 7.67915 3.08548 16.4523 3.08548C25.2254 3.08548 30.6563 7.57191 30.6563 14.81C30.6563 22.1079 25.3447 26.5345 16.4523 26.5345C16.2732 26.5345 16.0345 26.5345 15.8554 26.5345C14.4231 28.0898 12.0359 29.8844 7.97755 29.8844ZM16.3329 4.64078C8.39531 4.64078 3.68051 8.40937 3.68051 14.81C3.68051 20.2535 7.02265 22.7061 9.76798 23.8427L10.3051 24.0819L10.2454 24.6801C10.0664 26.056 9.76798 27.2524 9.29054 28.2693C12.1552 27.9104 13.8263 26.4747 14.7215 25.2783L14.9602 24.9792H15.4974C15.7361 24.9792 16.0345 24.9792 16.2732 24.9792C27.6723 24.9792 28.9256 17.8608 28.9256 14.81C28.9853 8.46919 24.2705 4.64078 16.3329 4.64078Z" fill="#E9E6FF"/>
<path d="M9.81251 24.9326L8.10938 29.3709H11.8563L14.5813 26.981L18.3282 25.6154H22.075L24.8 24.2497L27.1844 22.2013L28.8875 19.1285L29.9094 15.373L29.5688 10.9346L26.5032 7.52049L23.7782 5.47201L17.9875 4.10635L11.8563 4.78918L6.74688 6.83766L3.68125 11.6174L3 17.4215L5.38438 21.177L9.81251 24.9326Z" fill="#E9E6FF"/>
</svg>
