<svg width="32" height="32" viewBox="0 0 32 32" fill="none" xmlns="http://www.w3.org/2000/svg">
<g clip-path="url(#clip0_227_20765)">
<path d="M26.9996 16.8C26.9996 16.6 26.9996 16.3 26.9996 16C26.9996 15.7 26.9996 15.5 26.9996 15.2L28.8996 13.5C29.5996 12.9 29.7996 11.8 29.2996 11L26.8996 7C26.4996 6.4 25.8996 6 25.1996 6C24.9996 6 24.7996 6 24.5996 6.1L22.1996 6.9C21.7996 6.6 21.2996 6.4 20.8996 6.1L20.3996 3.6C20.1996 2.6 19.3996 2 18.3996 2H13.6996C12.6996 2 11.8996 2.7 11.6996 3.6L11.1996 6.1C10.6996 6.3 10.2996 6.6 9.89962 6.9L7.39962 6.1C7.19962 6 6.99962 6 6.79962 6C6.09962 6 5.39962 6.4 5.09962 7L2.69962 11C2.19962 11.8 2.39962 12.9 3.09962 13.5L4.99962 15.2C4.99962 15.4 4.99962 15.7 4.99962 16C4.99962 16.3 4.99962 16.5 4.99962 16.8L3.09962 18.5C2.39962 19.1 2.19962 20.2 2.69962 21L5.09962 25C5.49962 25.6 6.09962 26 6.79962 26C6.99962 26 7.19962 26 7.39962 25.9L9.79962 25.1C10.1996 25.4 10.6996 25.6 11.0996 25.9L11.5996 28.4C11.7996 29.4 12.5996 30 13.5996 30H18.2996C19.2996 30 20.0996 29.3 20.2996 28.4L20.7996 25.9C21.2996 25.7 21.6996 25.4 22.0996 25.1L24.4996 25.9C24.6996 26 24.8996 26 25.0996 26C25.7996 26 26.4996 25.6 26.7996 25L29.0996 21C29.5996 20.2 29.3996 19.1 28.6996 18.5L26.9996 16.8ZM25.1996 24L21.7996 22.8C20.9996 23.5 20.0996 24 19.0996 24.4L18.3996 28H13.6996L12.9996 24.5C11.9996 24.1 11.0996 23.6 10.2996 22.9L6.79962 24L4.39962 20L7.09962 17.6C6.89962 16.6 6.89962 15.5 7.09962 14.5L4.39962 12L6.79962 8L10.1996 9.2C10.9996 8.5 11.8996 8 12.8996 7.6L13.5996 4H18.2996L18.9996 7.6C19.9996 8 20.8996 8.5 21.6996 9.2L25.1996 8L27.5996 12L24.8996 14.4C25.0996 15.4 25.0996 16.5 24.8996 17.5L27.5996 20L25.1996 24Z" fill="black"/>
<path d="M16 22C12.7 22 10 19.3 10 16C10 12.7 12.7 10 16 10C19.3 10 22 12.7 22 16C22 19.3 19.4 22 16.1 22H16ZM16 12C13.8 11.9 12.1 13.7 12 15.8C12 15.9 12 15.9 12 16C11.9 18.2 13.7 19.9 15.8 20C15.9 20 15.9 20 16 20C18.2 20.1 19.9 18.3 20 16.2C20 16.1 20 16.1 20 16C20.1 13.8 18.3 12.1 16.2 12C16.1 12 16.1 12 16 12Z" fill="black"/>
</g>
<defs>
<clipPath id="clip0_227_20765">
<rect width="32" height="32" fill="white"/>
</clipPath>
</defs>
</svg>
