<svg width="35" height="35" viewBox="0 0 35 35" fill="none" xmlns="http://www.w3.org/2000/svg">
<path fill-rule="evenodd" clip-rule="evenodd" d="M16.0854 3.77675C16.4806 3.44171 16.9819 3.25781 17.5 3.25781C18.0181 3.25781 18.5194 3.44171 18.9146 3.77675L29.8521 13.0561C30.0943 13.2615 30.2889 13.517 30.4223 13.8051C30.5559 14.0932 30.625 14.4069 30.625 14.7245V28.4372C30.625 29.0173 30.3946 29.5737 29.9844 29.9839C29.5741 30.3941 29.0176 30.6247 28.4375 30.6247H20.0521C19.762 30.6247 19.4838 30.5095 19.2787 30.3043C19.0735 30.0991 18.9583 29.821 18.9583 29.531V20.4164H16.0417V29.531C16.0417 29.821 15.9265 30.0991 15.7213 30.3043C15.5162 30.5095 15.238 30.6247 14.9479 30.6247H6.5625C5.98235 30.6247 5.42593 30.3941 5.0157 29.9839C4.60548 29.5737 4.375 29.0173 4.375 28.4372V14.7245C4.375 14.0828 4.65792 13.4717 5.14792 13.0561L16.0854 3.77675ZM17.5 5.44508L6.5625 14.7245V28.4372H13.8542V19.3226C13.8542 19.0326 13.9694 18.7543 14.1745 18.5491C14.3796 18.3441 14.6579 18.2289 14.9479 18.2289H20.0521C20.3421 18.2289 20.6204 18.3441 20.8254 18.5491C21.0306 18.7543 21.1458 19.0326 21.1458 19.3226V28.4372H28.4375V14.7245L17.5 5.44508Z" fill="black"/>
<path fill-rule="evenodd" clip-rule="evenodd" d="M16.0854 3.77675C16.4806 3.44171 16.9819 3.25781 17.5 3.25781C18.0181 3.25781 18.5194 3.44171 18.9146 3.77675L29.8521 13.0561C30.0943 13.2615 30.2889 13.517 30.4223 13.8051C30.5559 14.0932 30.625 14.4069 30.625 14.7245V28.4372C30.625 29.0173 30.3946 29.5737 29.9844 29.9839C29.5741 30.3941 29.0176 30.6247 28.4375 30.6247H20.0521C19.762 30.6247 19.4838 30.5095 19.2787 30.3043C19.0735 30.0991 18.9583 29.821 18.9583 29.531V20.4164H16.0417V29.531C16.0417 29.821 15.9265 30.0991 15.7213 30.3043C15.5162 30.5095 15.238 30.6247 14.9479 30.6247H6.5625C5.98235 30.6247 5.42593 30.3941 5.0157 29.9839C4.60548 29.5737 4.375 29.0173 4.375 28.4372V14.7245C4.375 14.0828 4.65792 13.4717 5.14792 13.0561L16.0854 3.77675ZM17.5 5.44508L6.5625 14.7245V28.4372H13.8542V19.3226C13.8542 19.0326 13.9694 18.7543 14.1745 18.5491C14.3796 18.3441 14.6579 18.2289 14.9479 18.2289H20.0521C20.3421 18.2289 20.6204 18.3441 20.8254 18.5491C21.0306 18.7543 21.1458 19.0326 21.1458 19.3226V28.4372H28.4375V14.7245L17.5 5.44508Z" fill="black" fill-opacity="0.6"/>
<path fill-rule="evenodd" clip-rule="evenodd" d="M16.0854 3.77675C16.4806 3.44171 16.9819 3.25781 17.5 3.25781C18.0181 3.25781 18.5194 3.44171 18.9146 3.77675L29.8521 13.0561C30.0943 13.2615 30.2889 13.517 30.4223 13.8051C30.5559 14.0932 30.625 14.4069 30.625 14.7245V28.4372C30.625 29.0173 30.3946 29.5737 29.9844 29.9839C29.5741 30.3941 29.0176 30.6247 28.4375 30.6247H20.0521C19.762 30.6247 19.4838 30.5095 19.2787 30.3043C19.0735 30.0991 18.9583 29.821 18.9583 29.531V20.4164H16.0417V29.531C16.0417 29.821 15.9265 30.0991 15.7213 30.3043C15.5162 30.5095 15.238 30.6247 14.9479 30.6247H6.5625C5.98235 30.6247 5.42593 30.3941 5.0157 29.9839C4.60548 29.5737 4.375 29.0173 4.375 28.4372V14.7245C4.375 14.0828 4.65792 13.4717 5.14792 13.0561L16.0854 3.77675ZM17.5 5.44508L6.5625 14.7245V28.4372H13.8542V19.3226C13.8542 19.0326 13.9694 18.7543 14.1745 18.5491C14.3796 18.3441 14.6579 18.2289 14.9479 18.2289H20.0521C20.3421 18.2289 20.6204 18.3441 20.8254 18.5491C21.0306 18.7543 21.1458 19.0326 21.1458 19.3226V28.4372H28.4375V14.7245L17.5 5.44508Z" fill="black" fill-opacity="0.4"/>
</svg>
