<svg width="27" height="25" viewBox="0 0 27 25" fill="none" xmlns="http://www.w3.org/2000/svg">
<path d="M10.1248 2.5658L10.1248 2.59378L10.1248 19.7437C10.069 21.1961 12.2755 21.1961 12.2197 19.7437L12.2197 2.59378C12.2755 1.16935 10.1248 1.14137 10.1248 2.5658Z" fill="black"/>
<path d="M14.7801 4.5658L14.7801 4.59378L14.7801 21.7437C14.7243 23.1961 16.9308 23.1961 16.875 21.7437L16.875 4.59378C16.9308 3.16935 14.7801 3.14137 14.7801 4.5658Z" fill="black"/>
<path d="M19.5528 1.05408L19.5528 1.08206L19.5528 18.232C19.497 19.6844 21.7035 19.6844 21.6477 18.232L21.6477 1.08206C21.7035 -0.342372 19.5528 -0.370348 19.5528 1.05408Z" fill="black"/>
<path d="M24.2078 4.77869L24.2078 4.80667L24.2078 21.9566C24.152 23.409 26.3585 23.409 26.3027 21.9566L26.3027 4.80667C26.3585 3.38224 24.2078 3.35426 24.2078 4.77869Z" fill="black"/>
</svg>
