<svg width="21" height="17" viewBox="0 0 21 17" fill="none" xmlns="http://www.w3.org/2000/svg">
<mask id="mask0_455_16156" style="mask-type:luminance" maskUnits="userSpaceOnUse" x="0" y="0" width="21" height="17">
<path d="M20.6267 0H0V17H20.6267V0Z" fill="white"/>
</mask>
<g mask="url(#mask0_455_16156)">
<path d="M0 11.7867V5.21331C0 5.0622 0.0755556 4.91108 0.151111 4.75997C0.226667 4.60886 0.453333 4.53331 0.68 4.53331H7.02667L12.4667 0.151088C12.6178 -2.31793e-05 12.8444 -0.0755786 13.0711 0.0755324C13.2978 0.226644 13.4489 0.377755 13.4489 0.679977V16.32C13.4489 16.6222 13.2978 16.7733 13.0711 16.9244C12.9956 17 12.8444 17 12.7689 17C12.6178 17 12.4667 16.9244 12.3911 16.8489L6.95111 12.3911H0.68C0.528889 12.3911 0.377778 12.3155 0.226667 12.24C0.0755556 12.1644 0 11.9378 0 11.7867ZM1.28444 11.1067H7.17778C7.32889 11.1067 7.48 11.1822 7.55556 11.2578L12.0889 14.96V2.03997L7.55556 5.7422C7.55556 5.81775 7.40444 5.89331 7.25333 5.89331H1.28444V11.1067ZM14.2044 11.1822C14.1289 11.0311 14.2044 10.88 14.28 10.6533C14.3556 10.4267 14.5067 10.4267 14.6578 10.3511C15.0356 10.2 15.4133 9.97332 15.64 9.6711C15.8667 9.29332 16.0178 8.91554 16.0178 8.53777C16.0178 8.08443 15.8667 7.70666 15.64 7.40442C15.4133 7.1022 15.0356 6.79997 14.6578 6.64886C14.5067 6.57331 14.3556 6.49775 14.28 6.34664C14.2044 6.19553 14.2044 6.04442 14.2044 5.81775C14.28 5.66664 14.3556 5.51553 14.5067 5.43997C14.6578 5.36442 14.8089 5.36442 15.0356 5.43997C15.7156 5.66664 16.2444 6.04442 16.6978 6.64886C17.1511 7.25331 17.3022 7.85777 17.3022 8.61332C17.3022 9.29332 17.0756 9.97332 16.6978 10.5022C16.2444 11.1067 15.7156 11.4844 15.0356 11.7111C14.96 11.7111 14.8844 11.7867 14.8089 11.7867C14.6578 11.7867 14.5067 11.7111 14.4311 11.6355C14.3556 11.56 14.28 11.3333 14.2044 11.1822ZM15.1867 14.3555C15.1111 14.2044 15.1867 13.9778 15.2622 13.8267C15.3378 13.6755 15.4889 13.5244 15.64 13.5244C16.7733 13.2222 17.68 12.5422 18.2844 11.6355C18.9644 10.7289 19.2667 9.6711 19.2667 8.53777C19.2667 7.40442 18.9644 6.34664 18.2844 5.43997C17.6044 4.53331 16.6978 3.77775 15.5644 3.47553C15.4133 3.39997 15.2622 3.32442 15.1867 3.17331C15.1111 3.0222 15.1111 2.79553 15.1867 2.64442C15.2622 2.49331 15.3378 2.3422 15.4889 2.26664C15.64 2.19108 15.7911 2.19109 16.0178 2.19109C17.3778 2.64442 18.5111 3.39997 19.3422 4.53331C20.1733 5.66664 20.6267 6.95108 20.6267 8.46221C20.6267 9.89777 20.1733 11.1822 19.3422 12.3155C18.5111 13.4489 17.3778 14.28 16.0178 14.6578C16.0178 14.6578 15.9422 14.6578 15.7911 14.6578C15.64 14.6578 15.4889 14.5822 15.4133 14.5067C15.3378 14.4311 15.1867 14.5067 15.1867 14.3555Z" fill="black"/>
</g>
</svg>
