<svg width="25" height="25" viewBox="0 0 25 25" fill="none" xmlns="http://www.w3.org/2000/svg">
<path fill-rule="evenodd" clip-rule="evenodd" d="M15.1777 4V4.73858V19.564V20.3026L14.6061 19.8349L9.44217 15.6098H3.35H3V15.2598V9.04273V8.69273H3.35H9.44217L14.6061 4.4677L15.1777 4ZM14.4777 5.47717L9.78874 9.31362L9.69204 9.39273H9.5671H3.7V14.9098H9.5671H9.69204L9.78874 14.989L14.4777 18.8254V5.47717ZM17.8955 11.1665C17.6887 10.7341 17.2809 10.2713 16.5552 9.81777L16.9262 9.22417C17.7308 9.72708 18.2477 10.2806 18.527 10.8644C18.8084 11.4526 18.835 12.0433 18.7075 12.5895C18.4579 13.6595 17.6202 14.5595 16.9507 15.0616L16.5307 14.5016C17.1365 14.0472 17.8292 13.2734 18.0259 12.4304C18.1216 12.0202 18.1003 11.5946 17.8955 11.1665ZM17.0364 6.95019C18.7242 7.98161 19.7093 9.01394 20.2175 9.98647C20.7215 10.9508 20.7692 11.8795 20.5392 12.7427C20.0712 14.4996 18.4407 16.016 17.0364 16.8741L17.4014 17.4714C18.8666 16.5761 20.6794 14.936 21.2157 12.9229C21.4879 11.901 21.4279 10.7912 20.8379 9.66225C20.2522 8.54148 19.157 7.42572 17.4014 6.35289L17.0364 6.95019Z" fill="black"/>
</svg>
