<svg width="105" height="105" viewBox="0 0 105 105" fill="none" xmlns="http://www.w3.org/2000/svg">
<circle opacity="0.4" cx="52.5" cy="52.5" r="52.5" fill="black"/>
<g opacity="0.7">
<path d="M50.8485 36.299H59.2611L68.487 27.8864C68.7477 27.6475 69.0578 27.4578 69.3996 27.3284C69.7413 27.199 70.1078 27.1323 70.478 27.1323C70.8482 27.1323 71.2147 27.199 71.5564 27.3284C71.8982 27.4578 72.2083 27.6475 72.469 27.8864L79.7039 34.489C80.2262 34.9667 80.5193 35.6128 80.5193 36.2863C80.5193 36.9598 80.2262 37.6059 79.7039 38.0835L73.2822 43.9469H50.8485V49.0455C50.8485 49.7216 50.5531 50.37 50.0272 50.8481C49.5013 51.3262 48.788 51.5947 48.0443 51.5947C47.3006 51.5947 46.5873 51.3262 46.0614 50.8481C45.5355 50.37 45.2401 49.7216 45.2401 49.0455V41.3976C45.2401 40.0454 45.831 38.7485 46.8827 37.7924C47.9345 36.8362 49.3611 36.299 50.8485 36.299ZM34.0232 49.0455V59.2426L27.6016 65.0805C27.0793 65.5581 26.7861 66.2042 26.7861 66.8777C26.7861 67.5512 27.0793 68.1973 27.6016 68.675L34.8364 75.2776C35.0971 75.5165 35.4073 75.7062 35.749 75.8356C36.0907 75.965 36.4572 76.0317 36.8274 76.0317C37.1976 76.0317 37.5642 75.965 37.9059 75.8356C38.2476 75.7062 38.5577 75.5165 38.8184 75.2776L50.8485 64.3412H62.0654C62.8091 64.3412 63.5223 64.0726 64.0482 63.5945C64.5741 63.1164 64.8696 62.468 64.8696 61.7919V59.2426H67.6738C68.4175 59.2426 69.1308 58.974 69.6567 58.4959C70.1826 58.0179 70.478 57.3694 70.478 56.6933V54.144H73.2822C74.0259 54.144 74.7392 53.8755 75.2651 53.3974C75.791 52.9193 76.0864 52.2709 76.0864 51.5947V49.0455H56.4569V51.5947C56.4569 52.947 55.866 54.2438 54.8143 55.2C53.7625 56.1562 52.336 56.6933 50.8485 56.6933H45.2401C43.7526 56.6933 42.3261 56.1562 41.2743 55.2C40.2225 54.2438 39.6317 52.947 39.6317 51.5947V43.9469L34.0232 49.0455Z" fill="white"/>
</g>
</svg>
