<svg width="25" height="25" viewBox="0 0 25 25" fill="none" xmlns="http://www.w3.org/2000/svg">
<path d="M20.3125 6.52572V21.6912C20.3125 22.0569 20.1673 22.4075 19.9087 22.6661C19.6502 22.9246 19.2995 23.0699 18.9339 23.0699H6.06618C5.70053 23.0699 5.34986 22.9246 5.09131 22.6661C4.83275 22.4075 4.6875 22.0569 4.6875 21.6912V3.3088C4.6875 2.94315 4.83275 2.59247 5.09131 2.33392C5.34986 2.07537 5.70053 1.93011 6.06618 1.93011H15.7169L20.3125 6.52572Z" stroke="white" stroke-width="1.4" stroke-linecap="round" stroke-linejoin="round"/>
<path d="M15.7169 1.93011V5.14704C15.7169 5.51268 15.8622 5.86336 16.1207 6.12191C16.3793 6.38046 16.73 6.52572 17.0956 6.52572H20.3125" stroke="white" stroke-width="1.4" stroke-linecap="round" stroke-linejoin="round"/>
<path d="M8.36401 11.1213H16.6361" stroke="white" stroke-width="1.4" stroke-linecap="round" stroke-linejoin="round"/>
<path d="M8.36401 13.8787H16.6361" stroke="white" stroke-width="1.4" stroke-linecap="round" stroke-linejoin="round"/>
<path d="M8.36401 16.636H16.6361" stroke="white" stroke-width="1.4" stroke-linecap="round" stroke-linejoin="round"/>
<path d="M8.36401 19.3934H12.9596" stroke="white" stroke-width="1.4" stroke-linecap="round" stroke-linejoin="round"/>
</svg>
