<svg width="25" height="25" viewBox="0 0 25 25" fill="none" xmlns="http://www.w3.org/2000/svg">
<path d="M12.6953 12.314C15.1249 12.314 17.0945 10.3444 17.0945 7.91481C17.0945 5.48521 15.1249 3.51562 12.6953 3.51562C10.2657 3.51562 8.29614 5.48521 8.29614 7.91481C8.29614 10.3444 10.2657 12.314 12.6953 12.314Z" stroke="white" stroke-width="1.5" stroke-linecap="round" stroke-linejoin="round"/>
<path d="M12.6953 13.9137C10.3733 13.9773 8.09786 14.5797 6.04855 15.6734C5.5212 15.941 5.07834 16.3495 4.76912 16.8535C4.45991 17.3576 4.29644 17.9375 4.29688 18.5288V19.1127C4.29688 19.4309 4.42328 19.7361 4.64828 19.9611C4.87328 20.1861 5.17845 20.3125 5.49665 20.3125H19.894C20.2122 20.3125 20.5173 20.1861 20.7423 19.9611C20.9673 19.7361 21.0938 19.4309 21.0938 19.1127V18.5288C21.0942 17.9375 20.9307 17.3576 20.6215 16.8535C20.3123 16.3495 19.8694 15.941 19.3421 15.6734C17.2928 14.5797 15.0173 13.9773 12.6953 13.9137V13.9137Z" stroke="white" stroke-width="1.5" stroke-linecap="round" stroke-linejoin="round"/>
</svg>
