<svg width="27" height="25" viewBox="0 0 27 25" fill="none" xmlns="http://www.w3.org/2000/svg">
<path d="M10.1247 2.56577L10.1247 2.59375L10.1247 19.7437C10.0689 21.1961 12.2754 21.1961 12.2196 19.7437L12.2196 2.59375C12.2754 1.16932 10.1247 1.14134 10.1247 2.56577Z" fill="white"/>
<path d="M14.7798 4.5658L14.7798 4.59378L14.7799 21.7437C14.724 23.1961 16.9306 23.1961 16.8747 21.7437L16.8747 4.59378C16.9305 3.16935 14.7798 3.14137 14.7798 4.5658Z" fill="white"/>
<path d="M19.5528 1.05442L19.5528 1.0824L19.5528 18.2323C19.497 19.6847 21.7035 19.6847 21.6477 18.2323L21.6477 1.0824C21.7035 -0.342035 19.5528 -0.370012 19.5528 1.05442Z" fill="white"/>
<path d="M24.2079 4.77857L24.2079 4.80655L24.208 21.9565C24.1521 23.4089 26.3587 23.4089 26.3028 21.9565L26.3028 4.80655C26.3586 3.38212 24.2079 3.35414 24.2079 4.77857Z" fill="white"/>
</svg>
