<svg width="53" height="49" viewBox="0 0 53 49" fill="none" xmlns="http://www.w3.org/2000/svg">
<path d="M3.59975 14.399H39.5973C41.5772 14.399 43.1971 16.0189 43.1971 17.9988C43.1971 19.9786 41.5772 21.5985 39.5973 21.5985H3.59975C1.61989 21.5985 0 19.9786 0 17.9988C0 16.0189 1.61989 14.399 3.59975 14.399ZM3.59975 0H39.5973C41.5772 0 43.1971 1.61989 43.1971 3.59975C43.1971 5.57962 41.5772 7.19951 39.5973 7.19951H3.59975C1.61989 7.19951 0 5.57962 0 3.59975C0 1.61989 1.61989 0 3.59975 0ZM3.59975 28.798H25.1983C27.1781 28.798 28.798 30.4179 28.798 32.3978C28.798 34.3777 27.1781 35.9975 25.1983 35.9975H3.59975C1.61989 35.9975 0 34.3777 0 32.3978C0 30.4179 1.61989 28.798 3.59975 28.798ZM35.9975 31.9658V47.1928C35.9975 48.5967 37.5094 49.4606 38.7334 48.7407L51.4405 41.1092C52.5924 40.4252 52.5924 38.7334 51.4405 38.0134L38.7334 30.3819C38.4555 30.2232 38.1409 30.1402 37.821 30.1411C37.501 30.142 37.1869 30.2268 36.91 30.3872C36.6331 30.5475 36.4031 30.7776 36.243 31.0547C36.0829 31.3317 35.9982 31.6459 35.9975 31.9658Z" fill="white"/>
</svg>
