<svg width="54" height="28" viewBox="0 0 54 28" fill="none" xmlns="http://www.w3.org/2000/svg">
<rect y="1" width="54" height="26" rx="8" fill="#FE805C"/>
<path d="M16.9453 15.9297L12.5273 15.918L13.0078 13.1758L17.0625 13.1875C17.6406 13.1875 18.1719 13.0859 18.6562 12.8828C19.1406 12.6719 19.5391 12.3672 19.8516 11.9688C20.1641 11.5703 20.3633 11.0703 20.4492 10.4688C20.5273 9.96094 20.5 9.50391 20.3672 9.09766C20.2344 8.69141 20 8.36328 19.6641 8.11328C19.3281 7.86328 18.8945 7.72656 18.3633 7.70312L15.1641 7.69141L12.6797 22H9.24609L12.1992 4.9375L18.4688 4.94922C19.5547 4.97266 20.5234 5.20703 21.375 5.65234C22.2266 6.08984 22.8828 6.71484 23.3438 7.52734C23.8125 8.33203 24 9.30469 23.9062 10.4453C23.8047 11.6875 23.418 12.7148 22.7461 13.5273C22.0742 14.3398 21.2266 14.9453 20.2031 15.3438C19.1875 15.7344 18.1016 15.9297 16.9453 15.9297ZM29.0508 12.2617L27.3633 22H24.0703L26.2734 9.32031H29.3672L29.0508 12.2617ZM33.1875 9.21484L32.7773 12.3672C32.5898 12.3359 32.3984 12.3086 32.2031 12.2852C32.0156 12.2617 31.8242 12.2461 31.6289 12.2383C31.1758 12.2305 30.7656 12.2891 30.3984 12.4141C30.0312 12.5391 29.7109 12.7227 29.4375 12.9648C29.1719 13.1992 28.9453 13.4883 28.7578 13.832C28.5781 14.1758 28.4414 14.5625 28.3477 14.9922L27.7031 14.7812C27.7812 14.1797 27.9102 13.5469 28.0898 12.8828C28.2773 12.2109 28.5352 11.5859 28.8633 11.0078C29.1992 10.4219 29.625 9.94922 30.1406 9.58984C30.6641 9.22266 31.3008 9.04297 32.0508 9.05078C32.2461 9.05078 32.4336 9.06641 32.6133 9.09766C32.8008 9.12891 32.9922 9.16797 33.1875 9.21484ZM32.8242 15.8594L32.8594 15.6133C32.9531 14.7148 33.168 13.8711 33.5039 13.082C33.8477 12.2852 34.3008 11.5859 34.8633 10.9844C35.4336 10.375 36.1016 9.90234 36.8672 9.56641C37.6406 9.22266 38.5078 9.0625 39.4688 9.08594C40.3828 9.10156 41.1719 9.28516 41.8359 9.63672C42.5 9.98828 43.043 10.4609 43.4648 11.0547C43.8945 11.6484 44.1953 12.3281 44.3672 13.0938C44.5469 13.8594 44.5977 14.668 44.5195 15.5195L44.4961 15.7773C44.3945 16.668 44.168 17.5078 43.8164 18.2969C43.4727 19.0781 43.0156 19.7695 42.4453 20.3711C41.8828 20.9648 41.2148 21.4297 40.4414 21.7656C39.668 22.1016 38.8086 22.2578 37.8633 22.2344C36.9648 22.2188 36.1797 22.0391 35.5078 21.6953C34.8359 21.3438 34.2891 20.875 33.8672 20.2891C33.4453 19.6953 33.1484 19.0195 32.9766 18.2617C32.8047 17.5039 32.7539 16.7031 32.8242 15.8594ZM36.1523 15.6133L36.1289 15.8711C36.0898 16.2461 36.0781 16.6484 36.0938 17.0781C36.1094 17.5 36.1758 17.9023 36.293 18.2852C36.418 18.668 36.6211 18.9805 36.9023 19.2227C37.1836 19.4648 37.5703 19.5938 38.0625 19.6094C38.5859 19.625 39.0352 19.5195 39.4102 19.293C39.7852 19.0664 40.0938 18.7617 40.3359 18.3789C40.5781 17.9883 40.7695 17.5664 40.9102 17.1133C41.0508 16.6523 41.1445 16.2031 41.1914 15.7656L41.2148 15.5195C41.2461 15.1445 41.2539 14.7422 41.2383 14.3125C41.2305 13.875 41.1641 13.4648 41.0391 13.082C40.9141 12.6914 40.7109 12.3711 40.4297 12.1211C40.1484 11.8711 39.7617 11.7383 39.2695 11.7227C38.7461 11.6992 38.2969 11.8086 37.9219 12.0508C37.5469 12.2852 37.2383 12.5977 36.9961 12.9883C36.7539 13.3789 36.5625 13.8047 36.4219 14.2656C36.2891 14.7266 36.1992 15.1758 36.1523 15.6133Z" fill="#DFDFDF"/>
</svg>
