<svg width="125" height="65" viewBox="0 0 125 65" fill="none" xmlns="http://www.w3.org/2000/svg">
<path d="M106.481 2.32153H18.5185C8.29102 2.32153 0 10.6362 0 20.893V44.1072C0 54.364 8.29102 62.6787 18.5185 62.6787H106.481C116.709 62.6787 125 54.364 125 44.1072V20.893C125 10.6362 116.709 2.32153 106.481 2.32153Z" fill="#FF575F"/>
<path d="M39.2256 36.9798L28.9987 36.9526L30.111 30.5868L39.4969 30.6139C40.8351 30.6139 42.0649 30.3781 43.186 29.9066C44.3073 29.417 45.2297 28.7097 45.9531 27.7848C46.6765 26.8597 47.1376 25.699 47.3364 24.3027C47.5172 23.1237 47.454 22.0628 47.1466 21.1197C46.8392 20.1766 46.2966 19.4149 45.5191 18.8345C44.7413 18.2541 43.7376 17.9368 42.508 17.8823L35.1024 17.8552L29.3515 51.0715H21.4033L28.2392 11.4622L42.7522 11.4894C45.2658 11.5438 47.5082 12.0879 49.4795 13.1216C51.4508 14.1372 52.9698 15.5881 54.0369 17.4743C55.1219 19.3423 55.5559 21.6003 55.3388 24.2481C55.1038 27.1318 54.2087 29.5166 52.6533 31.4028C51.098 33.2889 49.136 34.6945 46.7668 35.6196C44.4158 36.5264 41.9022 36.9798 39.2256 36.9798ZM67.2476 28.4648L63.3413 51.0715H55.7186L60.8184 21.6365H67.98L67.2476 28.4648ZM76.8232 21.3917L75.8737 28.7097C75.4397 28.637 74.9966 28.5736 74.5445 28.5193C74.1105 28.4648 73.6675 28.4286 73.2154 28.4104C72.1665 28.3923 71.217 28.5284 70.367 28.8186C69.517 29.1087 68.7756 29.5349 68.1427 30.097C67.5279 30.6411 67.0033 31.3122 66.5693 32.1101C66.1533 32.9082 65.8369 33.8059 65.62 34.8034L64.1279 34.3136C64.3087 32.9173 64.6073 31.4483 65.023 29.9066C65.457 28.3468 66.054 26.8959 66.8135 25.5539C67.5911 24.1938 68.5767 23.0965 69.7702 22.2622C70.982 21.4099 72.4559 20.9927 74.192 21.0108C74.6441 21.0108 75.0781 21.0471 75.4941 21.1197C75.9281 21.1922 76.3712 21.2829 76.8232 21.3917ZM75.9823 36.8166L76.0638 36.2453C76.2807 34.1595 76.7781 32.2009 77.5557 30.369C78.3515 28.5193 79.4003 26.8959 80.7024 25.4996C82.0226 24.0849 83.5689 22.9877 85.3411 22.2078C87.1313 21.4099 89.1388 21.0381 91.3633 21.0925C93.479 21.1287 95.3057 21.5549 96.8427 22.3711C98.38 23.1872 99.6369 24.2843 100.613 25.6628C101.608 27.041 102.304 28.6189 102.702 30.3964C103.118 32.1737 103.236 34.0508 103.055 36.0275L103.001 36.626C102.765 38.6937 102.241 40.6432 101.427 42.475C100.632 44.2886 99.5735 45.8936 98.2533 47.2902C96.9513 48.6684 95.405 49.7476 93.6147 50.5274C91.8244 51.3074 89.8351 51.67 87.6469 51.6157C85.567 51.5795 83.7496 51.1623 82.1943 50.3642C80.639 49.5482 79.3732 48.4599 78.3966 47.0998C77.42 45.7213 76.7327 44.1525 76.3351 42.3933C75.9371 40.6342 75.8195 38.7752 75.9823 36.8166ZM83.6862 36.2453L83.632 36.8437C83.5415 37.7143 83.5145 38.6482 83.5508 39.6457C83.5869 40.6251 83.7406 41.559 84.0119 42.4479C84.3013 43.3365 84.7714 44.062 85.4223 44.6242C86.0735 45.1862 86.9686 45.4857 88.108 45.5219C89.3195 45.5581 90.3596 45.3132 91.2276 44.7874C92.0957 44.2614 92.8101 43.5541 93.3705 42.6654C93.9311 41.7587 94.3742 40.7792 94.6999 39.7274C95.0253 38.6572 95.2422 37.6144 95.3508 36.5988L95.405 36.0275C95.4774 35.157 95.4955 34.2231 95.4594 33.2256C95.4413 32.2099 95.2876 31.2577 94.9983 30.369C94.7089 29.4623 94.2385 28.7187 93.5876 28.1384C92.9364 27.558 92.0413 27.2497 90.902 27.2135C89.6904 27.159 88.6506 27.4129 87.7825 27.9752C86.9145 28.5193 86.2001 29.2448 85.6395 30.1515C85.0788 31.0583 84.6358 32.0467 84.3103 33.1167C84.0029 34.1869 83.7948 35.2296 83.6862 36.2453Z" fill="white"/>
</svg>
