<svg width="38" height="38" viewBox="0 0 38 38" fill="none" xmlns="http://www.w3.org/2000/svg">
<path fill-rule="evenodd" clip-rule="evenodd" d="M11.9081 6.56422C13.1299 6.46672 14.2899 5.98626 15.2228 5.19125C17.3998 3.33599 20.6017 3.33599 22.7787 5.19125C23.7116 5.98626 24.8716 6.46672 26.0935 6.56422C28.9446 6.79175 31.2088 9.05588 31.4363 11.9071C31.5339 13.129 32.0143 14.2889 32.8094 15.2218C34.6646 17.3988 34.6646 20.6007 32.8094 22.7778C32.0143 23.7107 31.5339 24.8706 31.4363 26.0925C31.2088 28.9436 28.9446 31.2079 26.0935 31.4353C24.8716 31.533 23.7116 32.0133 22.7787 32.8084C20.6017 34.6636 17.3998 34.6636 15.2228 32.8084C14.2899 32.0133 13.1299 31.533 11.9081 31.4353C9.05686 31.2079 6.79273 28.9436 6.5652 26.0925C6.46769 24.8706 5.98724 23.7107 5.19222 22.7778C3.33697 20.6007 3.33697 17.3988 5.19222 15.2218C5.98724 14.2889 6.46769 13.129 6.5652 11.9071C6.79273 9.05588 9.05686 6.79175 11.9081 6.56422ZM26.0443 16.5433C26.7862 15.8013 26.7862 14.5983 26.0443 13.8563C25.3023 13.1143 24.0992 13.1143 23.3573 13.8563L17.1008 20.1128L14.6443 17.6563C13.9023 16.9143 12.6993 16.9143 11.9573 17.6563C11.2153 18.3983 11.2153 19.6013 11.9573 20.3433L15.7573 24.1433C16.4993 24.8852 17.7023 24.8852 18.4443 24.1433L26.0443 16.5433Z" fill="white"/>
</svg>
