<svg width="23" height="19" viewBox="0 0 23 19" fill="none" xmlns="http://www.w3.org/2000/svg">
<path d="M19.9719 3.65005C19.4824 3.24551 18.9012 2.92461 18.2616 2.70566C17.6219 2.48671 16.9363 2.37402 16.2439 2.37402C15.5516 2.37402 14.866 2.48671 14.2263 2.70566C13.5867 2.92461 13.0055 3.24551 12.516 3.65005L11.5002 4.48922L10.4844 3.65005C9.49566 2.8333 8.15469 2.37445 6.75645 2.37445C5.35821 2.37445 4.01723 2.8333 3.02853 3.65005C2.03982 4.46681 1.48438 5.57457 1.48438 6.72963C1.48437 7.8847 2.03982 8.99246 3.02853 9.80922L4.04436 10.6484L11.5002 16.8076L18.956 10.6484L19.9719 9.80922C20.4616 9.40487 20.85 8.92478 21.1151 8.39637C21.3801 7.86797 21.5165 7.3016 21.5165 6.72963C21.5165 6.15767 21.3801 5.5913 21.1151 5.0629C20.85 4.53449 20.4616 4.0544 19.9719 3.65005Z" stroke="black" stroke-width="2" stroke-linecap="round" stroke-linejoin="round"/>
</svg>
