<svg width="54" height="54" viewBox="0 0 54 54" fill="none" xmlns="http://www.w3.org/2000/svg">
<path d="M37.0659 12H33.1978V36.0846C33.1978 37.0385 32.4725 37.7538 31.5055 37.7538H17V41.3308C17 42.2846 17.7253 43 18.6923 43H37.3077C38.2747 43 39 42.2846 39 41.3308V13.6692C38.7582 12.7154 38.033 12 37.0659 12Z" fill="#BFBFBF"/>
<path d="M32.1762 38.025H13.0512C12.3762 38.025 11.7012 37.35 11.7012 36.675V8.1C11.7012 7.425 12.3762 6.75 13.0512 6.75H32.1762C32.8512 6.75 33.5262 7.425 33.5262 8.1V36.675C33.5262 37.35 32.8512 38.025 32.1762 38.025Z" fill="white"/>
<path d="M32.8791 38H18.1209C17.5604 38 17 37.4 17 36.8V13.2C17 12.6 17.5604 12 18.1209 12H32.8791C33.4396 12 34 12.6 34 13.2V36.8C34 37.4 33.4396 38 32.8791 38Z" stroke="black" stroke-width="0.5625" stroke-miterlimit="10" stroke-dasharray="1.67 1.67"/>
</svg>
