<svg width="25" height="25" viewBox="0 0 25 25" fill="none" xmlns="http://www.w3.org/2000/svg">
<path d="M12.5 2.73438C10.5685 2.73437 8.68046 3.30712 7.07451 4.38018C5.46857 5.45324 4.21688 6.97842 3.47774 8.76286C2.73861 10.5473 2.54521 12.5108 2.92202 14.4052C3.29883 16.2995 4.22892 18.0396 5.59466 19.4053C6.96041 20.7711 8.70048 21.7012 10.5948 22.078C12.4892 22.4548 14.4527 22.2614 16.2371 21.5223C18.0216 20.7831 19.5468 19.5314 20.6198 17.9255C21.6929 16.3195 22.2656 14.4315 22.2656 12.5C22.2627 9.91089 21.2329 7.42866 19.4021 5.59789C17.5713 3.76711 15.0891 2.7373 12.5 2.73438ZM21.4754 12.1094H16.7911C16.6993 8.76475 15.43 5.69851 13.2569 3.54781C15.4324 3.7346 17.4658 4.70618 18.9779 6.28141C20.49 7.85665 21.3777 9.92802 21.4754 12.1094ZM12.5 21.0967C10.3791 19.1072 9.08866 16.0882 8.99106 12.8906H16.009C15.9113 16.0882 14.6209 19.1072 12.5 21.0967ZM8.99106 12.1094C9.08866 8.91156 10.3789 5.89268 12.5 3.90329C14.6211 5.89268 15.9113 8.91156 16.009 12.1094H8.99106ZM11.7431 3.54782C9.56998 5.69852 8.30074 8.76475 8.20895 12.1094H3.52464C3.62235 9.92803 4.51 7.85665 6.02211 6.28142C7.53422 4.70618 9.56759 3.7346 11.7431 3.54782ZM3.52464 12.8906H8.20895C8.30074 16.2351 9.56998 19.3014 11.7431 21.4522C9.56759 21.2654 7.53423 20.2938 6.02212 18.7186C4.51001 17.1434 3.62235 15.072 3.52464 12.8906ZM13.2569 21.4522C15.43 19.3014 16.6993 16.2351 16.7911 12.8906H21.4754C21.3777 15.072 20.49 17.1434 18.9779 18.7186C17.4658 20.2938 15.4324 21.2654 13.2569 21.4522Z" fill="black"/>
</svg>
