<svg width="37" height="37" viewBox="0 0 37 37" fill="none" xmlns="http://www.w3.org/2000/svg">
<path d="M16.9592 9.25007H21.5842L26.6563 4.16257C26.7996 4.01807 26.9701 3.90338 27.158 3.82511C27.3458 3.74684 27.5473 3.70654 27.7509 3.70654C27.9544 3.70654 28.1559 3.74684 28.3437 3.82511C28.5316 3.90338 28.7021 4.01807 28.8454 4.16257L32.8229 8.15548C33.1101 8.44433 33.2712 8.83507 33.2712 9.24236C33.2712 9.64964 33.1101 10.0404 32.8229 10.3292L29.2925 13.8751H16.9592V16.9584C16.9592 17.3673 16.7968 17.7594 16.5076 18.0485C16.2185 18.3376 15.8264 18.5001 15.4175 18.5001C15.0086 18.5001 14.6165 18.3376 14.3274 18.0485C14.0383 17.7594 13.8759 17.3673 13.8759 16.9584V12.3334C13.8759 11.5156 14.2007 10.7314 14.7789 10.1532C15.3572 9.57492 16.1414 9.25007 16.9592 9.25007ZM7.70919 16.9584V23.1251L4.17877 26.6555C3.89164 26.9443 3.73047 27.3351 3.73047 27.7424C3.73047 28.1496 3.89164 28.5404 4.17877 28.8292L8.15627 32.8222C8.29959 32.9667 8.4701 33.0813 8.65797 33.1596C8.84583 33.2379 9.04734 33.2782 9.25086 33.2782C9.45438 33.2782 9.65588 33.2379 9.84375 33.1596C10.0316 33.0813 10.2021 32.9667 10.3454 32.8222L16.9592 26.2084H23.1259C23.5347 26.2084 23.9269 26.046 24.216 25.7569C24.5051 25.4677 24.6675 25.0756 24.6675 24.6667V23.1251H26.2092C26.6181 23.1251 27.0102 22.9626 27.2993 22.6735C27.5884 22.3844 27.7509 21.9923 27.7509 21.5834V20.0417H29.2925C29.7014 20.0417 30.0935 19.8793 30.3826 19.5902C30.6718 19.3011 30.8342 18.9089 30.8342 18.5001V16.9584H20.0425V18.5001C20.0425 19.3178 19.7177 20.1021 19.1394 20.6803C18.5612 21.2586 17.7769 21.5834 16.9592 21.5834H13.8759C13.0581 21.5834 12.2738 21.2586 11.6956 20.6803C11.1174 20.1021 10.7925 19.3178 10.7925 18.5001V13.8751L7.70919 16.9584Z" fill="black"/>
</svg>
