<svg width="22" height="23" viewBox="0 0 22 23" fill="none" xmlns="http://www.w3.org/2000/svg">
<g clip-path="url(#clip0_327_16146)">
<path d="M12.26 20.6507C12.8884 20.5674 13.3849 21.1818 13.172 21.7791C13.0606 22.082 12.8021 22.2945 12.4813 22.337C11.743 22.432 10.9972 22.4546 10.2545 22.4045C7.51462 22.22 5.04948 21.0328 3.22331 19.2066C1.23191 17.2152 0 14.4639 0 11.4256C0 8.38675 1.23191 5.63587 3.22331 3.64448C5.2147 1.65308 7.96558 0.421171 11.0044 0.421171C12.0579 0.421171 13.0847 0.572805 14.0633 0.855474C14.8662 1.08713 15.6398 1.41019 16.369 1.8183L16.152 1.25033C15.971 0.774398 16.2099 0.241928 16.6854 0.0604941C17.1613 -0.120502 17.6938 0.118343 17.8752 0.594279L18.792 2.99324C18.8266 3.08451 18.8467 3.18063 18.8516 3.2781C18.9235 3.72512 18.6557 4.16818 18.2105 4.30316L15.755 5.05432C15.269 5.20157 14.7558 4.92723 14.6085 4.44165C14.4613 3.95607 14.7356 3.44245 15.2212 3.2952L15.4232 3.2334C14.8412 2.91839 14.2271 2.66685 13.5914 2.48312C12.7775 2.24822 11.9098 2.12201 11.0044 2.12201C8.43538 2.12201 6.10916 3.16328 4.42586 4.84703C2.74211 6.53033 1.70084 8.85611 1.70084 11.4256C1.70084 13.9946 2.74211 16.3203 4.42586 18.0041C5.95139 19.5296 8.00458 20.5279 10.2883 20.7015C10.9413 20.751 11.6131 20.7348 12.26 20.6507ZM9.31976 6.94974C9.31976 6.48037 9.7006 6.09954 10.1704 6.09954C10.6398 6.09954 11.0206 6.48037 11.0206 6.94974V12.1263L14.5638 13.6838C14.9933 13.8727 15.1879 14.3741 14.999 14.8036C14.8101 15.2326 14.3088 15.4276 13.8793 15.2387L9.87108 13.477C9.54896 13.3556 9.31976 13.0449 9.31976 12.6807V6.94974ZM15.2229 19.7417C14.5384 20.0919 14.6296 21.0959 15.3671 21.3163C15.5806 21.3768 15.7931 21.3584 15.9921 21.2589C16.5408 20.9833 17.0675 20.6585 17.5614 20.2939C17.8025 20.1142 17.9278 19.8311 17.902 19.5318C17.8362 18.8705 17.0833 18.5352 16.5482 18.9279C16.1304 19.2364 15.6871 19.5087 15.2229 19.7417ZM18.6921 16.6937C18.3047 17.2713 18.7399 18.0479 19.4358 18.0172C19.708 18.0028 19.9516 17.8695 20.1041 17.6416C20.4486 17.1307 20.7462 16.5956 21.0012 16.0346C21.2471 15.4807 20.8641 14.8601 20.258 14.8342C19.9104 14.8228 19.5958 15.017 19.4512 15.3338C19.2351 15.8093 18.984 16.2607 18.6921 16.6937ZM20.2549 12.3323C20.2242 12.6662 20.3864 12.9791 20.6752 13.1487C21.2169 13.4564 21.8847 13.1119 21.9483 12.4927C22.0066 11.8783 22.0158 11.27 21.9737 10.6542C21.9527 10.3584 21.7818 10.0977 21.5188 9.95962C20.9289 9.65372 20.2299 10.1113 20.2768 10.7734C20.3127 11.2958 20.3044 11.8108 20.2549 12.3323ZM19.5502 7.75786C19.7408 8.19743 20.2523 8.39508 20.6874 8.19436C21.1069 8.00153 21.2949 7.51025 21.113 7.08603C20.872 6.52113 20.5818 5.97814 20.2501 5.46101C19.8333 4.82029 18.8525 5.00699 18.7009 5.75683C18.6592 5.97727 18.6987 6.19245 18.8201 6.38221C19.1014 6.82133 19.346 7.27798 19.5502 7.75786Z" fill="#4B4B4B"/>
</g>
<defs>
<clipPath id="clip0_327_16146">
<rect width="22" height="22.4304" fill="white"/>
</clipPath>
</defs>
</svg>
