<svg width="18" height="18" viewBox="0 0 18 18" fill="none" xmlns="http://www.w3.org/2000/svg">
<path d="M13.5 2.25H11.115C10.8 1.38 9.975 0.75 9 0.75C8.025 0.75 7.2 1.38 6.885 2.25H4.5C3.675 2.25 3 2.925 3 3.75V15C3 15.825 3.675 16.5 4.5 16.5H9.0825C8.63878 16.0693 8.27781 15.5609 8.0175 15H4.5V3.75H6V4.5C6 5.325 6.675 6 7.5 6H10.5C11.325 6 12 5.325 12 4.5V3.75H13.5V7.56C14.0325 7.635 14.535 7.7925 15 8.01V3.75C15 2.925 14.325 2.25 13.5 2.25ZM9 3.75C8.5875 3.75 8.25 3.4125 8.25 3C8.25 2.5875 8.5875 2.25 9 2.25C9.4125 2.25 9.75 2.5875 9.75 3C9.75 3.4125 9.4125 3.75 9 3.75ZM12.75 9C10.68 9 9 10.68 9 12.75C9 14.82 10.68 16.5 12.75 16.5C14.82 16.5 16.5 14.82 16.5 12.75C16.5 10.68 14.82 9 12.75 9ZM13.7175 14.25L12.48 13.0125C12.41 12.9428 12.3697 12.8487 12.3675 12.75V10.8825C12.3675 10.6725 12.5325 10.5075 12.7425 10.5075C12.9525 10.5075 13.1175 10.6725 13.1175 10.8825V12.6L14.2425 13.725C14.2775 13.7593 14.3054 13.8003 14.3246 13.8455C14.3437 13.8907 14.3536 13.9392 14.3539 13.9883C14.3541 14.0373 14.3447 14.086 14.326 14.1314C14.3073 14.1767 14.2799 14.218 14.2452 14.2527C14.2105 14.2874 14.1692 14.3148 14.1239 14.3335C14.0785 14.3522 14.0298 14.3616 13.9808 14.3614C13.9317 14.3611 13.8832 14.3512 13.838 14.3321C13.7928 14.3129 13.7518 14.285 13.7175 14.25Z" fill="black"/>
</svg>
