<svg width="390" height="844" viewBox="0 0 390 844" fill="none" xmlns="http://www.w3.org/2000/svg">
<g clip-path="url(#clip0_3006_55678)">
<rect width="390" height="844" fill="#3A3C40"/>
<circle cx="424.295" cy="441.295" r="114.421" transform="rotate(-81.9623 424.295 441.295)" fill="url(#paint0_radial_3006_55678)"/>
<circle cx="123.158" cy="139.158" r="54.1575" fill="url(#paint1_radial_3006_55678)"/>
<circle cx="3.72133" cy="430.177" r="66.9955" transform="rotate(-43.6951 3.72133 430.177)" fill="url(#paint2_radial_3006_55678)"/>
<path d="M86.8737 556.38L83.4937 567.82L80.1337 556.38H76.9337L81.3537 571H85.4537L88.4737 560.44L91.6537 571H95.6537L100.254 556.38H97.1137L93.7337 567.82L90.4537 556.38H86.8737ZM105.246 560.28C102.186 560.28 100.086 562.56 100.086 565.62C100.086 568.8 102.386 571.18 105.246 571.18C107.406 571.18 108.826 570.54 109.926 568.64L107.806 567.56C107.306 568.18 106.586 568.62 105.366 568.62C104.066 568.62 103.086 567.88 102.886 566.58H108.126C109.226 566.58 110.166 566.36 110.166 564.98C110.166 561.98 108.006 560.28 105.246 560.28ZM105.326 562.76C106.386 562.76 107.446 563.4 107.626 564.62H102.926C103.166 563.48 104.286 562.76 105.326 562.76ZM115.543 571V555.98H112.723V571H115.543ZM120.918 565.66C120.918 564.08 121.758 562.86 123.498 562.86C124.998 562.86 125.918 563.78 126.018 565.1L128.438 564.16C128.098 562.06 126.258 560.28 123.578 560.28C120.038 560.28 118.098 562.44 118.098 565.82C118.098 568.88 120.218 571.18 123.378 571.18C125.698 571.18 128.098 569.6 128.558 567.08L126.038 566.56C125.878 567.64 124.858 568.62 123.598 568.62C121.938 568.62 120.918 567.22 120.918 565.66ZM130.248 565.72C130.248 568.8 132.588 571.18 135.708 571.18C138.788 571.18 141.228 568.8 141.228 565.72C141.228 562.68 138.788 560.28 135.708 560.28C132.588 560.28 130.248 562.68 130.248 565.72ZM132.988 565.72C132.988 564.26 134.228 562.98 135.708 562.98C137.188 562.98 138.488 564.26 138.488 565.72C138.488 567.22 137.188 568.5 135.708 568.5C134.228 568.5 132.988 567.22 132.988 565.72ZM143.764 571H146.464V564.32C146.464 563.56 147.784 562.86 148.824 562.86C150.044 562.86 150.884 563.74 150.884 565.04V571H153.544V563.98C153.884 563.28 155.004 562.86 155.704 562.86C156.944 562.86 157.884 563.74 157.884 565.04V571H160.544V564.7C160.544 561.84 158.704 560.28 156.384 560.28C154.524 560.28 152.904 561.22 152.564 562.08C152.144 561.22 151.004 560.28 149.244 560.28C147.464 560.28 146.444 561.12 145.984 561.82C145.744 561.46 145.444 560.74 145.024 560.38L143.764 560.66V571ZM168.264 560.28C165.204 560.28 163.104 562.56 163.104 565.62C163.104 568.8 165.404 571.18 168.264 571.18C170.424 571.18 171.844 570.54 172.944 568.64L170.824 567.56C170.324 568.18 169.604 568.62 168.384 568.62C167.084 568.62 166.104 567.88 165.904 566.58H171.144C172.244 566.58 173.184 566.36 173.184 564.98C173.184 561.98 171.024 560.28 168.264 560.28ZM168.344 562.76C169.404 562.76 170.464 563.4 170.644 564.62H165.944C166.184 563.48 167.304 562.76 168.344 562.76ZM183.829 562.5V566.44C183.829 569.68 185.649 571.18 188.409 571.18C189.329 571.18 190.529 570.86 191.249 570.14L189.769 567.68C189.189 568.4 188.829 568.62 188.109 568.62C187.449 568.62 186.749 567.94 186.749 566.46V562.78H190.049L190.369 560.5H186.749V556.26L183.829 558.64V560.5H183.269L182.789 561.64L183.829 562.5ZM192.075 565.72C192.075 568.8 194.415 571.18 197.535 571.18C200.615 571.18 203.055 568.8 203.055 565.72C203.055 562.68 200.615 560.28 197.535 560.28C194.415 560.28 192.075 562.68 192.075 565.72ZM194.815 565.72C194.815 564.26 196.055 562.98 197.535 562.98C199.015 562.98 200.315 564.26 200.315 565.72C200.315 567.22 199.015 568.5 197.535 568.5C196.055 568.5 194.815 567.22 194.815 565.72ZM212.88 567.54C213.48 569.48 215.72 571.18 219.72 571.18C222.46 571.18 226.38 569.88 226.38 566.38C226.38 562.98 223.36 562.42 220.62 561.88C219.6 561.68 217 561.36 217 560.28C217 558.98 218.9 558.78 220.06 558.78C221.52 558.78 223.14 559.6 223.48 561.06L226.36 559.36C225.72 556.94 222.92 556 219.88 556C217.44 556 213.82 556.88 213.82 560.2C213.82 562.06 214.8 563.22 216.32 563.82C217.64 564.34 218.6 564.54 219.62 564.7C220.44 564.82 223.2 565.06 223.2 566.26C223.2 567.74 221.46 568.34 219.36 568.34C217.9 568.34 216.24 567.46 215.72 565.92L212.88 567.54ZM229.111 562.5V566.44C229.111 569.68 230.931 571.18 233.691 571.18C234.611 571.18 235.811 570.86 236.531 570.14L235.051 567.68C234.471 568.4 234.111 568.62 233.391 568.62C232.731 568.62 232.031 567.94 232.031 566.46V562.78H235.331L235.651 560.5H232.031V556.26L229.111 558.64V560.5H228.551L228.071 561.64L229.111 562.5ZM240.938 571V560.5H238.118V571H240.938ZM239.518 556.48C238.598 556.48 237.938 557.16 237.938 558.1C237.938 559.04 238.598 559.68 239.518 559.68C240.458 559.68 241.138 559.04 241.138 558.1C241.138 557.16 240.458 556.48 239.518 556.48ZM244.253 562.5V566.44C244.253 569.68 246.073 571.18 248.833 571.18C249.753 571.18 250.953 570.86 251.673 570.14L250.193 567.68C249.613 568.4 249.253 568.62 248.533 568.62C247.873 568.62 247.173 567.94 247.173 566.46V562.78H250.473L250.793 560.5H247.173V556.26L244.253 558.64V560.5H243.693L243.213 561.64L244.253 562.5ZM255.319 565.66C255.319 564.08 256.159 562.86 257.899 562.86C259.399 562.86 260.319 563.78 260.419 565.1L262.839 564.16C262.499 562.06 260.659 560.28 257.979 560.28C254.439 560.28 252.499 562.44 252.499 565.82C252.499 568.88 254.619 571.18 257.779 571.18C260.099 571.18 262.499 569.6 262.959 567.08L260.439 566.56C260.279 567.64 259.259 568.62 257.999 568.62C256.339 568.62 255.319 567.22 255.319 565.66ZM268.189 571V564.32C268.189 563.56 269.569 562.86 270.569 562.86C271.789 562.86 272.689 563.74 272.689 565.04V571H275.429V564.7C275.429 562.06 273.649 560.28 271.369 560.28C269.989 560.28 268.689 560.76 268.189 561.52V555.98H265.409V571H268.189ZM278.732 555.98V570.82L279.932 571.14C280.332 570.76 280.652 570.22 280.812 569.76C281.312 570.44 282.392 571.18 284.132 571.18C286.292 571.18 288.512 569.16 288.512 565.94C288.512 562.38 286.472 560.44 284.092 560.44C282.932 560.44 281.912 560.82 281.572 561.32V555.98H278.732ZM283.112 568.62C282.532 568.62 281.672 568.18 281.492 567.46V564.14C281.672 563.26 282.712 562.94 283.252 562.94C284.672 562.94 285.792 564.2 285.792 565.78C285.792 567.7 284.612 568.62 283.112 568.62ZM290.298 565.72C290.298 568.8 292.638 571.18 295.758 571.18C298.838 571.18 301.278 568.8 301.278 565.72C301.278 562.68 298.838 560.28 295.758 560.28C292.638 560.28 290.298 562.68 290.298 565.72ZM293.038 565.72C293.038 564.26 294.278 562.98 295.758 562.98C297.238 562.98 298.538 564.26 298.538 565.72C298.538 567.22 297.238 568.5 295.758 568.5C294.278 568.5 293.038 567.22 293.038 565.72ZM301.958 560.5L305.918 565.6L301.698 571H305.098L307.478 567.74L309.838 571H313.158L309.078 565.64L313.018 560.5H309.738L307.498 563.46L305.278 560.5H301.958Z" fill="white"/>
<path d="M81.2294 608V597.818H87.3345V598.912H82.4624V602.352H86.8771V603.446H82.4624V608H81.2294ZM88.8791 608V600.364H90.0524V608H88.8791ZM89.4757 599.091C89.247 599.091 89.0498 599.013 88.8841 598.857C88.7217 598.701 88.6405 598.514 88.6405 598.295C88.6405 598.077 88.7217 597.889 88.8841 597.734C89.0498 597.578 89.247 597.5 89.4757 597.5C89.7044 597.5 89.8999 597.578 90.0623 597.734C90.2281 597.889 90.3109 598.077 90.3109 598.295C90.3109 598.514 90.2281 598.701 90.0623 598.857C89.8999 599.013 89.7044 599.091 89.4757 599.091ZM92.9667 603.406V608H91.7934V600.364H92.9269V601.557H93.0263C93.2053 601.169 93.4771 600.857 93.8417 600.622C94.2062 600.384 94.6769 600.264 95.2536 600.264C95.7706 600.264 96.2231 600.37 96.6108 600.582C96.9986 600.791 97.3002 601.109 97.5157 601.537C97.7311 601.961 97.8388 602.498 97.8388 603.148V608H96.6655V603.227C96.6655 602.627 96.5098 602.16 96.1982 601.825C95.8866 601.487 95.4591 601.318 94.9155 601.318C94.541 601.318 94.2062 601.399 93.9113 601.562C93.6196 601.724 93.3893 601.961 93.2202 602.273C93.0512 602.584 92.9667 602.962 92.9667 603.406ZM102.458 608.159C101.822 608.159 101.26 607.998 100.773 607.677C100.286 607.352 99.9046 606.895 99.6295 606.305C99.3544 605.711 99.2169 605.01 99.2169 604.202C99.2169 603.4 99.3544 602.704 99.6295 602.114C99.9046 601.524 100.287 601.068 100.778 600.746C101.268 600.425 101.835 600.264 102.478 600.264C102.975 600.264 103.368 600.347 103.657 600.513C103.948 600.675 104.17 600.861 104.323 601.07C104.478 601.275 104.599 601.444 104.686 601.577H104.785V597.818H105.958V608H104.825V606.827H104.686C104.599 606.966 104.477 607.142 104.318 607.354C104.159 607.562 103.932 607.75 103.637 607.915C103.342 608.078 102.949 608.159 102.458 608.159ZM102.617 607.105C103.088 607.105 103.486 606.982 103.811 606.737C104.135 606.489 104.382 606.146 104.551 605.708C104.72 605.267 104.805 604.759 104.805 604.182C104.805 603.612 104.722 603.113 104.556 602.685C104.391 602.254 104.145 601.92 103.821 601.681C103.496 601.439 103.095 601.318 102.617 601.318C102.12 601.318 101.706 601.446 101.375 601.701C101.046 601.953 100.799 602.296 100.634 602.73C100.471 603.161 100.39 603.645 100.39 604.182C100.39 604.725 100.473 605.219 100.639 605.663C100.808 606.104 101.056 606.455 101.384 606.717C101.716 606.976 102.127 607.105 102.617 607.105ZM112.147 610.864C111.948 610.864 111.771 610.847 111.615 610.814C111.46 610.784 111.352 610.754 111.292 610.724L111.59 609.69C111.876 609.763 112.127 609.79 112.346 609.77C112.565 609.75 112.759 609.652 112.928 609.477C113.1 609.304 113.258 609.024 113.4 608.636L113.619 608.04L110.795 600.364H112.068L114.176 606.449H114.255L116.363 600.364H117.636L114.394 609.114C114.249 609.508 114.068 609.835 113.853 610.093C113.637 610.355 113.387 610.549 113.102 610.675C112.82 610.801 112.502 610.864 112.147 610.864ZM121.605 608.159C120.916 608.159 120.311 607.995 119.791 607.667C119.274 607.339 118.869 606.88 118.578 606.29C118.289 605.7 118.145 605.01 118.145 604.222C118.145 603.426 118.289 602.732 118.578 602.138C118.869 601.545 119.274 601.085 119.791 600.756C120.311 600.428 120.916 600.264 121.605 600.264C122.295 600.264 122.898 600.428 123.415 600.756C123.935 601.085 124.34 601.545 124.628 602.138C124.92 602.732 125.066 603.426 125.066 604.222C125.066 605.01 124.92 605.7 124.628 606.29C124.34 606.88 123.935 607.339 123.415 607.667C122.898 607.995 122.295 608.159 121.605 608.159ZM121.605 607.105C122.129 607.105 122.56 606.971 122.898 606.702C123.236 606.434 123.486 606.081 123.649 605.643C123.811 605.206 123.892 604.732 123.892 604.222C123.892 603.711 123.811 603.236 123.649 602.795C123.486 602.354 123.236 601.998 122.898 601.726C122.56 601.454 122.129 601.318 121.605 601.318C121.082 601.318 120.651 601.454 120.313 601.726C119.975 601.998 119.725 602.354 119.562 602.795C119.4 603.236 119.319 603.711 119.319 604.222C119.319 604.732 119.4 605.206 119.562 605.643C119.725 606.081 119.975 606.434 120.313 606.702C120.651 606.971 121.082 607.105 121.605 607.105ZM131.261 604.878V600.364H132.434V608H131.261V606.707H131.182C131.003 607.095 130.724 607.425 130.346 607.697C129.969 607.965 129.491 608.099 128.915 608.099C128.437 608.099 128.013 607.995 127.642 607.786C127.271 607.574 126.979 607.256 126.767 606.832C126.555 606.404 126.449 605.866 126.449 605.216V600.364H127.622V605.136C127.622 605.693 127.778 606.137 128.089 606.469C128.404 606.8 128.805 606.966 129.292 606.966C129.584 606.966 129.881 606.891 130.182 606.742C130.487 606.593 130.742 606.364 130.948 606.056C131.157 605.748 131.261 605.355 131.261 604.878ZM134.175 608V600.364H135.309V601.517H135.389C135.528 601.139 135.78 600.833 136.144 600.597C136.509 600.362 136.92 600.244 137.377 600.244C137.463 600.244 137.571 600.246 137.7 600.249C137.83 600.253 137.927 600.258 137.994 600.264V601.457C137.954 601.447 137.863 601.433 137.72 601.413C137.581 601.389 137.433 601.378 137.278 601.378C136.907 601.378 136.575 601.456 136.283 601.612C135.995 601.764 135.766 601.976 135.597 602.248C135.432 602.516 135.349 602.823 135.349 603.168V608H134.175ZM145.588 611.023C145.022 611.023 144.534 610.95 144.127 610.804C143.719 610.661 143.379 610.473 143.107 610.237C142.839 610.005 142.625 609.757 142.466 609.491L143.401 608.835C143.507 608.974 143.641 609.134 143.804 609.312C143.966 609.495 144.188 609.652 144.47 609.785C144.755 609.921 145.128 609.989 145.588 609.989C146.205 609.989 146.714 609.839 147.115 609.541C147.516 609.243 147.716 608.776 147.716 608.139V606.588H147.617C147.531 606.727 147.408 606.9 147.249 607.105C147.093 607.307 146.868 607.488 146.573 607.647C146.281 607.803 145.887 607.881 145.389 607.881C144.773 607.881 144.219 607.735 143.729 607.443C143.242 607.152 142.856 606.727 142.571 606.17C142.289 605.614 142.148 604.937 142.148 604.142C142.148 603.36 142.286 602.679 142.561 602.099C142.836 601.515 143.219 601.065 143.709 600.746C144.2 600.425 144.766 600.264 145.409 600.264C145.906 600.264 146.301 600.347 146.593 600.513C146.888 600.675 147.113 600.861 147.269 601.07C147.428 601.275 147.55 601.444 147.637 601.577H147.756V600.364H148.889V608.219C148.889 608.875 148.74 609.409 148.442 609.82C148.147 610.234 147.749 610.537 147.249 610.729C146.752 610.925 146.198 611.023 145.588 611.023ZM145.549 606.827C146.019 606.827 146.417 606.719 146.742 606.504C147.067 606.288 147.313 605.978 147.482 605.574C147.652 605.17 147.736 604.686 147.736 604.122C147.736 603.572 147.653 603.086 147.487 602.665C147.322 602.245 147.076 601.915 146.752 601.676C146.427 601.437 146.026 601.318 145.549 601.318C145.051 601.318 144.637 601.444 144.306 601.696C143.978 601.948 143.731 602.286 143.565 602.71C143.402 603.134 143.321 603.605 143.321 604.122C143.321 604.652 143.404 605.121 143.57 605.529C143.739 605.933 143.987 606.252 144.316 606.484C144.647 606.712 145.058 606.827 145.549 606.827ZM152.876 608.179C152.392 608.179 151.953 608.088 151.559 607.906C151.164 607.72 150.851 607.453 150.619 607.105C150.387 606.754 150.271 606.33 150.271 605.832C150.271 605.395 150.357 605.04 150.53 604.768C150.702 604.493 150.932 604.278 151.221 604.122C151.509 603.966 151.827 603.85 152.175 603.774C152.527 603.695 152.88 603.632 153.234 603.585C153.698 603.526 154.074 603.481 154.363 603.451C154.655 603.418 154.867 603.363 154.999 603.287C155.135 603.211 155.203 603.078 155.203 602.889V602.849C155.203 602.359 155.069 601.978 154.8 601.706C154.535 601.434 154.132 601.298 153.592 601.298C153.032 601.298 152.593 601.421 152.275 601.666C151.957 601.911 151.733 602.173 151.604 602.452L150.49 602.054C150.689 601.59 150.954 601.229 151.285 600.97C151.62 600.708 151.985 600.526 152.379 600.423C152.777 600.317 153.168 600.264 153.552 600.264C153.798 600.264 154.079 600.294 154.398 600.354C154.719 600.41 155.029 600.528 155.327 600.707C155.629 600.886 155.879 601.156 156.078 601.517C156.277 601.878 156.376 602.362 156.376 602.969V608H155.203V606.966H155.143C155.064 607.132 154.931 607.309 154.746 607.498C154.56 607.687 154.313 607.848 154.005 607.98C153.697 608.113 153.32 608.179 152.876 608.179ZM153.055 607.125C153.519 607.125 153.91 607.034 154.229 606.852C154.55 606.669 154.792 606.434 154.954 606.146C155.12 605.857 155.203 605.554 155.203 605.236V604.162C155.153 604.222 155.044 604.276 154.875 604.326C154.709 604.372 154.517 604.414 154.298 604.45C154.083 604.483 153.872 604.513 153.667 604.54C153.465 604.563 153.301 604.583 153.175 604.599C152.87 604.639 152.585 604.704 152.32 604.793C152.058 604.879 151.846 605.01 151.683 605.186C151.524 605.358 151.445 605.594 151.445 605.892C151.445 606.3 151.595 606.608 151.897 606.817C152.202 607.022 152.588 607.125 153.055 607.125ZM158.11 608V600.364H159.243V601.557H159.343C159.502 601.149 159.759 600.833 160.113 600.607C160.468 600.379 160.894 600.264 161.391 600.264C161.895 600.264 162.314 600.379 162.649 600.607C162.987 600.833 163.25 601.149 163.439 601.557H163.519C163.714 601.162 164.008 600.849 164.399 600.617C164.79 600.382 165.259 600.264 165.806 600.264C166.489 600.264 167.047 600.478 167.481 600.906C167.915 601.33 168.133 601.991 168.133 602.889V608H166.959V602.889C166.959 602.326 166.805 601.923 166.497 601.681C166.189 601.439 165.826 601.318 165.408 601.318C164.871 601.318 164.455 601.481 164.16 601.805C163.865 602.127 163.718 602.535 163.718 603.028V608H162.525V602.77C162.525 602.336 162.384 601.986 162.102 601.721C161.82 601.452 161.457 601.318 161.013 601.318C160.708 601.318 160.423 601.399 160.158 601.562C159.896 601.724 159.684 601.95 159.522 602.238C159.363 602.523 159.283 602.853 159.283 603.227V608H158.11ZM169.87 608V600.364H171.043V608H169.87ZM170.466 599.091C170.238 599.091 170.041 599.013 169.875 598.857C169.712 598.701 169.631 598.514 169.631 598.295C169.631 598.077 169.712 597.889 169.875 597.734C170.041 597.578 170.238 597.5 170.466 597.5C170.695 597.5 170.891 597.578 171.053 597.734C171.219 597.889 171.302 598.077 171.302 598.295C171.302 598.514 171.219 598.701 171.053 598.857C170.891 599.013 170.695 599.091 170.466 599.091ZM173.957 603.406V608H172.784V600.364H173.918V601.557H174.017C174.196 601.169 174.468 600.857 174.832 600.622C175.197 600.384 175.668 600.264 176.244 600.264C176.761 600.264 177.214 600.37 177.602 600.582C177.989 600.791 178.291 601.109 178.506 601.537C178.722 601.961 178.83 602.498 178.83 603.148V608H177.656V603.227C177.656 602.627 177.5 602.16 177.189 601.825C176.877 601.487 176.45 601.318 175.906 601.318C175.532 601.318 175.197 601.399 174.902 601.562C174.61 601.724 174.38 601.961 174.211 602.273C174.042 602.584 173.957 602.962 173.957 603.406ZM183.648 611.023C183.081 611.023 182.594 610.95 182.186 610.804C181.779 610.661 181.439 610.473 181.167 610.237C180.899 610.005 180.685 609.757 180.526 609.491L181.46 608.835C181.566 608.974 181.701 609.134 181.863 609.312C182.026 609.495 182.248 609.652 182.529 609.785C182.814 609.921 183.187 609.989 183.648 609.989C184.264 609.989 184.773 609.839 185.174 609.541C185.575 609.243 185.776 608.776 185.776 608.139V606.588H185.676C185.59 606.727 185.468 606.9 185.308 607.105C185.153 607.307 184.927 607.488 184.632 607.647C184.341 607.803 183.946 607.881 183.449 607.881C182.833 607.881 182.279 607.735 181.789 607.443C181.301 607.152 180.915 606.727 180.63 606.17C180.348 605.614 180.208 604.937 180.208 604.142C180.208 603.36 180.345 602.679 180.62 602.099C180.895 601.515 181.278 601.065 181.769 600.746C182.259 600.425 182.826 600.264 183.469 600.264C183.966 600.264 184.361 600.347 184.652 600.513C184.947 600.675 185.173 600.861 185.328 601.07C185.487 601.275 185.61 601.444 185.696 601.577H185.816V600.364H186.949V608.219C186.949 608.875 186.8 609.409 186.502 609.82C186.207 610.234 185.809 610.537 185.308 610.729C184.811 610.925 184.258 611.023 183.648 611.023ZM183.608 606.827C184.079 606.827 184.477 606.719 184.801 606.504C185.126 606.288 185.373 605.978 185.542 605.574C185.711 605.17 185.796 604.686 185.796 604.122C185.796 603.572 185.713 603.086 185.547 602.665C185.381 602.245 185.136 601.915 184.811 601.676C184.486 601.437 184.085 601.318 183.608 601.318C183.111 601.318 182.697 601.444 182.365 601.696C182.037 601.948 181.79 602.286 181.624 602.71C181.462 603.134 181.381 603.605 181.381 604.122C181.381 604.652 181.464 605.121 181.629 605.529C181.798 605.933 182.047 606.252 182.375 606.484C182.707 606.712 183.118 606.827 183.608 606.827ZM195.619 600.364V601.358H191.502V600.364H195.619ZM192.735 608V599.31C192.735 598.872 192.838 598.508 193.044 598.216C193.249 597.924 193.516 597.705 193.844 597.56C194.172 597.414 194.518 597.341 194.883 597.341C195.171 597.341 195.407 597.364 195.589 597.411C195.771 597.457 195.907 597.5 195.997 597.54L195.659 598.554C195.599 598.534 195.516 598.509 195.41 598.479C195.307 598.45 195.171 598.435 195.002 598.435C194.615 598.435 194.335 598.532 194.162 598.728C193.993 598.924 193.909 599.21 193.909 599.588V608H192.735ZM196.855 608V600.364H197.989V601.517H198.068C198.207 601.139 198.459 600.833 198.824 600.597C199.189 600.362 199.6 600.244 200.057 600.244C200.143 600.244 200.251 600.246 200.38 600.249C200.509 600.253 200.607 600.258 200.673 600.264V601.457C200.634 601.447 200.542 601.433 200.4 601.413C200.261 601.389 200.113 601.378 199.957 601.378C199.586 601.378 199.255 601.456 198.963 601.612C198.675 601.764 198.446 601.976 198.277 602.248C198.111 602.516 198.029 602.823 198.029 603.168V608H196.855ZM201.656 608V600.364H202.829V608H201.656ZM202.253 599.091C202.024 599.091 201.827 599.013 201.661 598.857C201.499 598.701 201.418 598.514 201.418 598.295C201.418 598.077 201.499 597.889 201.661 597.734C201.827 597.578 202.024 597.5 202.253 597.5C202.481 597.5 202.677 597.578 202.839 597.734C203.005 597.889 203.088 598.077 203.088 598.295C203.088 598.514 203.005 598.701 202.839 598.857C202.677 599.013 202.481 599.091 202.253 599.091ZM207.772 608.159C207.036 608.159 206.402 607.997 205.868 607.672C205.338 607.344 204.928 606.886 204.64 606.3C204.355 605.71 204.213 605.024 204.213 604.241C204.213 603.459 204.355 602.77 204.64 602.173C204.928 601.573 205.329 601.106 205.843 600.771C206.36 600.433 206.963 600.264 207.653 600.264C208.051 600.264 208.443 600.33 208.831 600.463C209.219 600.596 209.572 600.811 209.89 601.109C210.208 601.404 210.462 601.795 210.651 602.283C210.84 602.77 210.934 603.37 210.934 604.082V604.58H205.048V603.565H209.741C209.741 603.134 209.655 602.75 209.482 602.412C209.313 602.074 209.071 601.807 208.757 601.612C208.445 601.416 208.077 601.318 207.653 601.318C207.186 601.318 206.781 601.434 206.44 601.666C206.102 601.895 205.842 602.193 205.659 602.561C205.477 602.929 205.386 603.323 205.386 603.744V604.42C205.386 604.997 205.485 605.486 205.684 605.887C205.886 606.285 206.166 606.588 206.524 606.797C206.882 607.002 207.298 607.105 207.772 607.105C208.08 607.105 208.359 607.062 208.607 606.976C208.859 606.886 209.076 606.754 209.259 606.578C209.441 606.399 209.582 606.177 209.681 605.912L210.815 606.23C210.695 606.615 210.495 606.953 210.213 607.244C209.931 607.533 209.583 607.758 209.169 607.92C208.755 608.08 208.289 608.159 207.772 608.159ZM213.484 603.406V608H212.311V600.364H213.444V601.557H213.544C213.723 601.169 213.995 600.857 214.359 600.622C214.724 600.384 215.194 600.264 215.771 600.264C216.288 600.264 216.741 600.37 217.128 600.582C217.516 600.791 217.818 601.109 218.033 601.537C218.249 601.961 218.356 602.498 218.356 603.148V608H217.183V603.227C217.183 602.627 217.027 602.16 216.716 601.825C216.404 601.487 215.977 601.318 215.433 601.318C215.059 601.318 214.724 601.399 214.429 601.562C214.137 601.724 213.907 601.961 213.738 602.273C213.569 602.584 213.484 602.962 213.484 603.406ZM222.976 608.159C222.34 608.159 221.778 607.998 221.291 607.677C220.803 607.352 220.422 606.895 220.147 606.305C219.872 605.711 219.734 605.01 219.734 604.202C219.734 603.4 219.872 602.704 220.147 602.114C220.422 601.524 220.805 601.068 221.295 600.746C221.786 600.425 222.353 600.264 222.996 600.264C223.493 600.264 223.886 600.347 224.174 600.513C224.466 600.675 224.688 600.861 224.84 601.07C224.996 601.275 225.117 601.444 225.203 601.577H225.303V597.818H226.476V608H225.342V606.827H225.203C225.117 606.966 224.994 607.142 224.835 607.354C224.676 607.562 224.449 607.75 224.154 607.915C223.859 608.078 223.466 608.159 222.976 608.159ZM223.135 607.105C223.606 607.105 224.003 606.982 224.328 606.737C224.653 606.489 224.9 606.146 225.069 605.708C225.238 605.267 225.322 604.759 225.322 604.182C225.322 603.612 225.24 603.113 225.074 602.685C224.908 602.254 224.663 601.92 224.338 601.681C224.013 601.439 223.612 601.318 223.135 601.318C222.638 601.318 222.224 601.446 221.892 601.701C221.564 601.953 221.317 602.296 221.151 602.73C220.989 603.161 220.908 603.645 220.908 604.182C220.908 604.725 220.991 605.219 221.156 605.663C221.325 606.104 221.574 606.455 221.902 606.717C222.233 606.976 222.644 607.105 223.135 607.105ZM233.789 602.074L232.735 602.372C232.668 602.196 232.571 602.026 232.441 601.86C232.316 601.691 232.143 601.552 231.924 601.442C231.706 601.333 231.426 601.278 231.084 601.278C230.617 601.278 230.227 601.386 229.916 601.602C229.608 601.814 229.454 602.084 229.454 602.412C229.454 602.704 229.56 602.934 229.772 603.103C229.984 603.272 230.315 603.413 230.766 603.526L231.9 603.804C232.582 603.97 233.091 604.223 233.426 604.565C233.761 604.903 233.928 605.339 233.928 605.872C233.928 606.31 233.802 606.701 233.55 607.045C233.302 607.39 232.954 607.662 232.506 607.861C232.059 608.06 231.538 608.159 230.945 608.159C230.166 608.159 229.521 607.99 229.011 607.652C228.501 607.314 228.177 606.82 228.042 606.17L229.155 605.892C229.261 606.303 229.462 606.611 229.757 606.817C230.055 607.022 230.445 607.125 230.925 607.125C231.472 607.125 231.906 607.009 232.228 606.777C232.552 606.542 232.715 606.26 232.715 605.932C232.715 605.667 232.622 605.445 232.436 605.266C232.251 605.083 231.966 604.947 231.581 604.858L230.309 604.56C229.609 604.394 229.096 604.137 228.767 603.789C228.443 603.438 228.28 602.999 228.28 602.472C228.28 602.041 228.401 601.66 228.643 601.328C228.888 600.997 229.222 600.737 229.642 600.548C230.067 600.359 230.547 600.264 231.084 600.264C231.84 600.264 232.433 600.43 232.864 600.761C233.298 601.093 233.606 601.53 233.789 602.074ZM241.063 608.179C240.579 608.179 240.14 608.088 239.745 607.906C239.351 607.72 239.038 607.453 238.806 607.105C238.574 606.754 238.458 606.33 238.458 605.832C238.458 605.395 238.544 605.04 238.716 604.768C238.889 604.493 239.119 604.278 239.407 604.122C239.696 603.966 240.014 603.85 240.362 603.774C240.713 603.695 241.066 603.632 241.421 603.585C241.885 603.526 242.261 603.481 242.549 603.451C242.841 603.418 243.053 603.363 243.186 603.287C243.322 603.211 243.389 603.078 243.389 602.889V602.849C243.389 602.359 243.255 601.978 242.987 601.706C242.722 601.434 242.319 601.298 241.779 601.298C241.219 601.298 240.779 601.421 240.461 601.666C240.143 601.911 239.919 602.173 239.79 602.452L238.676 602.054C238.875 601.59 239.14 601.229 239.472 600.97C239.807 600.708 240.171 600.526 240.566 600.423C240.963 600.317 241.354 600.264 241.739 600.264C241.984 600.264 242.266 600.294 242.584 600.354C242.906 600.41 243.215 600.528 243.514 600.707C243.815 600.886 244.066 601.156 244.264 601.517C244.463 601.878 244.563 602.362 244.563 602.969V608H243.389V606.966H243.33C243.25 607.132 243.118 607.309 242.932 607.498C242.746 607.687 242.5 607.848 242.191 607.98C241.883 608.113 241.507 608.179 241.063 608.179ZM241.242 607.125C241.706 607.125 242.097 607.034 242.415 606.852C242.737 606.669 242.979 606.434 243.141 606.146C243.307 605.857 243.389 605.554 243.389 605.236V604.162C243.34 604.222 243.23 604.276 243.061 604.326C242.896 604.372 242.703 604.414 242.485 604.45C242.269 604.483 242.059 604.513 241.853 604.54C241.651 604.563 241.487 604.583 241.361 604.599C241.056 604.639 240.771 604.704 240.506 604.793C240.244 604.879 240.032 605.01 239.87 605.186C239.711 605.358 239.631 605.594 239.631 605.892C239.631 606.3 239.782 606.608 240.083 606.817C240.388 607.022 240.774 607.125 241.242 607.125ZM247.47 603.406V608H246.296V600.364H247.43V601.557H247.529C247.708 601.169 247.98 600.857 248.345 600.622C248.709 600.384 249.18 600.264 249.757 600.264C250.274 600.264 250.726 600.37 251.114 600.582C251.502 600.791 251.803 601.109 252.019 601.537C252.234 601.961 252.342 602.498 252.342 603.148V608H251.168V603.227C251.168 602.627 251.013 602.16 250.701 601.825C250.39 601.487 249.962 601.318 249.418 601.318C249.044 601.318 248.709 601.399 248.414 601.562C248.123 601.724 247.892 601.961 247.723 602.273C247.554 602.584 247.47 602.962 247.47 603.406ZM256.961 608.159C256.325 608.159 255.763 607.998 255.276 607.677C254.789 607.352 254.408 606.895 254.132 606.305C253.857 605.711 253.72 605.01 253.72 604.202C253.72 603.4 253.857 602.704 254.132 602.114C254.408 601.524 254.79 601.068 255.281 600.746C255.771 600.425 256.338 600.264 256.981 600.264C257.478 600.264 257.871 600.347 258.159 600.513C258.451 600.675 258.673 600.861 258.826 601.07C258.981 601.275 259.102 601.444 259.189 601.577H259.288V597.818H260.461V608H259.328V606.827H259.189C259.102 606.966 258.98 607.142 258.821 607.354C258.662 607.562 258.435 607.75 258.14 607.915C257.845 608.078 257.452 608.159 256.961 608.159ZM257.12 607.105C257.591 607.105 257.989 606.982 258.314 606.737C258.638 606.489 258.885 606.146 259.054 605.708C259.223 605.267 259.308 604.759 259.308 604.182C259.308 603.612 259.225 603.113 259.059 602.685C258.894 602.254 258.648 601.92 258.323 601.681C257.999 601.439 257.598 601.318 257.12 601.318C256.623 601.318 256.209 601.446 255.877 601.701C255.549 601.953 255.302 602.296 255.137 602.73C254.974 603.161 254.893 603.645 254.893 604.182C254.893 604.725 254.976 605.219 255.142 605.663C255.311 606.104 255.559 606.455 255.887 606.717C256.219 606.976 256.63 607.105 257.12 607.105ZM268.977 611.023C268.41 611.023 267.923 610.95 267.515 610.804C267.108 610.661 266.768 610.473 266.496 610.237C266.228 610.005 266.014 609.757 265.855 609.491L266.789 608.835C266.896 608.974 267.03 609.134 267.192 609.312C267.355 609.495 267.577 609.652 267.858 609.785C268.143 609.921 268.516 609.989 268.977 609.989C269.593 609.989 270.102 609.839 270.503 609.541C270.904 609.243 271.105 608.776 271.105 608.139V606.588H271.005C270.919 606.727 270.797 606.9 270.637 607.105C270.482 607.307 270.256 607.488 269.961 607.647C269.67 607.803 269.275 607.881 268.778 607.881C268.162 607.881 267.608 607.735 267.118 607.443C266.63 607.152 266.244 606.727 265.959 606.17C265.677 605.614 265.537 604.937 265.537 604.142C265.537 603.36 265.674 602.679 265.949 602.099C266.224 601.515 266.607 601.065 267.098 600.746C267.588 600.425 268.155 600.264 268.798 600.264C269.295 600.264 269.69 600.347 269.981 600.513C270.276 600.675 270.502 600.861 270.657 601.07C270.816 601.275 270.939 601.444 271.025 601.577H271.145V600.364H272.278V608.219C272.278 608.875 272.129 609.409 271.831 609.82C271.536 610.234 271.138 610.537 270.637 610.729C270.14 610.925 269.587 611.023 268.977 611.023ZM268.937 606.827C269.408 606.827 269.806 606.719 270.13 606.504C270.455 606.288 270.702 605.978 270.871 605.574C271.04 605.17 271.125 604.686 271.125 604.122C271.125 603.572 271.042 603.086 270.876 602.665C270.71 602.245 270.465 601.915 270.14 601.676C269.815 601.437 269.414 601.318 268.937 601.318C268.44 601.318 268.026 601.444 267.694 601.696C267.366 601.948 267.119 602.286 266.954 602.71C266.791 603.134 266.71 603.605 266.71 604.122C266.71 604.652 266.793 605.121 266.958 605.529C267.128 605.933 267.376 606.252 267.704 606.484C268.036 606.712 268.447 606.827 268.937 606.827ZM276.265 608.179C275.781 608.179 275.342 608.088 274.947 607.906C274.553 607.72 274.24 607.453 274.008 607.105C273.776 606.754 273.66 606.33 273.66 605.832C273.66 605.395 273.746 605.04 273.918 604.768C274.091 604.493 274.321 604.278 274.609 604.122C274.898 603.966 275.216 603.85 275.564 603.774C275.915 603.695 276.268 603.632 276.623 603.585C277.087 603.526 277.463 603.481 277.751 603.451C278.043 603.418 278.255 603.363 278.388 603.287C278.524 603.211 278.592 603.078 278.592 602.889V602.849C278.592 602.359 278.457 601.978 278.189 601.706C277.924 601.434 277.521 601.298 276.981 601.298C276.421 601.298 275.982 601.421 275.663 601.666C275.345 601.911 275.121 602.173 274.992 602.452L273.879 602.054C274.077 601.59 274.343 601.229 274.674 600.97C275.009 600.708 275.373 600.526 275.768 600.423C276.166 600.317 276.557 600.264 276.941 600.264C277.186 600.264 277.468 600.294 277.786 600.354C278.108 600.41 278.418 600.528 278.716 600.707C279.018 600.886 279.268 601.156 279.467 601.517C279.666 601.878 279.765 602.362 279.765 602.969V608H278.592V606.966H278.532C278.452 607.132 278.32 607.309 278.134 607.498C277.949 607.687 277.702 607.848 277.394 607.98C277.085 608.113 276.709 608.179 276.265 608.179ZM276.444 607.125C276.908 607.125 277.299 607.034 277.617 606.852C277.939 606.669 278.181 606.434 278.343 606.146C278.509 605.857 278.592 605.554 278.592 605.236V604.162C278.542 604.222 278.433 604.276 278.264 604.326C278.098 604.372 277.906 604.414 277.687 604.45C277.471 604.483 277.261 604.513 277.055 604.54C276.853 604.563 276.689 604.583 276.563 604.599C276.258 604.639 275.973 604.704 275.708 604.793C275.446 604.879 275.234 605.01 275.072 605.186C274.913 605.358 274.833 605.594 274.833 605.892C274.833 606.3 274.984 606.608 275.286 606.817C275.59 607.022 275.977 607.125 276.444 607.125ZM281.498 608V600.364H282.632V601.557H282.731C282.891 601.149 283.147 600.833 283.502 600.607C283.857 600.379 284.283 600.264 284.78 600.264C285.284 600.264 285.703 600.379 286.038 600.607C286.376 600.833 286.639 601.149 286.828 601.557H286.908C287.103 601.162 287.396 600.849 287.788 600.617C288.179 600.382 288.648 600.264 289.195 600.264C289.877 600.264 290.436 600.478 290.87 600.906C291.304 601.33 291.521 601.991 291.521 602.889V608H290.348V602.889C290.348 602.326 290.194 601.923 289.886 601.681C289.577 601.439 289.214 601.318 288.797 601.318C288.26 601.318 287.844 601.481 287.549 601.805C287.254 602.127 287.106 602.535 287.106 603.028V608H285.913V602.77C285.913 602.336 285.772 601.986 285.491 601.721C285.209 601.452 284.846 601.318 284.402 601.318C284.097 601.318 283.812 601.399 283.547 601.562C283.285 601.724 283.073 601.95 282.91 602.238C282.751 602.523 282.672 602.853 282.672 603.227V608H281.498ZM293.258 608V600.364H294.432V608H293.258ZM293.855 599.091C293.626 599.091 293.429 599.013 293.263 598.857C293.101 598.701 293.02 598.514 293.02 598.295C293.02 598.077 293.101 597.889 293.263 597.734C293.429 597.578 293.626 597.5 293.855 597.5C294.084 597.5 294.279 597.578 294.442 597.734C294.607 597.889 294.69 598.077 294.69 598.295C294.69 598.514 294.607 598.701 294.442 598.857C294.279 599.013 294.084 599.091 293.855 599.091ZM297.346 603.406V608H296.173V600.364H297.306V601.557H297.406C297.585 601.169 297.856 600.857 298.221 600.622C298.586 600.384 299.056 600.264 299.633 600.264C300.15 600.264 300.602 600.37 300.99 600.582C301.378 600.791 301.68 601.109 301.895 601.537C302.11 601.961 302.218 602.498 302.218 603.148V608H301.045V603.227C301.045 602.627 300.889 602.16 300.578 601.825C300.266 601.487 299.838 601.318 299.295 601.318C298.92 601.318 298.586 601.399 298.291 601.562C297.999 601.724 297.769 601.961 297.6 602.273C297.431 602.584 297.346 602.962 297.346 603.406ZM307.037 611.023C306.47 611.023 305.983 610.95 305.575 610.804C305.167 610.661 304.828 610.473 304.556 610.237C304.287 610.005 304.073 609.757 303.914 609.491L304.849 608.835C304.955 608.974 305.089 609.134 305.252 609.312C305.414 609.495 305.636 609.652 305.918 609.785C306.203 609.921 306.576 609.989 307.037 609.989C307.653 609.989 308.162 609.839 308.563 609.541C308.964 609.243 309.164 608.776 309.164 608.139V606.588H309.065C308.979 606.727 308.856 606.9 308.697 607.105C308.541 607.307 308.316 607.488 308.021 607.647C307.729 607.803 307.335 607.881 306.838 607.881C306.221 607.881 305.668 607.735 305.177 607.443C304.69 607.152 304.304 606.727 304.019 606.17C303.737 605.614 303.596 604.937 303.596 604.142C303.596 603.36 303.734 602.679 304.009 602.099C304.284 601.515 304.667 601.065 305.157 600.746C305.648 600.425 306.215 600.264 306.858 600.264C307.355 600.264 307.749 600.347 308.041 600.513C308.336 600.675 308.561 600.861 308.717 601.07C308.876 601.275 308.999 601.444 309.085 601.577H309.204V600.364H310.338V608.219C310.338 608.875 310.189 609.409 309.89 609.82C309.595 610.234 309.198 610.537 308.697 610.729C308.2 610.925 307.646 611.023 307.037 611.023ZM306.997 606.827C307.467 606.827 307.865 606.719 308.19 606.504C308.515 606.288 308.762 605.978 308.931 605.574C309.1 605.17 309.184 604.686 309.184 604.122C309.184 603.572 309.101 603.086 308.936 602.665C308.77 602.245 308.525 601.915 308.2 601.676C307.875 601.437 307.474 601.318 306.997 601.318C306.5 601.318 306.085 601.444 305.754 601.696C305.426 601.948 305.179 602.286 305.013 602.71C304.851 603.134 304.77 603.605 304.77 604.122C304.77 604.652 304.852 605.121 305.018 605.529C305.187 605.933 305.436 606.252 305.764 606.484C306.095 606.712 306.506 606.827 306.997 606.827ZM101.343 630V622.364H102.477V623.517H102.556C102.695 623.139 102.947 622.833 103.312 622.597C103.677 622.362 104.087 622.244 104.545 622.244C104.631 622.244 104.739 622.246 104.868 622.249C104.997 622.253 105.095 622.258 105.161 622.264V623.457C105.122 623.447 105.03 623.433 104.888 623.413C104.749 623.389 104.601 623.378 104.445 623.378C104.074 623.378 103.743 623.456 103.451 623.612C103.163 623.764 102.934 623.976 102.765 624.248C102.599 624.516 102.516 624.823 102.516 625.168V630H101.343ZM109.113 630.159C108.378 630.159 107.743 629.997 107.209 629.672C106.679 629.344 106.27 628.886 105.981 628.3C105.696 627.71 105.554 627.024 105.554 626.241C105.554 625.459 105.696 624.77 105.981 624.173C106.27 623.573 106.671 623.106 107.184 622.771C107.702 622.433 108.305 622.264 108.994 622.264C109.392 622.264 109.785 622.33 110.172 622.463C110.56 622.596 110.913 622.811 111.231 623.109C111.55 623.404 111.803 623.795 111.992 624.283C112.181 624.77 112.275 625.37 112.275 626.082V626.58H106.389V625.565H111.082C111.082 625.134 110.996 624.75 110.824 624.412C110.655 624.074 110.413 623.807 110.098 623.612C109.786 623.416 109.418 623.318 108.994 623.318C108.527 623.318 108.122 623.434 107.781 623.666C107.443 623.895 107.183 624.193 107.001 624.561C106.818 624.929 106.727 625.323 106.727 625.744V626.42C106.727 626.997 106.827 627.486 107.025 627.887C107.228 628.285 107.508 628.588 107.866 628.797C108.224 629.002 108.639 629.105 109.113 629.105C109.422 629.105 109.7 629.062 109.949 628.976C110.201 628.886 110.418 628.754 110.6 628.578C110.782 628.399 110.923 628.177 111.023 627.912L112.156 628.23C112.037 628.615 111.836 628.953 111.554 629.244C111.273 629.533 110.925 629.758 110.51 629.92C110.096 630.08 109.63 630.159 109.113 630.159ZM114.825 619.818V630H113.652V619.818H114.825ZM118.814 630.179C118.33 630.179 117.891 630.088 117.496 629.906C117.102 629.72 116.789 629.453 116.556 629.105C116.324 628.754 116.208 628.33 116.208 627.832C116.208 627.395 116.295 627.04 116.467 626.768C116.639 626.493 116.87 626.278 117.158 626.122C117.446 625.966 117.765 625.85 118.113 625.774C118.464 625.695 118.817 625.632 119.172 625.585C119.636 625.526 120.012 625.481 120.3 625.451C120.592 625.418 120.804 625.363 120.936 625.287C121.072 625.211 121.14 625.078 121.14 624.889V624.849C121.14 624.359 121.006 623.978 120.738 623.706C120.472 623.434 120.07 623.298 119.53 623.298C118.969 623.298 118.53 623.421 118.212 623.666C117.894 623.911 117.67 624.173 117.541 624.452L116.427 624.054C116.626 623.59 116.891 623.229 117.223 622.97C117.557 622.708 117.922 622.526 118.316 622.423C118.714 622.317 119.105 622.264 119.49 622.264C119.735 622.264 120.017 622.294 120.335 622.354C120.656 622.41 120.966 622.528 121.265 622.707C121.566 622.886 121.816 623.156 122.015 623.517C122.214 623.878 122.314 624.362 122.314 624.969V630H121.14V628.966H121.081C121.001 629.132 120.869 629.309 120.683 629.498C120.497 629.687 120.25 629.848 119.942 629.98C119.634 630.113 119.258 630.179 118.814 630.179ZM118.993 629.125C119.457 629.125 119.848 629.034 120.166 628.852C120.487 628.669 120.729 628.434 120.892 628.146C121.057 627.857 121.14 627.554 121.14 627.236V626.162C121.091 626.222 120.981 626.276 120.812 626.326C120.646 626.372 120.454 626.414 120.235 626.45C120.02 626.483 119.81 626.513 119.604 626.54C119.402 626.563 119.238 626.583 119.112 626.599C118.807 626.639 118.522 626.704 118.257 626.793C117.995 626.879 117.783 627.01 117.62 627.186C117.461 627.358 117.382 627.594 117.382 627.892C117.382 628.3 117.533 628.608 117.834 628.817C118.139 629.022 118.525 629.125 118.993 629.125ZM127.368 622.364V623.358H123.411V622.364H127.368ZM124.564 620.534H125.737V627.812C125.737 628.144 125.786 628.393 125.882 628.558C125.981 628.721 126.107 628.83 126.259 628.886C126.415 628.939 126.579 628.966 126.752 628.966C126.881 628.966 126.987 628.959 127.07 628.946C127.153 628.929 127.219 628.916 127.269 628.906L127.507 629.96C127.428 629.99 127.317 630.02 127.174 630.05C127.032 630.083 126.851 630.099 126.632 630.099C126.301 630.099 125.976 630.028 125.658 629.886C125.343 629.743 125.081 629.526 124.872 629.234C124.667 628.943 124.564 628.575 124.564 628.131V620.534ZM131.845 630.159C131.109 630.159 130.474 629.997 129.941 629.672C129.41 629.344 129.001 628.886 128.713 628.3C128.428 627.71 128.285 627.024 128.285 626.241C128.285 625.459 128.428 624.77 128.713 624.173C129.001 623.573 129.402 623.106 129.916 622.771C130.433 622.433 131.036 622.264 131.725 622.264C132.123 622.264 132.516 622.33 132.904 622.463C133.291 622.596 133.644 622.811 133.963 623.109C134.281 623.404 134.534 623.795 134.723 624.283C134.912 624.77 135.007 625.37 135.007 626.082V626.58H129.12V625.565H133.813C133.813 625.134 133.727 624.75 133.555 624.412C133.386 624.074 133.144 623.807 132.829 623.612C132.518 623.416 132.15 623.318 131.725 623.318C131.258 623.318 130.854 623.434 130.512 623.666C130.174 623.895 129.914 624.193 129.732 624.561C129.55 624.929 129.458 625.323 129.458 625.744V626.42C129.458 626.997 129.558 627.486 129.757 627.887C129.959 628.285 130.239 628.588 130.597 628.797C130.955 629.002 131.371 629.105 131.845 629.105C132.153 629.105 132.431 629.062 132.68 628.976C132.932 628.886 133.149 628.754 133.331 628.578C133.514 628.399 133.654 628.177 133.754 627.912L134.887 628.23C134.768 628.615 134.567 628.953 134.286 629.244C134.004 629.533 133.656 629.758 133.242 629.92C132.827 630.08 132.362 630.159 131.845 630.159ZM139.267 630.159C138.631 630.159 138.069 629.998 137.582 629.677C137.094 629.352 136.713 628.895 136.438 628.305C136.163 627.711 136.026 627.01 136.026 626.202C136.026 625.4 136.163 624.704 136.438 624.114C136.713 623.524 137.096 623.068 137.587 622.746C138.077 622.425 138.644 622.264 139.287 622.264C139.784 622.264 140.177 622.347 140.465 622.513C140.757 622.675 140.979 622.861 141.131 623.07C141.287 623.275 141.408 623.444 141.494 623.577H141.594V619.818H142.767V630H141.633V628.827H141.494C141.408 628.966 141.285 629.142 141.126 629.354C140.967 629.562 140.74 629.75 140.445 629.915C140.15 630.078 139.758 630.159 139.267 630.159ZM139.426 629.105C139.897 629.105 140.294 628.982 140.619 628.737C140.944 628.489 141.191 628.146 141.36 627.708C141.529 627.267 141.614 626.759 141.614 626.182C141.614 625.612 141.531 625.113 141.365 624.685C141.199 624.254 140.954 623.92 140.629 623.681C140.304 623.439 139.903 623.318 139.426 623.318C138.929 623.318 138.515 623.446 138.183 623.701C137.855 623.953 137.608 624.296 137.442 624.73C137.28 625.161 137.199 625.645 137.199 626.182C137.199 626.725 137.282 627.219 137.447 627.663C137.616 628.104 137.865 628.455 138.193 628.717C138.525 628.976 138.936 629.105 139.426 629.105ZM151.303 630.159C150.587 630.159 149.97 629.99 149.453 629.652C148.936 629.314 148.538 628.848 148.26 628.255C147.982 627.662 147.842 626.984 147.842 626.222C147.842 625.446 147.985 624.762 148.27 624.168C148.558 623.572 148.959 623.106 149.473 622.771C149.99 622.433 150.593 622.264 151.283 622.264C151.82 622.264 152.303 622.364 152.734 622.562C153.165 622.761 153.518 623.04 153.793 623.398C154.068 623.756 154.239 624.173 154.305 624.651H153.132C153.043 624.303 152.844 623.994 152.535 623.726C152.231 623.454 151.82 623.318 151.303 623.318C150.845 623.318 150.444 623.437 150.099 623.676C149.758 623.911 149.491 624.245 149.299 624.675C149.11 625.103 149.016 625.605 149.016 626.182C149.016 626.772 149.108 627.286 149.294 627.723C149.483 628.161 149.748 628.5 150.089 628.742C150.434 628.984 150.839 629.105 151.303 629.105C151.607 629.105 151.884 629.052 152.133 628.946C152.381 628.84 152.592 628.688 152.764 628.489C152.937 628.29 153.059 628.051 153.132 627.773H154.305C154.239 628.223 154.075 628.629 153.813 628.991C153.555 629.349 153.212 629.634 152.784 629.846C152.36 630.055 151.866 630.159 151.303 630.159ZM158.715 630.159C158.025 630.159 157.421 629.995 156.9 629.667C156.383 629.339 155.979 628.88 155.687 628.29C155.399 627.7 155.255 627.01 155.255 626.222C155.255 625.426 155.399 624.732 155.687 624.138C155.979 623.545 156.383 623.085 156.9 622.756C157.421 622.428 158.025 622.264 158.715 622.264C159.404 622.264 160.007 622.428 160.525 622.756C161.045 623.085 161.449 623.545 161.738 624.138C162.029 624.732 162.175 625.426 162.175 626.222C162.175 627.01 162.029 627.7 161.738 628.29C161.449 628.88 161.045 629.339 160.525 629.667C160.007 629.995 159.404 630.159 158.715 630.159ZM158.715 629.105C159.239 629.105 159.669 628.971 160.007 628.702C160.346 628.434 160.596 628.081 160.758 627.643C160.921 627.206 161.002 626.732 161.002 626.222C161.002 625.711 160.921 625.236 160.758 624.795C160.596 624.354 160.346 623.998 160.007 623.726C159.669 623.454 159.239 623.318 158.715 623.318C158.191 623.318 157.76 623.454 157.422 623.726C157.084 623.998 156.834 624.354 156.672 624.795C156.509 625.236 156.428 625.711 156.428 626.222C156.428 626.732 156.509 627.206 156.672 627.643C156.834 628.081 157.084 628.434 157.422 628.702C157.76 628.971 158.191 629.105 158.715 629.105ZM164.731 625.406V630H163.558V622.364H164.692V623.557H164.791C164.97 623.169 165.242 622.857 165.606 622.622C165.971 622.384 166.442 622.264 167.018 622.264C167.535 622.264 167.988 622.37 168.376 622.582C168.763 622.791 169.065 623.109 169.28 623.537C169.496 623.961 169.604 624.498 169.604 625.148V630H168.43V625.227C168.43 624.627 168.274 624.16 167.963 623.825C167.651 623.487 167.224 623.318 166.68 623.318C166.306 623.318 165.971 623.399 165.676 623.562C165.384 623.724 165.154 623.961 164.985 624.273C164.816 624.584 164.731 624.962 164.731 625.406ZM174.661 622.364V623.358H170.703V622.364H174.661ZM171.857 620.534H173.03V627.812C173.03 628.144 173.078 628.393 173.174 628.558C173.273 628.721 173.399 628.83 173.552 628.886C173.708 628.939 173.872 628.966 174.044 628.966C174.173 628.966 174.279 628.959 174.362 628.946C174.445 628.929 174.511 628.916 174.561 628.906L174.8 629.96C174.72 629.99 174.609 630.02 174.467 630.05C174.324 630.083 174.144 630.099 173.925 630.099C173.593 630.099 173.269 630.028 172.95 629.886C172.635 629.743 172.374 629.526 172.165 629.234C171.959 628.943 171.857 628.575 171.857 628.131V620.534ZM179.137 630.159C178.401 630.159 177.767 629.997 177.233 629.672C176.703 629.344 176.293 628.886 176.005 628.3C175.72 627.71 175.578 627.024 175.578 626.241C175.578 625.459 175.72 624.77 176.005 624.173C176.293 623.573 176.694 623.106 177.208 622.771C177.725 622.433 178.328 622.264 179.018 622.264C179.416 622.264 179.808 622.33 180.196 622.463C180.584 622.596 180.937 622.811 181.255 623.109C181.573 623.404 181.827 623.795 182.016 624.283C182.205 624.77 182.299 625.37 182.299 626.082V626.58H176.413V625.565H181.106C181.106 625.134 181.02 624.75 180.847 624.412C180.678 624.074 180.436 623.807 180.122 623.612C179.81 623.416 179.442 623.318 179.018 623.318C178.551 623.318 178.146 623.434 177.805 623.666C177.467 623.895 177.207 624.193 177.024 624.561C176.842 624.929 176.751 625.323 176.751 625.744V626.42C176.751 626.997 176.85 627.486 177.049 627.887C177.251 628.285 177.531 628.588 177.889 628.797C178.247 629.002 178.663 629.105 179.137 629.105C179.445 629.105 179.724 629.062 179.972 628.976C180.224 628.886 180.441 628.754 180.624 628.578C180.806 628.399 180.947 628.177 181.046 627.912L182.18 628.23C182.06 628.615 181.86 628.953 181.578 629.244C181.296 629.533 180.948 629.758 180.534 629.92C180.12 630.08 179.654 630.159 179.137 630.159ZM184.849 625.406V630H183.676V622.364H184.809V623.557H184.909C185.088 623.169 185.36 622.857 185.724 622.622C186.089 622.384 186.559 622.264 187.136 622.264C187.653 622.264 188.106 622.37 188.493 622.582C188.881 622.791 189.183 623.109 189.398 623.537C189.614 623.961 189.721 624.498 189.721 625.148V630H188.548V625.227C188.548 624.627 188.392 624.16 188.081 623.825C187.769 623.487 187.342 623.318 186.798 623.318C186.424 623.318 186.089 623.399 185.794 623.562C185.502 623.724 185.272 623.961 185.103 624.273C184.934 624.584 184.849 624.962 184.849 625.406ZM194.778 622.364V623.358H190.821V622.364H194.778ZM191.974 620.534H193.148V627.812C193.148 628.144 193.196 628.393 193.292 628.558C193.391 628.721 193.517 628.83 193.67 628.886C193.825 628.939 193.99 628.966 194.162 628.966C194.291 628.966 194.397 628.959 194.48 628.946C194.563 628.929 194.629 628.916 194.679 628.906L194.918 629.96C194.838 629.99 194.727 630.02 194.584 630.05C194.442 630.083 194.261 630.099 194.043 630.099C193.711 630.099 193.386 630.028 193.068 629.886C192.753 629.743 192.491 629.526 192.283 629.234C192.077 628.943 191.974 628.575 191.974 628.131V620.534ZM201.912 630.179C201.428 630.179 200.989 630.088 200.594 629.906C200.2 629.72 199.887 629.453 199.655 629.105C199.423 628.754 199.307 628.33 199.307 627.832C199.307 627.395 199.393 627.04 199.565 626.768C199.738 626.493 199.968 626.278 200.256 626.122C200.545 625.966 200.863 625.85 201.211 625.774C201.562 625.695 201.915 625.632 202.27 625.585C202.734 625.526 203.11 625.481 203.398 625.451C203.69 625.418 203.902 625.363 204.035 625.287C204.171 625.211 204.239 625.078 204.239 624.889V624.849C204.239 624.359 204.104 623.978 203.836 623.706C203.571 623.434 203.168 623.298 202.628 623.298C202.068 623.298 201.629 623.421 201.31 623.666C200.992 623.911 200.768 624.173 200.639 624.452L199.526 624.054C199.724 623.59 199.99 623.229 200.321 622.97C200.656 622.708 201.02 622.526 201.415 622.423C201.813 622.317 202.204 622.264 202.588 622.264C202.833 622.264 203.115 622.294 203.433 622.354C203.755 622.41 204.065 622.528 204.363 622.707C204.665 622.886 204.915 623.156 205.114 623.517C205.313 623.878 205.412 624.362 205.412 624.969V630H204.239V628.966H204.179C204.099 629.132 203.967 629.309 203.781 629.498C203.596 629.687 203.349 629.848 203.04 629.98C202.732 630.113 202.356 630.179 201.912 630.179ZM202.091 629.125C202.555 629.125 202.946 629.034 203.264 628.852C203.586 628.669 203.828 628.434 203.99 628.146C204.156 627.857 204.239 627.554 204.239 627.236V626.162C204.189 626.222 204.08 626.276 203.911 626.326C203.745 626.372 203.553 626.414 203.334 626.45C203.118 626.483 202.908 626.513 202.702 626.54C202.5 626.563 202.336 626.583 202.21 626.599C201.905 626.639 201.62 626.704 201.355 626.793C201.093 626.879 200.881 627.01 200.719 627.186C200.56 627.358 200.48 627.594 200.48 627.892C200.48 628.3 200.631 628.608 200.933 628.817C201.237 629.022 201.624 629.125 202.091 629.125ZM208.319 619.818V630H207.145V619.818H208.319ZM211.233 619.818V630H210.06V619.818H211.233ZM216.503 630V622.364H217.677V630H216.503ZM217.1 621.091C216.871 621.091 216.674 621.013 216.508 620.857C216.346 620.701 216.265 620.514 216.265 620.295C216.265 620.077 216.346 619.889 216.508 619.734C216.674 619.578 216.871 619.5 217.1 619.5C217.329 619.5 217.524 619.578 217.687 619.734C217.852 619.889 217.935 620.077 217.935 620.295C217.935 620.514 217.852 620.701 217.687 620.857C217.524 621.013 217.329 621.091 217.1 621.091ZM220.591 625.406V630H219.418V622.364H220.551V623.557H220.651C220.83 623.169 221.101 622.857 221.466 622.622C221.831 622.384 222.301 622.264 222.878 622.264C223.395 622.264 223.847 622.37 224.235 622.582C224.623 622.791 224.925 623.109 225.14 623.537C225.355 623.961 225.463 624.498 225.463 625.148V630H224.29V625.227C224.29 624.627 224.134 624.16 223.823 623.825C223.511 623.487 223.083 623.318 222.54 623.318C222.165 623.318 221.831 623.399 221.536 623.562C221.244 623.724 221.014 623.961 220.845 624.273C220.676 624.584 220.591 624.962 220.591 625.406ZM233.831 630.159C233.142 630.159 232.537 629.995 232.016 629.667C231.499 629.339 231.095 628.88 230.803 628.29C230.515 627.7 230.371 627.01 230.371 626.222C230.371 625.426 230.515 624.732 230.803 624.138C231.095 623.545 231.499 623.085 232.016 622.756C232.537 622.428 233.142 622.264 233.831 622.264C234.52 622.264 235.124 622.428 235.641 622.756C236.161 623.085 236.565 623.545 236.854 624.138C237.145 624.732 237.291 625.426 237.291 626.222C237.291 627.01 237.145 627.7 236.854 628.29C236.565 628.88 236.161 629.339 235.641 629.667C235.124 629.995 234.52 630.159 233.831 630.159ZM233.831 629.105C234.355 629.105 234.786 628.971 235.124 628.702C235.462 628.434 235.712 628.081 235.874 627.643C236.037 627.206 236.118 626.732 236.118 626.222C236.118 625.711 236.037 625.236 235.874 624.795C235.712 624.354 235.462 623.998 235.124 623.726C234.786 623.454 234.355 623.318 233.831 623.318C233.307 623.318 232.876 623.454 232.538 623.726C232.2 623.998 231.95 624.354 231.788 624.795C231.625 625.236 231.544 625.711 231.544 626.222C231.544 626.732 231.625 627.206 231.788 627.643C231.95 628.081 232.2 628.434 232.538 628.702C232.876 628.971 233.307 629.105 233.831 629.105ZM239.848 625.406V630H238.674V622.364H239.808V623.557H239.907C240.086 623.169 240.358 622.857 240.723 622.622C241.087 622.384 241.558 622.264 242.134 622.264C242.652 622.264 243.104 622.37 243.492 622.582C243.879 622.791 244.181 623.109 244.397 623.537C244.612 623.961 244.72 624.498 244.72 625.148V630H243.546V625.227C243.546 624.627 243.391 624.16 243.079 623.825C242.768 623.487 242.34 623.318 241.796 623.318C241.422 623.318 241.087 623.399 240.792 623.562C240.5 623.724 240.27 623.961 240.101 624.273C239.932 624.584 239.848 624.962 239.848 625.406ZM249.657 630.159C248.922 630.159 248.287 629.997 247.753 629.672C247.223 629.344 246.814 628.886 246.525 628.3C246.24 627.71 246.098 627.024 246.098 626.241C246.098 625.459 246.24 624.77 246.525 624.173C246.814 623.573 247.215 623.106 247.728 622.771C248.245 622.433 248.849 622.264 249.538 622.264C249.936 622.264 250.329 622.33 250.716 622.463C251.104 622.596 251.457 622.811 251.775 623.109C252.093 623.404 252.347 623.795 252.536 624.283C252.725 624.77 252.819 625.37 252.819 626.082V626.58H246.933V625.565H251.626C251.626 625.134 251.54 624.75 251.368 624.412C251.199 624.074 250.957 623.807 250.642 623.612C250.33 623.416 249.962 623.318 249.538 623.318C249.071 623.318 248.666 623.434 248.325 623.666C247.987 623.895 247.727 624.193 247.544 624.561C247.362 624.929 247.271 625.323 247.271 625.744V626.42C247.271 626.997 247.37 627.486 247.569 627.887C247.771 628.285 248.052 628.588 248.41 628.797C248.767 629.002 249.183 629.105 249.657 629.105C249.966 629.105 250.244 629.062 250.493 628.976C250.744 628.886 250.962 628.754 251.144 628.578C251.326 628.399 251.467 628.177 251.566 627.912L252.7 628.23C252.581 628.615 252.38 628.953 252.098 629.244C251.817 629.533 251.469 629.758 251.054 629.92C250.64 630.08 250.174 630.159 249.657 630.159ZM257.726 632.864V622.364H258.859V623.577H258.998C259.084 623.444 259.204 623.275 259.356 623.07C259.512 622.861 259.734 622.675 260.022 622.513C260.314 622.347 260.709 622.264 261.206 622.264C261.849 622.264 262.415 622.425 262.906 622.746C263.397 623.068 263.779 623.524 264.054 624.114C264.33 624.704 264.467 625.4 264.467 626.202C264.467 627.01 264.33 627.711 264.054 628.305C263.779 628.895 263.398 629.352 262.911 629.677C262.424 629.998 261.862 630.159 261.226 630.159C260.735 630.159 260.342 630.078 260.047 629.915C259.752 629.75 259.525 629.562 259.366 629.354C259.207 629.142 259.084 628.966 258.998 628.827H258.899V632.864H257.726ZM258.879 626.182C258.879 626.759 258.964 627.267 259.133 627.708C259.302 628.146 259.549 628.489 259.873 628.737C260.198 628.982 260.596 629.105 261.067 629.105C261.557 629.105 261.966 628.976 262.294 628.717C262.626 628.455 262.875 628.104 263.04 627.663C263.209 627.219 263.294 626.725 263.294 626.182C263.294 625.645 263.211 625.161 263.045 624.73C262.883 624.296 262.636 623.953 262.304 623.701C261.976 623.446 261.564 623.318 261.067 623.318C260.589 623.318 260.188 623.439 259.863 623.681C259.539 623.92 259.293 624.254 259.128 624.685C258.962 625.113 258.879 625.612 258.879 626.182ZM267.022 619.818V630H265.849V619.818H267.022ZM271.01 630.179C270.526 630.179 270.087 630.088 269.693 629.906C269.298 629.72 268.985 629.453 268.753 629.105C268.521 628.754 268.405 628.33 268.405 627.832C268.405 627.395 268.491 627.04 268.664 626.768C268.836 626.493 269.066 626.278 269.355 626.122C269.643 625.966 269.961 625.85 270.309 625.774C270.661 625.695 271.014 625.632 271.368 625.585C271.832 625.526 272.208 625.481 272.497 625.451C272.788 625.418 273.001 625.363 273.133 625.287C273.269 625.211 273.337 625.078 273.337 624.889V624.849C273.337 624.359 273.203 623.978 272.934 623.706C272.669 623.434 272.266 623.298 271.726 623.298C271.166 623.298 270.727 623.421 270.409 623.666C270.091 623.911 269.867 624.173 269.738 624.452L268.624 624.054C268.823 623.59 269.088 623.229 269.419 622.97C269.754 622.708 270.119 622.526 270.513 622.423C270.911 622.317 271.302 622.264 271.686 622.264C271.932 622.264 272.213 622.294 272.532 622.354C272.853 622.41 273.163 622.528 273.461 622.707C273.763 622.886 274.013 623.156 274.212 623.517C274.411 623.878 274.51 624.362 274.51 624.969V630H273.337V628.966H273.277C273.198 629.132 273.065 629.309 272.88 629.498C272.694 629.687 272.447 629.848 272.139 629.98C271.831 630.113 271.454 630.179 271.01 630.179ZM271.189 629.125C271.653 629.125 272.044 629.034 272.363 628.852C272.684 628.669 272.926 628.434 273.088 628.146C273.254 627.857 273.337 627.554 273.337 627.236V626.162C273.287 626.222 273.178 626.276 273.009 626.326C272.843 626.372 272.651 626.414 272.432 626.45C272.217 626.483 272.006 626.513 271.801 626.54C271.599 626.563 271.435 626.583 271.309 626.599C271.004 626.639 270.719 626.704 270.453 626.793C270.192 626.879 269.98 627.01 269.817 627.186C269.658 627.358 269.578 627.594 269.578 627.892C269.578 628.3 269.729 628.608 270.031 628.817C270.336 629.022 270.722 629.125 271.189 629.125ZM279.346 630.159C278.63 630.159 278.014 629.99 277.497 629.652C276.98 629.314 276.582 628.848 276.303 628.255C276.025 627.662 275.886 626.984 275.886 626.222C275.886 625.446 276.028 624.762 276.313 624.168C276.602 623.572 277.003 623.106 277.517 622.771C278.034 622.433 278.637 622.264 279.326 622.264C279.863 622.264 280.347 622.364 280.778 622.562C281.209 622.761 281.562 623.04 281.837 623.398C282.112 623.756 282.283 624.173 282.349 624.651H281.176C281.086 624.303 280.887 623.994 280.579 623.726C280.274 623.454 279.863 623.318 279.346 623.318C278.889 623.318 278.488 623.437 278.143 623.676C277.802 623.911 277.535 624.245 277.343 624.675C277.154 625.103 277.059 625.605 277.059 626.182C277.059 626.772 277.152 627.286 277.338 627.723C277.526 628.161 277.792 628.5 278.133 628.742C278.478 628.984 278.882 629.105 279.346 629.105C279.651 629.105 279.928 629.052 280.176 628.946C280.425 628.84 280.635 628.688 280.808 628.489C280.98 628.29 281.103 628.051 281.176 627.773H282.349C282.283 628.223 282.119 628.629 281.857 628.991C281.598 629.349 281.255 629.634 280.828 629.846C280.403 630.055 279.91 630.159 279.346 630.159ZM286.858 630.159C286.122 630.159 285.487 629.997 284.954 629.672C284.423 629.344 284.014 628.886 283.726 628.3C283.441 627.71 283.298 627.024 283.298 626.241C283.298 625.459 283.441 624.77 283.726 624.173C284.014 623.573 284.415 623.106 284.929 622.771C285.446 622.433 286.049 622.264 286.738 622.264C287.136 622.264 287.529 622.33 287.917 622.463C288.305 622.596 288.658 622.811 288.976 623.109C289.294 623.404 289.547 623.795 289.736 624.283C289.925 624.77 290.02 625.37 290.02 626.082V626.58H284.133V625.565H288.827C288.827 625.134 288.74 624.75 288.568 624.412C288.399 624.074 288.157 623.807 287.842 623.612C287.531 623.416 287.163 623.318 286.738 623.318C286.271 623.318 285.867 623.434 285.525 623.666C285.187 623.895 284.927 624.193 284.745 624.561C284.563 624.929 284.471 625.323 284.471 625.744V626.42C284.471 626.997 284.571 627.486 284.77 627.887C284.972 628.285 285.252 628.588 285.61 628.797C285.968 629.002 286.384 629.105 286.858 629.105C287.166 629.105 287.444 629.062 287.693 628.976C287.945 628.886 288.162 628.754 288.344 628.578C288.527 628.399 288.667 628.177 288.767 627.912L289.9 628.23C289.781 628.615 289.581 628.953 289.299 629.244C289.017 629.533 288.669 629.758 288.255 629.92C287.841 630.08 287.375 630.159 286.858 630.159Z" fill="white"/>
<g filter="url(#filter0_d_3006_55678)">
<path d="M283 291.367C282.517 281.12 272.998 280.063 271.83 280.063C268.224 279.995 265.907 282.457 265.131 283.437V280.737C265.132 274.731 263.943 268.784 261.635 263.235C259.326 257.686 255.942 252.644 251.675 248.396C247.409 244.149 242.344 240.78 236.769 238.482C231.195 236.183 225.22 235 219.186 235H152.941C140.757 235 129.071 239.818 120.456 248.394C111.84 256.97 107 268.602 107 280.73L107 345.318C107 357.447 111.84 369.078 120.456 377.654C129.071 386.23 140.757 391.048 152.941 391.048H219.186C231.371 391.048 243.056 386.23 251.673 377.654C260.289 369.079 265.13 357.447 265.131 345.318V337.438C266.138 338.915 267.661 339.966 269.403 340.388C269.647 345.269 268.528 352.763 267.996 355.323C267.008 360.96 265.139 366.409 262.457 371.47C258.184 380.752 249.83 386.262 246.859 388.341C234.715 396.077 222.477 397.577 216.942 398.542C205.334 400.379 190.988 400.201 189.794 400.22C186.183 400.458 185.921 403.507 185.891 403.923C185.921 407.309 189.079 407.888 190.075 407.937C193.914 408.017 196.828 407.729 199.206 407.729C202.413 407.873 216.98 406.279 218.003 406.086C224.025 405.457 233.251 402.75 235.24 402.166C239.661 400.864 245.588 397.914 250.637 395.013C279.485 377.514 277.202 339.725 277.179 339.191C279.037 338.074 280.552 336.472 281.558 334.557C282.564 332.643 283.024 330.49 282.886 328.334C282.886 328.334 282.905 299.778 283 291.367ZM169.916 328.198C169.916 335.423 164.164 341.282 157.069 341.282C147.383 341.282 139.531 333.284 139.531 323.419V298.183C139.531 288.588 147.17 280.806 156.593 280.806C163.951 280.806 169.909 286.865 169.909 294.374L169.916 328.198ZM233.76 323.419C233.76 333.284 225.908 341.282 216.222 341.282C209.131 341.282 203.379 335.423 203.379 328.198V294.374C203.379 286.88 209.344 280.806 216.694 280.806C226.118 280.806 233.757 288.588 233.757 298.183L233.76 323.419Z" fill="#FE805C"/>
</g>
</g>
<defs>
<filter id="filter0_d_3006_55678" x="103" y="235" width="184" height="180.951" filterUnits="userSpaceOnUse" color-interpolation-filters="sRGB">
<feFlood flood-opacity="0" result="BackgroundImageFix"/>
<feColorMatrix in="SourceAlpha" type="matrix" values="0 0 0 0 0 0 0 0 0 0 0 0 0 0 0 0 0 0 127 0" result="hardAlpha"/>
<feOffset dy="4"/>
<feGaussianBlur stdDeviation="2"/>
<feComposite in2="hardAlpha" operator="out"/>
<feColorMatrix type="matrix" values="0 0 0 0 0 0 0 0 0 0 0 0 0 0 0 0 0 0 0.25 0"/>
<feBlend mode="normal" in2="BackgroundImageFix" result="effect1_dropShadow_3006_55678"/>
<feBlend mode="normal" in="SourceGraphic" in2="effect1_dropShadow_3006_55678" result="shape"/>
</filter>
<radialGradient id="paint0_radial_3006_55678" cx="0" cy="0" r="1" gradientUnits="userSpaceOnUse" gradientTransform="translate(455.802 407.301) rotate(115.741) scale(154.64)">
<stop stop-color="white"/>
<stop offset="0.0929343" stop-color="#E9E6FF"/>
<stop offset="0.212779" stop-color="#BEBBD5"/>
<stop offset="0.395116" stop-color="#918BB9"/>
<stop offset="0.617629" stop-color="#6A639D"/>
<stop offset="0.746273" stop-color="#544F81"/>
<stop offset="1" stop-color="#2A2651"/>
</radialGradient>
<radialGradient id="paint1_radial_3006_55678" cx="0" cy="0" r="1" gradientUnits="userSpaceOnUse" gradientTransform="translate(93.07 169.346) rotate(-42.571) scale(94.0527)">
<stop stop-color="white"/>
<stop offset="0.182532" stop-color="#CCA5B0"/>
<stop offset="0.258986" stop-color="#C8889A"/>
<stop offset="0.327599" stop-color="#BF7288"/>
<stop offset="0.487535" stop-color="#B45570"/>
<stop offset="0.777562" stop-color="#963652"/>
<stop offset="1" stop-color="#671E33"/>
</radialGradient>
<radialGradient id="paint2_radial_3006_55678" cx="0" cy="0" r="1" gradientUnits="userSpaceOnUse" gradientTransform="translate(-12.097 405.053) rotate(57.5288) scale(97.0571)">
<stop stop-color="white"/>
<stop offset="0.109375" stop-color="#FFDFD6"/>
<stop offset="0.276042" stop-color="#F1AB97"/>
<stop offset="0.440489" stop-color="#FF8A69"/>
<stop offset="0.639674" stop-color="#EA6E4B"/>
<stop offset="0.804187" stop-color="#E84E22"/>
<stop offset="1" stop-color="#AC2A04"/>
</radialGradient>
<clipPath id="clip0_3006_55678">
<rect width="390" height="844" fill="white"/>
</clipPath>
</defs>
</svg>
