<svg width="24" height="24" viewBox="0 0 24 24" fill="none" xmlns="http://www.w3.org/2000/svg">
<path d="M9.1875 8.5874H10.3125V17.5874H9.1875V8.5874Z" fill="#FE805C"/>
<path d="M11.4375 8.5874H12.5625V17.5874H11.4375V8.5874Z" fill="#FE805C"/>
<path d="M13.6875 8.5874H14.8125V17.5874H13.6875V8.5874Z" fill="#FE805C"/>
<path d="M4.6875 5.2124H19.3125V6.3374H4.6875V5.2124Z" fill="#FE805C"/>
<path d="M14.7751 5.775H13.7251V4.65C13.7251 4.3125 13.4626 4.05 13.1251 4.05H10.8751C10.5376 4.05 10.2751 4.3125 10.2751 4.65V5.775H9.2251V4.65C9.2251 3.75 9.9751 3 10.8751 3H13.1251C14.0251 3 14.7751 3.75 14.7751 4.65V5.775Z" fill="#FE805C"/>
<path d="M15.375 20.9623H8.625C7.725 20.9623 6.9375 20.2123 6.8625 19.3123L5.8125 5.8123L6.9375 5.7373L7.9875 19.2373C8.025 19.5748 8.325 19.8373 8.625 19.8373H15.375C15.7125 19.8373 16.0125 19.5373 16.0125 19.2373L17.0625 5.7373L18.1875 5.8123L17.1375 19.3123C17.0625 20.2498 16.275 20.9623 15.375 20.9623Z" fill="#FE805C"/>
</svg>
