<svg width="25" height="26" viewBox="0 0 25 26" fill="none" xmlns="http://www.w3.org/2000/svg">
<path d="M18.0859 11.7109H16.9141V9.21093C16.9141 6.78906 14.9219 4.79688 12.5 4.79688C10.0781 4.79688 8.08594 6.78906 8.08594 9.21093V11.7109H6.91406V9.21093C6.91406 6.125 9.41406 3.625 12.5 3.625C15.5859 3.625 18.0859 6.125 18.0859 9.21093V11.7109Z" fill="black"/>
<path d="M17.5 22.3359H7.50001C6.48438 22.3359 5.625 21.4766 5.625 20.4609V12.9609C5.625 11.9453 6.48438 11.0859 7.50001 11.0859H17.5C18.5156 11.0859 19.375 11.9453 19.375 12.9609V20.4609C19.375 21.5156 18.5156 22.3359 17.5 22.3359ZM7.50001 12.3359C7.14844 12.3359 6.875 12.6094 6.875 12.9609V20.4609C6.875 20.8125 7.14844 21.0859 7.50001 21.0859H17.5C17.8516 21.0859 18.125 20.8125 18.125 20.4609V12.9609C18.125 12.6094 17.8516 12.3359 17.5 12.3359H7.50001Z" fill="black"/>
<path d="M13.75 14.8359C13.75 15.5391 13.2031 16.0859 12.5 16.0859C11.7969 16.0859 11.25 15.5391 11.25 14.8359C11.25 14.1328 11.7969 13.5859 12.5 13.5859C13.2031 13.5859 13.75 14.1719 13.75 14.8359Z" fill="black"/>
<path d="M12.8125 14.8359H12.1875L11.5625 18.5859H13.4375L12.8125 14.8359Z" fill="black"/>
</svg>
