<svg width="48" height="48" viewBox="0 0 48 48" fill="none" xmlns="http://www.w3.org/2000/svg">
<circle cx="24" cy="24" r="24" fill="#121212"/>
<path d="M25.8311 10.9305C25.5255 10.7678 25.1548 10.7861 24.867 10.9801L15.4601 18.3662L12.3363 18.3686C10.7393 18.3686 9.43945 19.5011 9.43945 20.8998L9.48961 27.0855C9.48961 28.4781 10.789 29.6116 12.386 29.6116L15.5088 29.6135L24.866 37.0183C25.0209 37.1229 25.2036 37.1787 25.3905 37.1786C25.5415 37.1786 25.6929 37.142 25.8302 37.0689C25.9807 36.9893 26.1066 36.8701 26.1944 36.7243C26.2822 36.5784 26.3286 36.4114 26.3285 36.2411V11.7583C26.3284 11.5882 26.2821 11.4213 26.1945 11.2754C26.1069 11.1296 25.9813 11.0104 25.8311 10.9305ZM24.4535 34.4772L16.3207 27.8993C16.1659 27.7948 15.9834 27.7389 15.7966 27.7389L12.387 27.737C11.7851 27.737 11.3651 27.3939 11.3651 27.0789L11.315 20.8928C11.315 20.5858 11.735 20.2436 12.3373 20.2436L15.7475 20.2413C15.9338 20.2411 16.1159 20.1855 16.2705 20.0814L24.4535 13.5189V34.4772ZM33.8576 24.161C33.8576 21.6705 32.1457 19.578 29.7879 19.1842C29.269 19.0985 28.7937 19.4439 28.7084 19.9549C28.623 20.4654 28.9685 20.9486 29.4785 21.0339C30.9527 21.28 31.9826 22.5663 31.9826 24.1615C31.9826 25.6802 30.9171 26.9941 29.4485 27.2871C28.9404 27.3879 28.6109 27.8815 28.7126 28.3896C28.8012 28.8354 29.1921 29.1438 29.6309 29.1438C29.6914 29.1438 29.7537 29.1382 29.8151 29.1255C32.1575 28.6587 33.8576 26.5704 33.8576 24.161V24.161ZM32.6135 15.5594C32.1293 15.3789 31.5878 15.625 31.4079 16.1102C31.2264 16.5953 31.473 17.1353 31.9581 17.3163C34.7861 18.3714 36.686 21.122 36.686 24.1609C36.686 27.2012 34.7861 29.957 31.96 31.0164C31.4749 31.1987 31.2292 31.7387 31.4107 32.223C31.5518 32.6003 31.909 32.8319 32.2887 32.8319C32.4009 32.8319 32.5122 32.8117 32.6172 32.7723C36.1722 31.4392 38.561 27.9784 38.561 24.1609C38.561 20.3434 36.1704 16.8869 32.6135 15.5594Z" fill="white"/>
</svg>
