<svg width="21" height="20" viewBox="0 0 21 20" fill="none" xmlns="http://www.w3.org/2000/svg">
<path d="M8.73324 11.5622C13.4415 11.7619 17.5998 14.9728 18.944 19.5073L18.944 19.5074C19.0027 19.7049 19.1844 19.8406 19.3907 19.8406C19.597 19.8406 19.7788 19.7051 19.8373 19.5073C20.1712 18.3821 20.3406 17.2193 20.3406 16.0511C20.3406 9.55389 15.1754 4.23993 8.73324 3.99438V0.625196C8.73324 0.436814 8.61981 0.267014 8.4456 0.195091C8.27193 0.122493 8.0711 0.162695 7.93775 0.296203M8.73324 11.5622L7.99082 0.349204M8.73324 11.5622V14.9126C8.73324 15.1009 8.6197 15.2707 8.44569 15.3428L8.44554 15.3428C8.27133 15.4146 8.07156 15.3753 7.93798 15.2418L7.93796 15.2418L0.795601 8.09791L0.795588 8.0979C0.613825 7.91601 0.614042 7.62137 0.795809 7.4397M8.73324 11.5622L0.795809 7.4397M7.93775 0.296203L7.99082 0.349204M7.93775 0.296203L7.93778 0.296177L7.99082 0.349204M7.93775 0.296203L0.795832 7.43967L0.848848 7.49272M7.99082 0.349204L0.848848 7.49272M0.848848 7.49272L0.795809 7.4397M0.848848 7.49272L0.795809 7.4397M8.65824 4.06679V4.06678V4.06679ZM8.26734 4.91673C8.01011 4.91673 7.80148 4.70831 7.80148 4.45112V1.75027L3.68026 5.87386C3.67887 5.87536 3.67746 5.87677 3.67603 5.87809L1.78378 7.76913L7.80148 13.7885V11.0867C7.80148 10.8295 8.01011 10.6211 8.26734 10.6211C13.0352 10.6211 17.3589 13.4814 19.28 17.743C19.3658 17.1833 19.4089 16.6178 19.4089 16.0511C19.4089 9.91166 14.4108 4.91673 8.26734 4.91673Z" fill="black" stroke="black" stroke-width="0.15"/>
</svg>
