<svg width="28" height="23" viewBox="0 0 28 23" fill="none" xmlns="http://www.w3.org/2000/svg">
<path d="M25.325 10.7792L15.9917 3.14288C15.8285 3.00938 15.6207 2.91847 15.3944 2.88163C15.1681 2.84479 14.9335 2.86369 14.7203 2.93592C14.5072 3.00816 14.325 3.1305 14.1968 3.28746C14.0686 3.44442 14.0002 3.62896 14.0002 3.81774V7.20153C10.8132 7.44289 7.85096 8.64857 5.69318 10.5826C3.5354 12.5167 2.33736 15.04 2.3335 17.6587V19.0905C2.33348 19.2887 2.40889 19.482 2.54927 19.6436C2.68965 19.8052 2.88803 19.927 3.11687 19.9921C3.34571 20.0572 3.59366 20.0625 3.82629 20.007C4.05892 19.9516 4.26469 19.8383 4.41504 19.6829C5.55796 18.5708 6.9603 17.6562 8.54012 16.9925C10.12 16.3288 11.8456 15.9294 13.6162 15.8176C13.6743 15.8116 13.8201 15.8022 14.0002 15.7929V19.0905C14.0002 19.2793 14.0686 19.4638 14.1968 19.6208C14.325 19.7777 14.5072 19.9001 14.7203 19.9723C14.9335 20.0445 15.1681 20.0634 15.3944 20.0266C15.6207 19.9897 15.8285 19.8988 15.9917 19.7653L25.325 12.129C25.4333 12.0404 25.5193 11.9352 25.5779 11.8194C25.6366 11.7036 25.6668 11.5795 25.6668 11.4541C25.6668 11.3288 25.6366 11.2047 25.5779 11.0889C25.5193 10.9731 25.4333 10.8679 25.325 10.7792ZM16.3335 16.7861V14.795C16.3335 14.6697 16.3034 14.5455 16.2448 14.4297C16.1862 14.3139 16.1002 14.2086 15.9919 14.12C15.8835 14.0313 15.7549 13.961 15.6133 13.9131C15.4718 13.8651 15.3201 13.8404 15.1668 13.8405C14.8695 13.8405 13.6549 13.8876 13.3451 13.9216C10.2004 14.1586 7.20708 15.1361 4.72722 16.7358C5.00854 14.6304 6.22921 12.6839 8.15547 11.269C10.0817 9.85412 12.5782 9.07034 15.1668 9.06774C15.3201 9.06778 15.4718 9.04311 15.6133 8.99515C15.7549 8.94719 15.8835 8.87688 15.9919 8.78824C16.1002 8.69959 16.1862 8.59435 16.2448 8.47853C16.3034 8.3627 16.3335 8.23856 16.3335 8.1132V6.12207L22.8504 11.4541L16.3335 16.7861Z" fill="black"/>
</svg>
