<?xml version="1.0" encoding="utf-8"?>
<!-- Generator: Adobe Illustrator 27.4.1, SVG Export Plug-In . SVG Version: 6.00 Build 0)  -->
<svg version="1.1" id="Layer_1" xmlns="http://www.w3.org/2000/svg" xmlns:xlink="http://www.w3.org/1999/xlink" x="0px" y="0px"
	 viewBox="0 0 24 24" style="enable-background:new 0 0 24 24;" xml:space="preserve">
<style type="text/css">
	.st0{fill:#FFFFFF;}
</style>
<path class="st0" d="M5,10h10c0.6,0,1,0.4,1,1s-0.4,1-1,1H5c-0.6,0-1-0.4-1-1S4.4,10,5,10z M5,6h10c0.6,0,1,0.4,1,1s-0.4,1-1,1H5
	C4.4,8,4,7.6,4,7S4.4,6,5,6z M5,14h6c0.6,0,1,0.4,1,1s-0.4,1-1,1H5c-0.6,0-1-0.4-1-1S4.4,14,5,14z M14,14.9v4.2
	c0,0.4,0.4,0.6,0.8,0.4l3.5-2.1c0.3-0.2,0.3-0.7,0-0.9l-3.5-2.1c-0.2-0.1-0.6-0.1-0.7,0.2C14,14.7,14,14.8,14,14.9z"/>
</svg>
