<svg width="30" height="30" viewBox="0 0 30 30" fill="none" xmlns="http://www.w3.org/2000/svg">
<path d="M24.568 7.50977C24.562 7.50952 24.5559 7.50963 24.5499 7.51011C22.1747 7.40962 20.6284 7.19734 19.3046 6.65472C17.9892 6.11557 16.8517 5.23161 15.3048 3.75985C15.289 3.74291 15.272 3.72693 15.2536 3.71205L15.2536 3.71203C15.0385 3.53754 14.7226 3.5705 14.5481 3.7856C14.5443 3.79036 14.5408 3.79528 14.5376 3.80033C13.3477 5.26268 12.0511 6.14438 10.5818 6.6817L10.6333 6.82257L10.5818 6.6817C9.09272 7.22623 7.40923 7.42635 5.46301 7.50947C5.45952 7.50939 5.45568 7.50933 5.45164 7.50933C5.17466 7.50933 4.9501 7.73388 4.9501 8.01087V17.2625C4.9501 17.2686 4.95046 17.2747 4.95118 17.2806C4.95052 17.4947 4.98936 18.981 6.16534 20.7851C7.39552 22.6725 9.85918 24.891 14.781 26.3696C14.8505 26.3944 14.9251 26.4038 14.9992 26.3965C15.0626 26.4028 15.1282 26.3971 15.1926 26.3778C15.1965 26.3766 15.2004 26.3753 15.2041 26.3738C19.9899 24.9388 22.4548 22.8047 23.7217 20.9528C24.9799 19.1135 25.0459 17.5678 25.0474 17.2965C25.0482 17.2853 25.0486 17.2739 25.0486 17.2625V8.01087C25.0486 8.00905 25.0485 8.00723 25.0485 8.00542C25.0458 7.74035 24.8359 7.52103 24.568 7.50977ZM24.0455 17.265C24.0456 17.2773 24.0461 17.2896 24.0471 17.3017C24.0454 17.514 23.9885 18.8476 22.857 20.4628C21.7171 22.09 19.4762 24.0177 15.0649 25.3681C15.0212 25.3624 14.9771 25.3625 14.9339 25.3682C10.3506 23.9651 8.11002 21.9387 7.01301 20.2732C5.98488 18.7123 5.95141 17.4535 5.95159 17.2895C5.95262 17.2825 5.95316 17.2753 5.95319 17.2682L5.95322 17.2635C5.95322 17.2632 5.95322 17.2628 5.95322 17.2625V8.48799C7.79187 8.3895 9.43215 8.1681 10.9238 7.62262C12.423 7.07437 13.7579 6.20626 14.9785 4.8275C16.4203 6.16741 17.5713 7.0259 18.9244 7.5805C20.2936 8.1417 21.8327 8.3754 24.0455 8.48858V17.2625C24.0455 17.2633 24.0455 17.2641 24.0455 17.265Z" fill="black" stroke="black" stroke-width="0.3" stroke-linejoin="round"/>
<path d="M10.5101 15.9058C10.4531 15.8457 10.3582 15.8432 10.2981 15.9002L9.78839 16.3836C9.75951 16.411 9.74269 16.4487 9.74165 16.4885C9.74061 16.5283 9.75542 16.5669 9.78283 16.5957L12.103 19.039L12.103 19.039L12.1039 19.0399L12.3544 19.2992C12.3825 19.3282 12.4212 19.3448 12.4616 19.3449C12.5021 19.3451 12.5409 19.3289 12.5693 19.3001L12.8188 19.0462L12.8197 19.0452L20.2056 11.6637C20.2641 11.6053 20.2643 11.5107 20.2061 11.452L19.7096 10.951C19.6815 10.9227 19.6433 10.9067 19.6034 10.9066C19.5635 10.9066 19.5252 10.9224 19.497 10.9506L12.4738 17.9737L10.5101 15.9058Z" fill="black" stroke="black" stroke-width="0.3" stroke-linejoin="round"/>
</svg>
