<svg width="25" height="25" viewBox="0 0 25 25" fill="none" xmlns="http://www.w3.org/2000/svg">
<path d="M11.836 16.1371C11.8798 16.3123 11.8798 16.4875 11.8798 16.6626C11.8798 17.6261 11.5295 18.5019 10.8288 19.1588L9.42745 20.5602C8.77056 21.217 7.85092 21.6112 6.93128 21.6112C4.96062 21.6112 3.38409 20.0347 3.38409 18.064C3.38409 17.1006 3.73443 16.2247 4.43511 15.5678L5.83647 14.1665C6.49335 13.5096 7.413 13.1154 8.37643 13.1154C8.5516 13.1154 8.72677 13.1592 8.90194 13.1592L9.99675 12.0644C9.47124 11.8893 8.94573 11.8017 8.37643 11.8017C7.06266 11.8017 5.83647 12.3272 4.91682 13.2468L3.51546 14.6482C2.59582 15.5678 2.07031 16.794 2.07031 18.1078C2.07031 20.7791 4.25994 22.9687 6.93128 22.9687C8.24505 22.9687 9.47124 22.4432 10.3909 21.5236L11.7922 20.1222C12.7119 19.2026 13.2374 17.9764 13.2374 16.6626C13.2374 16.0933 13.1498 15.5678 12.9746 15.0423L11.836 16.1371Z" fill="white"/>
<path d="M18.1422 1.99216C16.8284 1.99216 15.6022 2.51766 14.6826 3.4373L13.2812 4.83867C12.3616 5.75831 11.8361 6.9845 11.8361 8.29827C11.8361 8.86757 11.9236 9.39309 12.0988 9.9186L13.1936 8.82379C13.1498 8.64862 13.1498 8.47344 13.1498 8.29827C13.1498 7.33484 13.5002 6.459 14.2009 5.80211L15.6022 4.40074C16.2591 3.74386 17.1787 3.34973 18.1422 3.34973C20.1128 3.34973 21.6894 4.92626 21.6894 6.89692C21.6894 7.86036 21.339 8.7362 20.6383 9.39308L19.237 10.7944C18.5801 11.4513 17.6605 11.8455 16.7408 11.8455C16.5656 11.8455 16.3905 11.8017 16.2153 11.8017L15.1205 12.8527C15.646 13.0279 16.1715 13.1154 16.7408 13.1154C18.0546 13.1154 19.2808 12.5899 20.2004 11.6703L21.6018 10.2689C22.5214 9.34929 23.0469 8.1231 23.0469 6.80933C23.0031 4.18178 20.8135 1.99216 18.1422 1.99216Z" fill="white"/>
<path d="M9.03328 16.6626C8.85811 16.6626 8.68294 16.575 8.55156 16.4437C8.2888 16.1809 8.2888 15.743 8.55156 15.4364L15.5584 8.42964C15.8211 8.16689 16.259 8.16689 16.5656 8.42964C16.8283 8.6924 16.8283 9.13032 16.5656 9.43686L9.55879 16.4437C9.38362 16.6188 9.20845 16.6626 9.03328 16.6626Z" fill="white"/>
</svg>
