<svg width="25" height="26" viewBox="0 0 25 26" fill="none" xmlns="http://www.w3.org/2000/svg">
<path d="M12.4609 23.5853C6.63647 23.5853 1.87524 18.8241 1.87524 12.9997C1.87524 7.17528 6.63647 2.41406 12.4609 2.41406C18.2853 2.41406 23.0465 7.17528 23.0465 12.9997C23.0927 18.8241 18.3315 23.5853 12.4609 23.5853ZM12.4609 3.52347C7.2374 3.52347 3.03088 7.77621 3.03088 12.9535C3.03088 18.1307 7.28362 22.3835 12.4609 22.3835C17.6381 22.3835 21.8909 18.1307 21.8909 12.9535C21.8909 7.77621 17.6844 3.52347 12.4609 3.52347Z" fill="black"/>
<path d="M15.789 18.4076L11.8599 14.4784V7.31348H13.1079V13.9699L16.6673 17.5293L15.789 18.4076Z" fill="black"/>
</svg>
