<svg width="30" height="30" viewBox="0 0 30 30" fill="none" xmlns="http://www.w3.org/2000/svg">
<path fill-rule="evenodd" clip-rule="evenodd" d="M13.7875 3.23777C14.1262 2.95059 14.5559 2.79297 15 2.79297C15.4441 2.79297 15.8738 2.95059 16.2125 3.23777L25.5875 11.1915C25.7951 11.3675 25.9619 11.5866 26.0763 11.8335C26.1908 12.0805 26.25 12.3494 26.25 12.6216V24.3753C26.25 24.8726 26.0525 25.3494 25.7009 25.7011C25.3492 26.0527 24.8722 26.2503 24.375 26.2503H17.1875C16.9389 26.2503 16.7004 26.1516 16.5246 25.9757C16.3487 25.7998 16.25 25.5614 16.25 25.3128V17.5003H13.75V25.3128C13.75 25.5614 13.6513 25.7998 13.4754 25.9757C13.2996 26.1516 13.0611 26.2503 12.8125 26.2503H5.625C5.12773 26.2503 4.6508 26.0527 4.29918 25.7011C3.94755 25.3494 3.75 24.8726 3.75 24.3753V12.6216C3.75 12.0715 3.9925 11.5478 4.4125 11.1915L13.7875 3.23777ZM15 4.66777L5.625 12.6216V24.3753H11.875V16.5628C11.875 16.3142 11.9738 16.0757 12.1496 15.8998C12.3254 15.7241 12.5639 15.6253 12.8125 15.6253H17.1875C17.4361 15.6253 17.6746 15.7241 17.8504 15.8998C18.0263 16.0757 18.125 16.3142 18.125 16.5628V24.3753H24.375V12.6216L15 4.66777Z" fill="black"/>
<path fill-rule="evenodd" clip-rule="evenodd" d="M13.7875 3.23777C14.1262 2.95059 14.5559 2.79297 15 2.79297C15.4441 2.79297 15.8738 2.95059 16.2125 3.23777L25.5875 11.1915C25.7951 11.3675 25.9619 11.5866 26.0763 11.8335C26.1908 12.0805 26.25 12.3494 26.25 12.6216V24.3753C26.25 24.8726 26.0525 25.3494 25.7009 25.7011C25.3492 26.0527 24.8722 26.2503 24.375 26.2503H17.1875C16.9389 26.2503 16.7004 26.1516 16.5246 25.9757C16.3487 25.7998 16.25 25.5614 16.25 25.3128V17.5003H13.75V25.3128C13.75 25.5614 13.6513 25.7998 13.4754 25.9757C13.2996 26.1516 13.0611 26.2503 12.8125 26.2503H5.625C5.12773 26.2503 4.6508 26.0527 4.29918 25.7011C3.94755 25.3494 3.75 24.8726 3.75 24.3753V12.6216C3.75 12.0715 3.9925 11.5478 4.4125 11.1915L13.7875 3.23777ZM15 4.66777L5.625 12.6216V24.3753H11.875V16.5628C11.875 16.3142 11.9738 16.0757 12.1496 15.8998C12.3254 15.7241 12.5639 15.6253 12.8125 15.6253H17.1875C17.4361 15.6253 17.6746 15.7241 17.8504 15.8998C18.0263 16.0757 18.125 16.3142 18.125 16.5628V24.3753H24.375V12.6216L15 4.66777Z" fill="black" fill-opacity="0.6"/>
<path fill-rule="evenodd" clip-rule="evenodd" d="M13.7875 3.23777C14.1262 2.95059 14.5559 2.79297 15 2.79297C15.4441 2.79297 15.8738 2.95059 16.2125 3.23777L25.5875 11.1915C25.7951 11.3675 25.9619 11.5866 26.0763 11.8335C26.1908 12.0805 26.25 12.3494 26.25 12.6216V24.3753C26.25 24.8726 26.0525 25.3494 25.7009 25.7011C25.3492 26.0527 24.8722 26.2503 24.375 26.2503H17.1875C16.9389 26.2503 16.7004 26.1516 16.5246 25.9757C16.3487 25.7998 16.25 25.5614 16.25 25.3128V17.5003H13.75V25.3128C13.75 25.5614 13.6513 25.7998 13.4754 25.9757C13.2996 26.1516 13.0611 26.2503 12.8125 26.2503H5.625C5.12773 26.2503 4.6508 26.0527 4.29918 25.7011C3.94755 25.3494 3.75 24.8726 3.75 24.3753V12.6216C3.75 12.0715 3.9925 11.5478 4.4125 11.1915L13.7875 3.23777ZM15 4.66777L5.625 12.6216V24.3753H11.875V16.5628C11.875 16.3142 11.9738 16.0757 12.1496 15.8998C12.3254 15.7241 12.5639 15.6253 12.8125 15.6253H17.1875C17.4361 15.6253 17.6746 15.7241 17.8504 15.8998C18.0263 16.0757 18.125 16.3142 18.125 16.5628V24.3753H24.375V12.6216L15 4.66777Z" fill="black" fill-opacity="0.4"/>
<rect x="5" y="12" width="8" height="13" fill="black"/>
<rect x="5" y="12" width="19" height="4" fill="black"/>
<rect x="17" y="12" width="8" height="13" fill="black"/>
<path d="M15 4L25.3923 13H4.6077L15 4Z" fill="black"/>
</svg>
