<svg width="29" height="28" viewBox="0 0 29 28" fill="none" xmlns="http://www.w3.org/2000/svg">
<path d="M5.97742 27.7185H4.4854L5.38061 26.4652C6.03711 25.5103 6.51455 24.3764 6.75327 22.8844C2.51592 20.9746 0.248047 17.3937 0.248047 12.6789C0.248047 5.45752 5.67903 0.981445 14.4521 0.981445C23.2252 0.981445 28.6562 5.45752 28.6562 12.6789C28.6562 19.96 23.3446 24.3764 14.4521 24.3764C14.2731 24.3764 14.0344 24.3764 13.8553 24.3764C12.423 25.9281 10.0357 27.7185 5.97742 27.7185ZM14.3328 2.53315C6.39519 2.53315 1.68039 6.29306 1.68039 12.6789C1.68039 18.1099 5.02253 20.5568 7.76785 21.6907L8.30498 21.9295L8.24529 22.5263C8.06625 23.8989 7.76786 25.0926 7.29041 26.1071C10.1551 25.7491 11.8262 24.3167 12.7214 23.1231L12.9601 22.8247H13.4972C13.736 22.8247 14.0344 22.8247 14.2731 22.8247C25.6721 22.8247 26.9255 15.7227 26.9255 12.6789C26.9851 6.35274 22.2703 2.53315 14.3328 2.53315Z" fill="#BBBBBB"/>
</svg>
