<svg width="30" height="30" viewBox="0 0 30 30" fill="none" xmlns="http://www.w3.org/2000/svg">
<path d="M23.9062 3.75H6.09375C5.22427 3.75247 4.39111 4.09897 3.77629 4.71379C3.16147 5.32861 2.81497 6.16177 2.8125 7.03125V18.2812C2.81497 19.1507 3.16147 19.9839 3.77629 20.5987C4.39111 21.2135 5.22427 21.56 6.09375 21.5625H8.4375V26.25L13.9289 21.6715C14.0132 21.6011 14.1196 21.5625 14.2295 21.5625H23.9062C24.7757 21.56 25.6089 21.2135 26.2237 20.5987C26.8385 19.9839 27.185 19.1507 27.1875 18.2812V7.03125C27.185 6.16177 26.8385 5.32861 26.2237 4.71379C25.6089 4.09897 24.7757 3.75247 23.9062 3.75Z" stroke="white" stroke-width="2.5" stroke-linejoin="round"/>
<path d="M23.9062 3.75H6.09375C5.22427 3.75247 4.39111 4.09897 3.77629 4.71379C3.16147 5.32861 2.81497 6.16177 2.8125 7.03125V18.2812C2.81497 19.1507 3.16147 19.9839 3.77629 20.5987C4.39111 21.2135 5.22427 21.56 6.09375 21.5625H8.4375V26.25L13.9289 21.6715C14.0132 21.6011 14.1196 21.5625 14.2295 21.5625H23.9062C24.7757 21.56 25.6089 21.2135 26.2237 20.5987C26.8385 19.9839 27.185 19.1507 27.1875 18.2812V7.03125C27.185 6.16177 26.8385 5.32861 26.2237 4.71379C25.6089 4.09897 24.7757 3.75247 23.9062 3.75Z" stroke="white" stroke-opacity="0.6" stroke-width="2.5" stroke-linejoin="round"/>
<path d="M23.9062 3.75H6.09375C5.22427 3.75247 4.39111 4.09897 3.77629 4.71379C3.16147 5.32861 2.81497 6.16177 2.8125 7.03125V18.2812C2.81497 19.1507 3.16147 19.9839 3.77629 20.5987C4.39111 21.2135 5.22427 21.56 6.09375 21.5625H8.4375V26.25L13.9289 21.6715C14.0132 21.6011 14.1196 21.5625 14.2295 21.5625H23.9062C24.7757 21.56 25.6089 21.2135 26.2237 20.5987C26.8385 19.9839 27.185 19.1507 27.1875 18.2812V7.03125C27.185 6.16177 26.8385 5.32861 26.2237 4.71379C25.6089 4.09897 24.7757 3.75247 23.9062 3.75Z" stroke="white" stroke-opacity="0.4" stroke-width="2.5" stroke-linejoin="round"/>
<path d="M9.375 14.5312C10.4105 14.5312 11.25 13.6918 11.25 12.6562C11.25 11.6207 10.4105 10.7812 9.375 10.7812C8.33947 10.7812 7.5 11.6207 7.5 12.6562C7.5 13.6918 8.33947 14.5312 9.375 14.5312Z" fill="white"/>
<path d="M9.375 14.5312C10.4105 14.5312 11.25 13.6918 11.25 12.6562C11.25 11.6207 10.4105 10.7812 9.375 10.7812C8.33947 10.7812 7.5 11.6207 7.5 12.6562C7.5 13.6918 8.33947 14.5312 9.375 14.5312Z" fill="white" fill-opacity="0.6"/>
<path d="M9.375 14.5312C10.4105 14.5312 11.25 13.6918 11.25 12.6562C11.25 11.6207 10.4105 10.7812 9.375 10.7812C8.33947 10.7812 7.5 11.6207 7.5 12.6562C7.5 13.6918 8.33947 14.5312 9.375 14.5312Z" fill="white" fill-opacity="0.4"/>
<path d="M15 14.5312C16.0355 14.5312 16.875 13.6918 16.875 12.6562C16.875 11.6207 16.0355 10.7812 15 10.7812C13.9645 10.7812 13.125 11.6207 13.125 12.6562C13.125 13.6918 13.9645 14.5312 15 14.5312Z" fill="white"/>
<path d="M15 14.5312C16.0355 14.5312 16.875 13.6918 16.875 12.6562C16.875 11.6207 16.0355 10.7812 15 10.7812C13.9645 10.7812 13.125 11.6207 13.125 12.6562C13.125 13.6918 13.9645 14.5312 15 14.5312Z" fill="white" fill-opacity="0.6"/>
<path d="M15 14.5312C16.0355 14.5312 16.875 13.6918 16.875 12.6562C16.875 11.6207 16.0355 10.7812 15 10.7812C13.9645 10.7812 13.125 11.6207 13.125 12.6562C13.125 13.6918 13.9645 14.5312 15 14.5312Z" fill="white" fill-opacity="0.4"/>
<path d="M20.625 14.5312C21.6605 14.5312 22.5 13.6918 22.5 12.6562C22.5 11.6207 21.6605 10.7812 20.625 10.7812C19.5895 10.7812 18.75 11.6207 18.75 12.6562C18.75 13.6918 19.5895 14.5312 20.625 14.5312Z" fill="white"/>
<path d="M20.625 14.5312C21.6605 14.5312 22.5 13.6918 22.5 12.6562C22.5 11.6207 21.6605 10.7812 20.625 10.7812C19.5895 10.7812 18.75 11.6207 18.75 12.6562C18.75 13.6918 19.5895 14.5312 20.625 14.5312Z" fill="white" fill-opacity="0.6"/>
<path d="M20.625 14.5312C21.6605 14.5312 22.5 13.6918 22.5 12.6562C22.5 11.6207 21.6605 10.7812 20.625 10.7812C19.5895 10.7812 18.75 11.6207 18.75 12.6562C18.75 13.6918 19.5895 14.5312 20.625 14.5312Z" fill="white" fill-opacity="0.4"/>
</svg>
