<svg width="33" height="33" viewBox="0 0 33 33" fill="none" xmlns="http://www.w3.org/2000/svg">
<path d="M7.97742 29.8845H6.4854L7.38061 28.6283C8.03711 27.6712 8.51455 26.5346 8.75327 25.0391C4.51592 23.1249 2.24805 19.5358 2.24805 14.8101C2.24805 7.572 7.67903 3.08557 16.4521 3.08557C25.2252 3.08557 30.6562 7.572 30.6562 14.8101C30.6562 22.108 25.3446 26.5346 16.4521 26.5346C16.2731 26.5346 16.0344 26.5346 15.8553 26.5346C14.423 28.0899 12.0357 29.8845 7.97742 29.8845ZM16.3328 4.64087C8.39519 4.64087 3.68039 8.40946 3.68039 14.8101C3.68039 20.2536 7.02253 22.7062 9.76785 23.8427L10.305 24.082L10.2453 24.6802C10.0663 26.0561 9.76786 27.2524 9.29041 28.2694C12.1551 27.9104 13.8262 26.4748 14.7214 25.2784L14.9601 24.9793H15.4972C15.736 24.9793 16.0344 24.9793 16.2731 24.9793C27.6721 24.9793 28.9255 17.8609 28.9255 14.8101C28.9851 8.46928 24.2703 4.64087 16.3328 4.64087Z" fill="#BBBBBB"/>
</svg>
