<?xml version="1.0" encoding="utf-8"?>
<!-- Generator: Adobe Illustrator 27.4.1, SVG Export Plug-In . SVG Version: 6.00 Build 0)  -->
<svg version="1.1" id="Layer_1" xmlns="http://www.w3.org/2000/svg" xmlns:xlink="http://www.w3.org/1999/xlink" x="0px" y="0px"
	 viewBox="0 0 33 33" style="enable-background:new 0 0 33 33;" xml:space="preserve">
<style type="text/css">
	.st0{fill:#FFFFFF;}
</style>
<path class="st0" d="M8,29.9H6.5l0.9-1.3c0.7-1,1.1-2.1,1.4-3.6c-4.2-1.9-6.5-5.5-6.5-10.2c0-7.2,5.4-11.7,14.2-11.7
	c8.8,0,14.2,4.5,14.2,11.7c0,7.3-5.3,11.7-14.2,11.7c-0.2,0-0.4,0-0.6,0C14.4,28.1,12,29.9,8,29.9z M16.3,4.6
	C8.4,4.6,3.7,8.4,3.7,14.8c0,5.4,3.3,7.9,6.1,9l0.5,0.2l-0.1,0.6c-0.2,1.4-0.5,2.6-1,3.6c2.9-0.4,4.5-1.8,5.4-3L15,25h0.5
	c0.2,0,0.5,0,0.8,0c11.4,0,12.7-7.1,12.7-10.2C29,8.5,24.3,4.6,16.3,4.6z"/>
</svg>
