<svg width="25" height="26" viewBox="0 0 25 26" fill="none" xmlns="http://www.w3.org/2000/svg">
<path d="M20.1994 13.873L20.1996 13.8731C21.6752 14.1551 22.7396 15.449 22.7312 16.9506V16.9505H22.6562L22.7312 16.9509L20.1994 13.873ZM20.1994 13.873C20.0006 13.8356 19.8025 13.7923 19.6052 13.745C19.1913 13.6435 18.7838 13.5176 18.3849 13.368C17.3836 12.9898 16.2572 13.417 15.759 14.3639L15.7589 14.3641L15.0321 15.7592C13.9369 15.1299 12.9301 14.3579 12.038 13.4636C11.1458 12.5686 10.3761 11.5597 9.7488 10.4631M20.1994 13.873L9.7488 10.4631M9.7488 10.4631L11.1358 9.74162L11.1361 9.74147C12.0835 9.24337 12.511 8.11772 12.133 7.11671C11.9829 6.71738 11.8567 6.30949 11.7553 5.89515C11.7553 5.89514 11.7553 5.89514 11.7553 5.89513L11.6824 5.91297M9.7488 10.4631L5.4249 2.76879L5.4249 2.84379M11.6824 5.91297C11.634 5.71501 11.5912 5.51544 11.554 5.3142C11.2786 3.87453 10.0151 2.83593 8.54871 2.84379M11.6824 5.91297C11.7846 6.33026 11.9116 6.74104 12.0628 7.14321L11.6824 5.91297ZM8.54871 2.84379V2.76879H8.54851C8.54844 2.76879 8.54837 2.7688 8.54831 2.7688L8.54871 2.84379ZM8.54871 2.84379H5.4249M5.4249 2.84379V2.76879C4.50353 2.76873 3.62806 3.17075 3.02781 3.86945M5.4249 2.84379C4.52535 2.84373 3.67063 3.23624 3.08464 3.9184M3.08464 3.9184L3.02788 3.86938C3.02786 3.8694 3.02784 3.86943 3.02781 3.86945M3.08464 3.9184C2.50398 4.59065 2.24573 5.48273 2.37745 6.36105M3.08464 3.9184L3.02775 3.86953C3.02777 3.8695 3.02779 3.86948 3.02781 3.86945M3.02781 3.86945L2.37745 6.36105M2.37745 6.36105C3.72996 14.9919 10.5008 21.7639 19.1352 23.1216C19.2855 23.1444 19.4374 23.156 19.5894 23.1562L2.37745 6.36105ZM10.5968 8.70853C11.0222 8.48322 11.2131 7.97652 11.0421 7.52676L11.042 7.52647C10.8756 7.08354 10.7356 6.6312 10.6228 6.17175L10.6227 6.17151C10.5699 5.95339 10.522 5.73303 10.4816 5.51246M10.5968 8.70853L19.3464 14.8033M10.5968 8.70853C10.5967 8.70858 10.5966 8.70862 10.5966 8.70866L8.68376 9.70372C8.39848 9.85212 8.28738 10.2035 8.43558 10.4888L8.50215 10.4543M10.5968 8.70853L8.4356 10.4888M10.4816 5.51246C10.4815 5.51235 10.4815 5.51223 10.4815 5.51212L10.5553 5.49859L10.4817 5.51291C10.4816 5.51276 10.4816 5.51261 10.4816 5.51246ZM10.4816 5.51246C10.3019 4.58987 9.48978 3.92634 8.54931 3.93392L8.54871 3.93392L5.4249 3.93392H5.42488C4.84311 3.9338 4.29032 4.18788 3.91174 4.62943L3.91152 4.62969C3.53796 5.06135 3.3717 5.63461 3.45633 6.199M3.45633 6.199C3.45631 6.19892 3.4563 6.19884 3.45629 6.19876L3.38219 6.21037L3.45636 6.19924C3.45635 6.19916 3.45634 6.19908 3.45633 6.199ZM3.45633 6.199C4.73517 14.3585 11.1364 20.7606 19.2992 22.0442C19.8636 22.1274 20.4364 21.9611 20.8685 21.5886L20.8687 21.5885C21.3107 21.2098 21.5653 20.657 21.5655 20.0752C21.5655 20.0752 21.5655 20.0752 21.5655 20.0751V16.9505V16.9499C21.5731 16.0094 20.9087 15.1971 19.9849 15.0177C19.7639 14.9759 19.5454 14.93 19.3285 14.8761M19.3285 14.8761C19.3284 14.8761 19.3284 14.8761 19.3283 14.876L19.3464 14.8033M19.3285 14.8761C19.3286 14.8761 19.3286 14.8761 19.3287 14.8761L19.3464 14.8033M19.3285 14.8761C18.869 14.7642 18.4167 14.6246 17.9741 14.4581L17.9739 14.458C17.5241 14.2875 17.0178 14.4781 16.7923 14.9026L16.7925 14.9023L16.726 14.8677M19.3464 14.8033C18.8898 14.692 18.4404 14.5533 18.0005 14.3879C17.5153 14.2039 16.9691 14.4096 16.726 14.8677M16.726 14.8677L15.7242 16.7909M16.726 14.8677L15.7242 16.7909M15.7242 16.7909C15.6619 16.91 15.5549 16.9995 15.4266 17.0397C15.2978 17.0791 15.1589 17.067 15.0388 17.006C13.6466 16.2798 12.3741 15.3443 11.2659 14.2323C10.157 13.1213 9.22502 11.8472 8.50215 10.4543M15.7242 16.7909L8.71837 9.77025C8.46979 9.89956 8.37303 10.2057 8.50215 10.4543M8.50215 10.4543L8.4356 10.4888M8.4356 10.4888C9.16199 11.8886 10.0986 13.1689 11.2128 14.2852C12.3264 15.4027 13.6051 16.3427 15.0042 17.0725L15.0048 17.0729C15.1422 17.1427 15.3012 17.1565 15.4485 17.1114L15.449 17.1113C15.5963 17.0651 15.7192 16.9623 15.7907 16.8257L15.7907 16.8255L16.7922 14.9029L8.4356 10.4888ZM21.6289 22.4727C21.6289 22.4726 21.629 22.4726 21.629 22.4725L21.58 22.4157L21.6289 22.4727Z" fill="black" stroke="black" stroke-width="0.15"/>
</svg>
