<svg width="32" height="31" viewBox="0 0 32 31" fill="none" xmlns="http://www.w3.org/2000/svg">
<path fill-rule="evenodd" clip-rule="evenodd" d="M21.7661 19.2441L28.9389 26.1927C29.464 26.7014 29.464 27.5261 28.9389 28.0348C28.4138 28.5435 27.5624 28.5435 27.0373 28.0348L19.8646 21.0862C18.0598 22.4424 15.7936 23.2497 13.3327 23.2497C7.44164 23.2497 2.66602 18.6233 2.66602 12.9163C2.66602 7.2094 7.44164 2.58301 13.3327 2.58301C19.2237 2.58301 23.9993 7.2094 23.9993 12.9163C23.9993 15.3003 23.166 17.4957 21.7661 19.2441ZM13.3327 20.6663C17.751 20.6663 21.3327 17.1965 21.3327 12.9163C21.3327 8.63613 17.751 5.16634 13.3327 5.16634C8.9144 5.16634 5.33268 8.63613 5.33268 12.9163C5.33268 17.1965 8.9144 20.6663 13.3327 20.6663Z" fill="black"/>
</svg>
