<svg width="25" height="25" viewBox="0 0 25 25" fill="none" xmlns="http://www.w3.org/2000/svg">
<path d="M18.0859 11.2109H16.9141V8.71093C16.9141 6.28906 14.9219 4.29688 12.5 4.29688C10.0781 4.29688 8.08594 6.28906 8.08594 8.71093V11.2109H6.91406V8.71093C6.91406 5.625 9.41406 3.125 12.5 3.125C15.5859 3.125 18.0859 5.625 18.0859 8.71093V11.2109Z" fill="white"/>
<path d="M17.5 21.8359H7.50001C6.48438 21.8359 5.625 20.9766 5.625 19.9609V12.4609C5.625 11.4453 6.48438 10.5859 7.50001 10.5859H17.5C18.5156 10.5859 19.375 11.4453 19.375 12.4609V19.9609C19.375 21.0156 18.5156 21.8359 17.5 21.8359ZM7.50001 11.8359C7.14844 11.8359 6.875 12.1094 6.875 12.4609V19.9609C6.875 20.3125 7.14844 20.5859 7.50001 20.5859H17.5C17.8516 20.5859 18.125 20.3125 18.125 19.9609V12.4609C18.125 12.1094 17.8516 11.8359 17.5 11.8359H7.50001Z" fill="white"/>
<path d="M13.75 14.3359C13.75 15.0391 13.2031 15.5859 12.5 15.5859C11.7969 15.5859 11.25 15.0391 11.25 14.3359C11.25 13.6328 11.7969 13.0859 12.5 13.0859C13.2031 13.0859 13.75 13.6719 13.75 14.3359Z" fill="white"/>
<path d="M12.8125 14.3359H12.1875L11.5625 18.0859H13.4375L12.8125 14.3359Z" fill="white"/>
</svg>
