<svg width="18" height="18" viewBox="0 0 18 18" fill="none" xmlns="http://www.w3.org/2000/svg">
<g clip-path="url(#clip0_166_21311)">
<path d="M9 0C7.21997 0 5.47991 0.527841 3.99987 1.51677C2.51983 2.50571 1.36628 3.91131 0.685088 5.55585C0.00389957 7.20038 -0.17433 9.00998 0.172937 10.7558C0.520204 12.5016 1.37737 14.1053 2.63604 15.364C3.89472 16.6226 5.49836 17.4798 7.24419 17.8271C8.99002 18.1743 10.7996 17.9961 12.4442 17.3149C14.0887 16.6337 15.4943 15.4802 16.4832 14.0001C17.4722 12.5201 18 10.78 18 9C17.9974 6.61384 17.0484 4.32616 15.3611 2.63889C13.6738 0.951621 11.3862 0.00258081 9 0ZM9 16.5C7.51664 16.5 6.0666 16.0601 4.83323 15.236C3.59986 14.4119 2.63856 13.2406 2.07091 11.8701C1.50325 10.4997 1.35473 8.99168 1.64411 7.53682C1.9335 6.08197 2.64781 4.74559 3.6967 3.6967C4.7456 2.64781 6.08197 1.9335 7.53683 1.64411C8.99168 1.35472 10.4997 1.50325 11.8701 2.0709C13.2406 2.63856 14.4119 3.59985 15.236 4.83322C16.0601 6.06659 16.5 7.51664 16.5 9C16.4978 10.9885 15.7069 12.8948 14.3009 14.3009C12.8948 15.7069 10.9885 16.4978 9 16.5Z" fill="black"/>
<path d="M13.1362 10.6072L9.75 8.5755V4.5C9.75 4.30109 9.67098 4.11032 9.53033 3.96967C9.38968 3.82902 9.19891 3.75 9 3.75C8.80109 3.75 8.61032 3.82902 8.46967 3.96967C8.32902 4.11032 8.25 4.30109 8.25 4.5V9C8.25504 9.12837 8.29068 9.25367 8.35395 9.36547C8.41722 9.47728 8.5063 9.57234 8.61375 9.64275L12.3638 11.8927C12.4482 11.9456 12.5423 11.9811 12.6407 11.9972C12.739 12.0132 12.8395 12.0095 12.9364 11.9863C13.0333 11.9631 13.1246 11.9208 13.205 11.8619C13.2853 11.803 13.3531 11.7287 13.4045 11.6433C13.4558 11.5579 13.4896 11.4631 13.5039 11.3645C13.5181 11.2659 13.5126 11.1655 13.4877 11.069C13.4627 10.9726 13.4188 10.882 13.3584 10.8028C13.2981 10.7235 13.2226 10.657 13.1362 10.6072Z" fill="black"/>
</g>
<defs>
<clipPath id="clip0_166_21311">
<rect width="18" height="18" fill="white"/>
</clipPath>
</defs>
</svg>
