<svg width="14" height="14" viewBox="0 0 14 14" fill="none" xmlns="http://www.w3.org/2000/svg">
<path d="M8.84608 2.31376L8.84612 2.31372C9.14774 2.01209 9.63857 2.01209 9.94019 2.31372L11.686 4.05959C11.686 4.05962 11.6861 4.05965 11.6861 4.05968C11.9879 4.36029 11.9876 4.85107 11.6874 5.15257L11.6873 5.15272L5.33967 11.5006L5.26895 11.4299L5.33966 11.5006C5.31547 11.5248 5.2889 11.5427 5.26301 11.5564L5.26095 11.5575L5.26094 11.5575L5.26046 11.5568L5.25338 11.5615L5.24561 11.565C5.22244 11.5753 5.19695 11.5843 5.16958 11.5897L8.84608 2.31376ZM8.84608 2.31376L7.8946 3.2664L7.89456 3.26645L2.49964 8.66157L2.57035 8.73228L2.49964 8.66157C2.47653 8.68468 2.45914 8.70997 2.44568 8.73477C2.44154 8.7416 2.43756 8.74938 2.43432 8.75753C2.42405 8.78001 2.4156 8.80463 2.41047 8.83053C2.40921 8.83488 2.40795 8.84027 2.40717 8.84651L2.09546 11.0297L8.84608 2.31376ZM2.41751 8.81267L2.41738 8.81294L2.41751 8.81267ZM3.18754 8.8905L8.12464 3.95431L10.0456 5.87536L5.10961 10.8126L3.18754 8.8905ZM2.87937 11.2624C2.84022 11.268 2.80198 11.2552 2.77347 11.2267C2.74497 11.1982 2.73221 11.16 2.73779 11.1209C2.73779 11.1208 2.73779 11.1208 2.7378 11.1208L2.95857 9.57836L4.42178 11.0416L2.87937 11.2624ZM11.2272 4.69374L10.5046 5.41637L8.58361 3.49533L9.30622 2.7727C9.35469 2.72423 9.43387 2.72423 9.48234 2.7727L11.2272 4.5176C11.2756 4.56608 11.2756 4.64527 11.2272 4.69374Z" fill="white" stroke="white" stroke-width="0.2"/>
</svg>
