<svg width="21" height="15" viewBox="0 0 21 15" fill="none" xmlns="http://www.w3.org/2000/svg">
<path d="M7.03382 0.210083C6.36656 0.210083 4.35489 1.026 3.99408 1.18911C3.63327 1.35221 3.23256 1.8613 2.77784 2.70155C2.32312 3.54179 1.95768 4.52368 1.36457 5.96845C0.771457 7.41322 0.63314 10.1991 0.652911 11.0492C0.672681 11.8994 0.770075 12.5629 1.64111 13.0658C2.51214 13.5687 3.28223 14.0942 4.09282 14.4105C4.9034 14.7268 5.45679 14.954 5.83243 14.6377C6.20806 14.3213 6.4554 13.7679 6.4554 13.7679C6.4554 13.7679 6.8113 13.2737 6.13911 12.9771C5.46691 12.6806 5.13087 12.4728 5.16052 12.1663C5.19018 11.8599 5.2393 11.6921 5.40735 11.7316C5.5754 11.7712 5.97108 12.4827 7.4934 12.8089C9.01573 13.1352 10.4999 13.0859 10.4999 13.0859C10.4999 13.0859 11.9841 13.1352 13.5065 12.8089C15.0288 12.4827 15.4245 11.7712 15.5925 11.7316C15.7606 11.6921 15.8097 11.8599 15.8393 12.1663C15.869 12.4728 15.533 12.6806 14.8608 12.9771C14.1886 13.2737 14.5445 13.7679 14.5445 13.7679C14.5445 13.7679 14.7918 14.3213 15.1674 14.6377C15.5431 14.954 16.0965 14.7268 16.9071 14.4105C17.7176 14.0942 18.4877 13.5687 19.3588 13.0658C20.2298 12.5629 20.3272 11.8994 20.347 11.0492C20.3667 10.1991 20.2284 7.41322 19.6353 5.96845C19.0422 4.52368 18.6767 3.54179 18.222 2.70155C17.7673 1.8613 17.3666 1.35221 17.0058 1.18911C16.645 1.026 14.6333 0.210083 13.9661 0.210083C13.2988 0.210083 13.1015 0.674911 13.1015 0.674911L12.8691 1.18911C12.8691 1.18911 11.3061 0.892171 10.5102 0.891746C9.71428 0.89132 8.13079 1.18911 8.13079 1.18911L7.89838 0.674911C7.89838 0.674911 7.70107 0.210083 7.03382 0.210083V0.210083ZM7.10634 6.37867C7.11449 6.37861 7.12264 6.37861 7.1308 6.37867C8.10362 6.37867 8.89225 7.22989 8.89225 8.27992C8.89225 9.32996 8.10362 10.1812 7.1308 10.1812C6.15797 10.1812 5.36934 9.32996 5.36934 8.27992C5.36925 7.24012 6.14308 6.39311 7.10633 6.37867H7.10634ZM13.8691 6.37867C13.8772 6.37861 13.8854 6.37861 13.8935 6.37867C14.8568 6.39311 15.6306 7.24012 15.6305 8.27992C15.6305 9.32996 14.8419 10.1812 13.8691 10.1812C12.8962 10.1812 12.1076 9.32996 12.1076 8.27992C12.1076 7.22989 12.8962 6.37867 13.8691 6.37867H13.8691Z" fill="#5063F7"/>
</svg>
