<svg width="36" height="36" viewBox="0 0 36 36" fill="none" xmlns="http://www.w3.org/2000/svg">
<path d="M30.643 29.2358L25.0635 23.6557C26.8743 21.4818 27.7774 18.6935 27.5848 15.8707C27.3923 13.0479 26.119 10.408 24.0298 8.50019C21.9406 6.5924 19.1964 5.56361 16.3681 5.62784C13.5398 5.69207 10.8451 6.84437 8.84468 8.84503C6.84424 10.8457 5.69206 13.5407 5.62784 16.3693C5.56361 19.1979 6.59229 21.9424 8.49987 24.0318C10.4074 26.1213 13.047 27.3947 15.8695 27.5873C18.692 27.7798 21.4801 26.8767 23.6537 25.0657L29.2332 30.6457C29.4202 30.8326 29.6737 30.9375 29.9381 30.9375C30.2024 30.9375 30.456 30.8326 30.643 30.6457C30.7363 30.5536 30.8104 30.4438 30.8609 30.3228C30.9115 30.2018 30.9375 30.0719 30.9375 29.9408C30.9375 29.8096 30.9115 29.6797 30.8609 29.5587C30.8104 29.4377 30.7363 29.3279 30.643 29.2358ZM7.66015 16.639C7.65557 15.1615 8.01567 13.7056 8.70851 12.4006C9.40135 11.0956 10.4055 9.98176 11.6319 9.15789C12.8583 8.33401 14.2691 7.82557 15.7391 7.67766C17.2091 7.52975 18.6928 7.74694 20.0587 8.30997C21.4247 8.873 22.6306 9.76446 23.5695 10.9053C24.5083 12.0461 25.1512 13.401 25.441 14.8499C25.7308 16.2988 25.6587 17.7967 25.2309 19.211C24.8031 20.6253 24.0329 21.9121 22.9887 22.9573C21.7364 24.2154 20.139 25.0736 18.3988 25.4234C16.6587 25.7732 14.8538 25.5988 13.2127 24.9224C11.5717 24.2459 10.1681 23.0978 9.1797 21.6233C8.1913 20.1488 7.66248 18.4142 7.66015 16.639Z" fill="#82868C"/>
</svg>
