<svg width="29" height="29" viewBox="0 0 29 29" fill="none" xmlns="http://www.w3.org/2000/svg">
<path d="M14.2565 15.5076C18.0916 15.5076 21.2006 12.3767 21.2006 8.51444C21.2006 4.6522 18.0916 1.52124 14.2565 1.52124C10.4214 1.52124 7.3125 4.6522 7.3125 8.51444C7.3125 12.3767 10.4214 15.5076 14.2565 15.5076Z" stroke="#BBBBBB" stroke-width="1.5" stroke-linecap="round" stroke-linejoin="round"/>
<path d="M14.2568 18.0509C10.5915 18.152 6.99978 19.1096 3.76499 20.8482C2.93258 21.2736 2.23353 21.9229 1.74543 22.7242C1.25734 23.5255 0.999315 24.4474 1 25.3874V26.3156C1 26.8214 1.19953 27.3065 1.55469 27.6642C1.90985 28.0219 2.39155 28.2228 2.89383 28.2228H25.6197C26.122 28.2228 26.6037 28.0219 26.9589 27.6642C27.314 27.3065 27.5136 26.8214 27.5136 26.3156V25.3874C27.5142 24.4474 27.2562 23.5255 26.7681 22.7242C26.28 21.9229 25.581 21.2736 24.7486 20.8482C21.5138 19.1096 17.922 18.152 14.2568 18.0509V18.0509Z" stroke="#BBBBBB" stroke-width="1.5" stroke-linecap="round" stroke-linejoin="round"/>
</svg>
