<svg width="29" height="29" viewBox="0 0 29 29" fill="none" xmlns="http://www.w3.org/2000/svg">
<path d="M14.2569 14.7095C18.092 14.7095 21.2009 11.5858 21.2009 7.73243C21.2009 3.87911 18.092 0.755371 14.2569 0.755371C10.4218 0.755371 7.31287 3.87911 7.31287 7.73243C7.31287 11.5858 10.4218 14.7095 14.2569 14.7095Z" stroke="#82868C" stroke-width="1.5" stroke-linecap="round" stroke-linejoin="round"/>
<path d="M14.2568 17.2639C10.5915 17.3648 6.99978 18.3202 3.76499 20.0547C2.93258 20.4791 2.23353 21.127 1.74543 21.9265C1.25734 22.7259 0.999315 23.6456 1 24.5835V25.5095C1 26.0142 1.19953 26.4982 1.55469 26.855C1.90985 27.2119 2.39155 27.4124 2.89383 27.4124H25.6197C26.122 27.4124 26.6037 27.2119 26.9589 26.855C27.314 26.4982 27.5136 26.0142 27.5136 25.5095V24.5835C27.5142 23.6456 27.2562 22.7259 26.7681 21.9265C26.28 21.127 25.581 20.4791 24.7486 20.0547C21.5138 18.3202 17.922 17.3648 14.2568 17.2639V17.2639Z" stroke="#82868C" stroke-width="1.5" stroke-linecap="round" stroke-linejoin="round"/>
</svg>
