<svg width="30" height="30" viewBox="0 0 30 30" fill="none" xmlns="http://www.w3.org/2000/svg">
<path d="M26.7188 30H20.1562V10.3125H26.7188V30ZM22.0312 28.125H24.8438V12.1875H22.0312V28.125ZM18.2812 30H11.7188V15.9375H18.2812V30ZM13.5938 28.125H16.4062V17.8125H13.5938V28.125ZM9.84375 30H3.28125V20.625H9.84375V30ZM5.15625 28.125H7.96875V22.5H5.15625V28.125ZM4.82813 16.6406L3.60937 15.2344L14.1094 6.23438L16.6406 8.76563L23.5313 1.875H20.625V0H26.7188V6.09375H24.8438V3.1875L16.6406 11.3906L14.0156 8.76563L4.82813 16.6406Z" fill="black"/>
<rect x="4" y="22" width="5" height="7" fill="black"/>
<rect x="12" y="17" width="5" height="12" fill="black"/>
<rect x="21" y="12" width="5" height="17" fill="black"/>
</svg>
