<svg width="25" height="26" viewBox="0 0 25 26" fill="none" xmlns="http://www.w3.org/2000/svg">
<path d="M20.3125 7.02529V22.1908C20.3125 22.5564 20.1673 22.9071 19.9087 23.1656C19.6502 23.4242 19.2995 23.5695 18.9339 23.5695H6.06618C5.70053 23.5695 5.34986 23.4242 5.09131 23.1656C4.83275 22.9071 4.6875 22.5564 4.6875 22.1908V3.80837C4.6875 3.44272 4.83275 3.09205 5.09131 2.83349C5.34986 2.57494 5.70053 2.42969 6.06618 2.42969H15.7169L20.3125 7.02529Z" stroke="black" stroke-width="1.4" stroke-linecap="round" stroke-linejoin="round"/>
<path d="M15.717 2.42969V5.64661C15.717 6.01226 15.8623 6.36293 16.1208 6.62148C16.3794 6.88003 16.7301 7.02529 17.0957 7.02529H20.3126" stroke="black" stroke-width="1.4" stroke-linecap="round" stroke-linejoin="round"/>
<path d="M8.36401 11.6211H16.6361" stroke="black" stroke-width="1.4" stroke-linecap="round" stroke-linejoin="round"/>
<path d="M8.36401 14.3779H16.6361" stroke="black" stroke-width="1.4" stroke-linecap="round" stroke-linejoin="round"/>
<path d="M8.36401 17.1357H16.6361" stroke="black" stroke-width="1.4" stroke-linecap="round" stroke-linejoin="round"/>
<path d="M8.36401 19.8926H12.9596" stroke="black" stroke-width="1.4" stroke-linecap="round" stroke-linejoin="round"/>
</svg>
