<svg width="77" height="76" viewBox="0 0 77 76" fill="none" xmlns="http://www.w3.org/2000/svg">
<path d="M73.7861 33.2412V42.7612C73.7861 44.1612 73.2284 45.2812 72.3917 46.1212C71.5551 46.9612 70.4395 47.5212 69.0451 47.5212H48.4076V68.2412C48.4076 69.6412 47.8499 70.7612 47.0132 71.6012C46.1766 72.4412 45.061 73.0012 43.6666 73.0012H34.1845C32.7901 73.0012 31.6746 72.4412 30.8379 71.6012C30.0013 70.7612 29.4435 69.6412 29.4435 68.2412V47.5212H8.52717C7.13275 47.5212 6.01721 46.9612 5.18056 46.1212C4.3439 45.2812 3.78613 44.1612 3.78613 43.0412V33.5212C3.78613 32.1212 4.3439 31.0012 5.18056 30.1612C6.01721 29.3212 7.13275 28.7612 8.52717 28.7612H29.1646V7.76122C29.1646 6.36122 29.7224 5.24122 30.559 4.40122C31.3957 3.56122 32.5112 3.00122 34.1845 3.00122H43.6666C45.061 3.00122 46.1766 3.56122 47.0132 4.40122C48.1288 5.24122 48.6865 6.36122 48.6865 7.76122V28.4812H69.324C70.7184 28.4812 71.8339 29.0412 72.6706 29.8812C73.7861 31.0012 73.7861 32.1212 73.7861 33.2412Z" stroke="white" stroke-width="6"/>
</svg>
