<?xml version="1.0" encoding="utf-8"?>
<!-- Generator: Adobe Illustrator 27.4.1, SVG Export Plug-In . SVG Version: 6.00 Build 0)  -->
<svg version="1.1" id="Layer_1" xmlns="http://www.w3.org/2000/svg" xmlns:xlink="http://www.w3.org/1999/xlink" x="0px" y="0px"
	 viewBox="0 0 26.3 27.2" style="enable-background:new 0 0 26.3 27.2;" xml:space="preserve">
<style type="text/css">
	.st0{fill:#FE805C;}
	.st1{fill:#FFFFFF;}
</style>
<path class="st0" d="M25.7,12.5v3.4c0,0.5-0.2,0.9-0.5,1.2c-0.3,0.3-0.7,0.5-1.2,0.5h-7.4V25c0,0.5-0.2,0.9-0.5,1.2
	c-0.3,0.3-0.7,0.5-1.2,0.5h-3.4c-0.5,0-0.9-0.2-1.2-0.5S9.8,25.5,9.8,25v-7.4H2.3c-0.5,0-0.9-0.2-1.2-0.5S0.6,16.4,0.6,16v-3.4
	c0-0.5,0.2-0.9,0.5-1.2s0.7-0.5,1.2-0.5h7.4V3.4c0-0.5,0.2-0.9,0.5-1.2s0.7-0.5,1.2-0.5h3.4c0.5,0,0.9,0.2,1.2,0.5
	c0.4,0.3,0.6,0.7,0.6,1.2v7.4H24c0.5,0,0.9,0.2,1.2,0.5C25.6,11.7,25.7,12.1,25.7,12.5z"/>
<path class="st1" d="M25.7,11.2v3.4c0,0.5-0.2,0.9-0.5,1.2c-0.3,0.3-0.7,0.5-1.2,0.5h-7.4v7.4c0,0.5-0.2,0.9-0.5,1.2
	c-0.3,0.3-0.7,0.5-1.2,0.5h-3.4c-0.5,0-0.9-0.2-1.2-0.5s-0.5-0.7-0.5-1.2v-7.4H2.3c-0.5,0-0.9-0.2-1.2-0.5s-0.5-0.7-0.5-1.1v-3.4
	c0-0.5,0.2-0.9,0.5-1.2s0.7-0.5,1.2-0.5h7.4V2.1c0-0.5,0.2-0.9,0.5-1.2s0.7-0.5,1.2-0.5h3.4c0.5,0,0.9,0.2,1.2,0.5
	c0.4,0.3,0.6,0.7,0.6,1.2v7.4H24c0.5,0,0.9,0.2,1.2,0.5C25.6,10.4,25.7,10.8,25.7,11.2z"/>
</svg>
