<?xml version="1.0" encoding="utf-8"?>
<!-- Generator: Adobe Illustrator 27.4.1, SVG Export Plug-In . SVG Version: 6.00 Build 0)  -->
<svg version="1.1" id="Layer_1" xmlns="http://www.w3.org/2000/svg" xmlns:xlink="http://www.w3.org/1999/xlink" x="0px" y="0px"
	 viewBox="0 0 25 32" style="enable-background:new 0 0 25 32;" xml:space="preserve">
<style type="text/css">
	.st0{fill:#FFFFFF;}
</style>
<path class="st0" d="M25.1,13.1v3.4c0,0.5-0.2,0.9-0.5,1.2c-0.3,0.3-0.7,0.5-1.2,0.5H16v7.4c0,0.5-0.2,0.9-0.5,1.2
	c-0.3,0.3-0.7,0.5-1.2,0.5h-3.4c-0.5,0-0.9-0.2-1.2-0.5s-0.5-0.7-0.5-1.2v-7.4H1.7c-0.5,0-0.9-0.2-1.2-0.5S0,17,0,16.6v-3.4
	c0-0.5,0.2-0.9,0.5-1.2c0.3-0.3,0.7-0.5,1.2-0.5h7.4V4c0-0.5,0.2-0.9,0.5-1.2s0.7-0.5,1.2-0.5h3.4c0.5,0,0.9,0.2,1.2,0.5
	C15.8,3.1,16,3.5,16,4v7.4h7.4c0.5,0,0.9,0.2,1.2,0.5C25,12.3,25.1,12.7,25.1,13.1z"/>
</svg>
