<svg width="36" height="36" viewBox="0 0 36 36" fill="none" xmlns="http://www.w3.org/2000/svg">
<g clip-path="url(#clip0_241_21456)">
<path d="M17.9995 7.335L21.1045 13.6125L21.622 14.7375L22.747 14.9062L29.677 15.9075L24.7495 20.745L23.9057 21.5663L24.1082 22.6913L25.2895 29.5875L19.0907 26.3362L17.9995 25.875L16.9532 26.4262L10.7545 29.6325L11.8795 22.7362L12.082 21.6112L11.2495 20.745L6.27695 15.8513L13.207 14.85L14.332 14.6813L14.8495 13.5563L17.9995 7.335ZM17.9995 2.25L12.8807 12.6225L1.43945 14.2762L9.71945 22.3538L7.76195 33.75L17.9995 28.3725L28.237 33.75L26.2795 22.3538L34.5595 14.2875L23.1182 12.6225L17.9995 2.25Z" fill="white"/>
</g>
<g clip-path="url(#clip1_241_21456)">
<path d="M18.0008 13.075L19.7258 16.5625L20.0133 17.1875L20.6383 17.2812L24.4883 17.8375L21.7508 20.525L21.282 20.9813L21.3945 21.6063L22.0508 25.4375L18.607 23.6312L18.0008 23.375L17.4195 23.6812L13.9758 25.4625L14.6008 21.6312L14.7133 21.0062L14.2508 20.525L11.4883 17.8063L15.3383 17.25L15.9633 17.1563L16.2508 16.5313L18.0008 13.075ZM18.0008 10.25L15.157 16.0125L8.80078 16.9312L13.4008 21.4188L12.3133 27.75L18.0008 24.7625L23.6883 27.75L22.6008 21.4188L27.2008 16.9375L20.8445 16.0125L18.0008 10.25Z" fill="white"/>
</g>
<defs>
<clipPath id="clip0_241_21456">
<rect width="36" height="36" fill="white"/>
</clipPath>
<clipPath id="clip1_241_21456">
<rect width="20" height="20" fill="white" transform="translate(8 9)"/>
</clipPath>
</defs>
</svg>
