<?xml version="1.0" encoding="utf-8"?>
<!-- Generator: Adobe Illustrator 27.4.1, SVG Export Plug-In . SVG Version: 6.00 Build 0)  -->
<svg version="1.1" id="Layer_1" xmlns="http://www.w3.org/2000/svg" xmlns:xlink="http://www.w3.org/1999/xlink" x="0px" y="0px"
	 viewBox="0 0 64 64" style="enable-background:new 0 0 64 64;" xml:space="preserve">
<style type="text/css">
	.st0{fill:#FFFFFF;}
</style>
<g>
	<g>
		<path class="st0" d="M57,64H43V22h14V64z M47,60h6V26h-6V60z M39,64H25V34h14V64z M29,60h6V38h-6V60z M21,64H7V44h14V64z M11,60h6
			V48h-6V60z M10.3,35.5l-2.6-3l22.4-19.2l5.4,5.4L50.2,4H44V0h13v13h-4V6.8L35.5,24.3l-5.6-5.6L10.3,35.5z"/>
	</g>
</g>
<rect x="9" y="45.7" class="st0" width="9.9" height="16.2"/>
<rect x="27.6" y="36.2" class="st0" width="8.7" height="25.8"/>
<rect x="45.8" y="24.7" class="st0" width="8.8" height="37.2"/>
</svg>
