<svg width="24" height="24" viewBox="0 0 24 24" fill="none" xmlns="http://www.w3.org/2000/svg">
<path d="M11.9624 22.1622C6.37094 22.1622 1.80017 17.5914 1.80017 12C1.80017 6.40857 6.37094 1.8378 11.9624 1.8378C17.5538 1.8378 22.1246 6.40857 22.1246 12C22.169 17.5914 17.5982 22.1622 11.9624 22.1622ZM11.9624 2.90283C6.94784 2.90283 2.90958 6.98546 2.90958 11.9556C2.90958 16.9258 6.99221 21.0084 11.9624 21.0084C16.9325 21.0084 21.0152 16.9258 21.0152 11.9556C21.0152 6.98546 16.9769 2.90283 11.9624 2.90283Z" fill="white"/>
<path d="M15.1575 17.192L11.3855 13.42V6.54169H12.5837V12.9319L16.0006 16.3489L15.1575 17.192Z" fill="white"/>
</svg>
