<svg width="30" height="30" viewBox="0 0 30 30" fill="none" xmlns="http://www.w3.org/2000/svg">
<path fill-rule="evenodd" clip-rule="evenodd" d="M13.7875 3.23728C14.1262 2.95011 14.5559 2.79248 15 2.79248C15.4441 2.79248 15.8738 2.95011 16.2125 3.23728L25.5875 11.191C25.7951 11.367 25.9619 11.5861 26.0763 11.833C26.1908 12.08 26.25 12.3489 26.25 12.6211V24.3748C26.25 24.8721 26.0525 25.3489 25.7009 25.7006C25.3492 26.0522 24.8722 26.2498 24.375 26.2498H17.1875C16.9389 26.2498 16.7004 26.1511 16.5246 25.9752C16.3487 25.7993 16.25 25.5609 16.25 25.3123V17.4998H13.75V25.3123C13.75 25.5609 13.6513 25.7993 13.4754 25.9752C13.2996 26.1511 13.0611 26.2498 12.8125 26.2498H5.625C5.12773 26.2498 4.6508 26.0522 4.29918 25.7006C3.94755 25.3489 3.75 24.8721 3.75 24.3748V12.6211C3.75 12.071 3.9925 11.5473 4.4125 11.191L13.7875 3.23728ZM15 4.66728L5.625 12.6211V24.3748H11.875V16.5623C11.875 16.3137 11.9738 16.0752 12.1496 15.8993C12.3254 15.7236 12.5639 15.6248 12.8125 15.6248H17.1875C17.4361 15.6248 17.6746 15.7236 17.8504 15.8993C18.0263 16.0752 18.125 16.3137 18.125 16.5623V24.3748H24.375V12.6211L15 4.66728Z" fill="white"/>
<path fill-rule="evenodd" clip-rule="evenodd" d="M13.7875 3.23728C14.1262 2.95011 14.5559 2.79248 15 2.79248C15.4441 2.79248 15.8738 2.95011 16.2125 3.23728L25.5875 11.191C25.7951 11.367 25.9619 11.5861 26.0763 11.833C26.1908 12.08 26.25 12.3489 26.25 12.6211V24.3748C26.25 24.8721 26.0525 25.3489 25.7009 25.7006C25.3492 26.0522 24.8722 26.2498 24.375 26.2498H17.1875C16.9389 26.2498 16.7004 26.1511 16.5246 25.9752C16.3487 25.7993 16.25 25.5609 16.25 25.3123V17.4998H13.75V25.3123C13.75 25.5609 13.6513 25.7993 13.4754 25.9752C13.2996 26.1511 13.0611 26.2498 12.8125 26.2498H5.625C5.12773 26.2498 4.6508 26.0522 4.29918 25.7006C3.94755 25.3489 3.75 24.8721 3.75 24.3748V12.6211C3.75 12.071 3.9925 11.5473 4.4125 11.191L13.7875 3.23728ZM15 4.66728L5.625 12.6211V24.3748H11.875V16.5623C11.875 16.3137 11.9738 16.0752 12.1496 15.8993C12.3254 15.7236 12.5639 15.6248 12.8125 15.6248H17.1875C17.4361 15.6248 17.6746 15.7236 17.8504 15.8993C18.0263 16.0752 18.125 16.3137 18.125 16.5623V24.3748H24.375V12.6211L15 4.66728Z" fill="white" fill-opacity="0.6"/>
<path fill-rule="evenodd" clip-rule="evenodd" d="M13.7875 3.23728C14.1262 2.95011 14.5559 2.79248 15 2.79248C15.4441 2.79248 15.8738 2.95011 16.2125 3.23728L25.5875 11.191C25.7951 11.367 25.9619 11.5861 26.0763 11.833C26.1908 12.08 26.25 12.3489 26.25 12.6211V24.3748C26.25 24.8721 26.0525 25.3489 25.7009 25.7006C25.3492 26.0522 24.8722 26.2498 24.375 26.2498H17.1875C16.9389 26.2498 16.7004 26.1511 16.5246 25.9752C16.3487 25.7993 16.25 25.5609 16.25 25.3123V17.4998H13.75V25.3123C13.75 25.5609 13.6513 25.7993 13.4754 25.9752C13.2996 26.1511 13.0611 26.2498 12.8125 26.2498H5.625C5.12773 26.2498 4.6508 26.0522 4.29918 25.7006C3.94755 25.3489 3.75 24.8721 3.75 24.3748V12.6211C3.75 12.071 3.9925 11.5473 4.4125 11.191L13.7875 3.23728ZM15 4.66728L5.625 12.6211V24.3748H11.875V16.5623C11.875 16.3137 11.9738 16.0752 12.1496 15.8993C12.3254 15.7236 12.5639 15.6248 12.8125 15.6248H17.1875C17.4361 15.6248 17.6746 15.7236 17.8504 15.8993C18.0263 16.0752 18.125 16.3137 18.125 16.5623V24.3748H24.375V12.6211L15 4.66728Z" fill="white" fill-opacity="0.4"/>
</svg>
