<svg width="34" height="35" viewBox="0 0 34 35" fill="none" xmlns="http://www.w3.org/2000/svg">
<path d="M5.17017 14.2115C5.00859 14.3539 4.91602 14.5589 4.91602 14.7742L4.91602 29.0412C4.91602 29.4554 5.25181 29.7912 5.66602 29.7912H12.7494C13.1636 29.7912 13.4994 29.4554 13.4994 29.0412V23.3344C13.4994 22.3965 13.8694 21.498 14.5263 20.8364C15.1831 20.175 16.0728 19.8043 16.9994 19.8043C17.9259 19.8043 18.8156 20.175 19.4724 20.8364C20.1293 21.498 20.4994 22.3965 20.4994 23.3344V29.0412C20.4994 29.4554 20.8351 29.7912 21.2494 29.7912H28.3327C28.5316 29.7912 28.7224 29.7122 28.863 29.5715C29.0037 29.4309 29.0827 29.2401 29.0827 29.0412L29.0827 14.7742C29.0827 14.5589 28.9901 14.3539 28.8285 14.2115L17.4952 4.22465C17.2118 3.97492 16.7869 3.97492 16.5035 4.22465L5.17017 14.2115Z" stroke="#BBBBBB" stroke-width="1.5" stroke-linecap="round" stroke-linejoin="round"/>
</svg>
