<?xml version="1.0" encoding="utf-8"?>
<!-- Generator: Adobe Illustrator 27.4.1, SVG Export Plug-In . SVG Version: 6.00 Build 0)  -->
<svg version="1.1" id="Layer_1" xmlns="http://www.w3.org/2000/svg" xmlns:xlink="http://www.w3.org/1999/xlink" x="0px" y="0px"
	 viewBox="0 0 34 35" style="enable-background:new 0 0 34 35;" xml:space="preserve">
<style type="text/css">
	.st0{fill:none;stroke:#FFFFFF;stroke-width:1.5;stroke-linecap:round;stroke-linejoin:round;}
</style>
<path class="st0" d="M5.2,14.2c-0.2,0.1-0.3,0.3-0.3,0.6V29c0,0.4,0.3,0.8,0.8,0.8h7.1c0.4,0,0.8-0.3,0.8-0.8v-5.7
	c0-0.9,0.4-1.8,1-2.5c0.7-0.7,1.5-1,2.5-1c0.9,0,1.8,0.4,2.5,1c0.7,0.7,1,1.6,1,2.5V29c0,0.4,0.3,0.8,0.8,0.8h7.1
	c0.2,0,0.4-0.1,0.5-0.2c0.1-0.1,0.2-0.3,0.2-0.5V14.8c0-0.2-0.1-0.4-0.3-0.6l-11.3-10c-0.3-0.2-0.7-0.2-1,0L5.2,14.2z"/>
</svg>
