<svg width="27" height="28" viewBox="0 0 27 28" fill="none" xmlns="http://www.w3.org/2000/svg">
<path d="M13.5003 14.5125C17.1164 14.5125 20.0479 11.567 20.0479 7.93369C20.0479 4.30033 17.1164 1.35492 13.5003 1.35492C9.88411 1.35492 6.95264 4.30033 6.95264 7.93369C6.95264 11.567 9.88411 14.5125 13.5003 14.5125Z" stroke="#E9E6FF" stroke-width="1.5" stroke-linecap="round" stroke-linejoin="round"/>
<path d="M13.5 16.9048C10.044 16.9999 6.65728 17.9008 3.60714 19.5363C2.82226 19.9365 2.16311 20.5474 1.70288 21.3012C1.24265 22.055 0.999354 22.9222 1 23.8065V24.6797C1 25.1555 1.18814 25.6119 1.52302 25.9484C1.85791 26.2849 2.31211 26.4739 2.78572 26.4739H24.2143C24.6879 26.4739 25.1421 26.2849 25.477 25.9484C25.8119 25.6119 26 25.1555 26 24.6797V23.8065C26.0006 22.9222 25.7573 22.055 25.2971 21.3012C24.8369 20.5474 24.1777 19.9365 23.3929 19.5363C20.3427 17.9008 16.956 16.9999 13.5 16.9048V16.9048Z" stroke="#E9E6FF" stroke-width="1.5" stroke-linecap="round" stroke-linejoin="round"/>
<circle cx="13.7908" cy="7.58915" r="6.58915" fill="#E9E6FF"/>
<path d="M1.3876 22.0388L1 25.1395L2.16279 26.6899H24.6434L25.8062 25.1395V22.0388L24.2558 20.1008L21.155 18.5504L16.8915 17.3876L13.4031 17L9.91473 17.3876L5.65116 18.5504L2.16279 20.4884L1.3876 22.0388Z" fill="#E9E6FF"/>
</svg>
