<svg width="22" height="17" viewBox="0 0 22 17" fill="none" xmlns="http://www.w3.org/2000/svg">
<path fill-rule="evenodd" clip-rule="evenodd" d="M20.087 16.2609H1.91304C1.40567 16.2609 0.919083 16.0593 0.560317 15.7006C0.201552 15.3418 0 14.8552 0 14.3478V3.82609C0 3.31872 0.201552 2.83213 0.560317 2.47336C0.919083 2.1146 1.40567 1.91304 1.91304 1.91304H2.3913C2.3913 1.65936 2.49208 1.41606 2.67146 1.23668C2.85085 1.0573 3.09414 0.956522 3.34783 0.956522H4.30435C4.55803 0.956522 4.80133 1.0573 4.98071 1.23668C5.16009 1.41606 5.26087 1.65936 5.26087 1.91304H6.21739C6.21739 1.91304 6.75543 1.85326 7.17391 1.43478L8.13043 0.478261C8.13043 0.478261 8.50396 0 9.08696 0H12.913C13.5405 0 13.8696 0.478261 13.8696 0.478261L14.8261 1.43478C15.2446 1.85326 15.7826 1.91304 15.7826 1.91304H20.087C20.5943 1.91304 21.0809 2.1146 21.4397 2.47336C21.7984 2.83213 22 3.31872 22 3.82609V14.3478C22 14.8552 21.7984 15.3418 21.4397 15.7006C21.0809 16.0593 20.5943 16.2609 20.087 16.2609ZM21.0435 3.82609C21.0435 3.5724 20.9427 3.32911 20.7633 3.14972C20.5839 2.97034 20.3406 2.86957 20.087 2.86957L15.6769 2.86335C15.531 2.84757 14.7735 2.7347 14.1498 2.11104L13.1311 1.09235L13.0814 1.02013C13.0335 0.981543 12.9745 0.959258 12.913 0.956522H9.08696C9.01378 0.956522 8.90761 1.04165 8.88417 1.067L8.8483 1.11291L7.85017 2.11057C7.22604 2.7347 6.46848 2.84709 6.32309 2.86287L4.33783 2.86574C4.32635 2.8667 4.31535 2.86957 4.30435 2.86957H3.34783C3.34113 2.86957 3.33539 2.86765 3.3287 2.86765L1.91304 2.86957C1.65936 2.86957 1.41606 2.97034 1.23668 3.14972C1.0573 3.32911 0.956522 3.5724 0.956522 3.82609V14.3478C0.956522 14.6015 1.0573 14.8448 1.23668 15.0242C1.41606 15.2036 1.65936 15.3043 1.91304 15.3043H20.087C20.3406 15.3043 20.5839 15.2036 20.7633 15.0242C20.9427 14.8448 21.0435 14.6015 21.0435 14.3478V3.82609ZM11 14.3478C8.09457 14.3478 5.73913 11.9924 5.73913 9.08696C5.73913 6.18152 8.09457 3.82609 11 3.82609C13.9054 3.82609 16.2609 6.18152 16.2609 9.08696C16.2609 11.9924 13.9054 14.3478 11 14.3478ZM11 4.78261C8.62257 4.78261 6.69565 6.70952 6.69565 9.08696C6.69565 11.4644 8.62257 13.3913 11 13.3913C13.3774 13.3913 15.3043 11.4644 15.3043 9.08696C15.3043 6.70952 13.3774 4.78261 11 4.78261ZM11 11.4783C9.67904 11.4783 8.6087 10.4079 8.6087 9.08696C8.6087 7.766 9.67904 6.69565 11 6.69565C12.321 6.69565 13.3913 7.766 13.3913 9.08696C13.3913 10.4079 12.321 11.4783 11 11.4783ZM11 7.65217C10.6259 7.66184 10.2703 7.81724 10.0092 8.08526C9.74796 8.35328 9.60179 8.71272 9.60179 9.08696C9.60179 9.4612 9.74796 9.82063 10.0092 10.0887C10.2703 10.3567 10.6259 10.5121 11 10.5217C11.3805 10.5217 11.7455 10.3706 12.0145 10.1015C12.2836 9.83243 12.4348 9.46749 12.4348 9.08696C12.4348 8.70643 12.2836 8.34149 12.0145 8.07241C11.7455 7.80334 11.3805 7.65217 11 7.65217ZM4.30435 5.73913H2.3913C2.26446 5.73913 2.14281 5.68874 2.05312 5.59905C1.96343 5.50936 1.91304 5.38771 1.91304 5.26087V4.30435C1.91304 4.17751 1.96343 4.05586 2.05312 3.96617C2.14281 3.87648 2.26446 3.82609 2.3913 3.82609H4.30435C4.43119 3.82609 4.55284 3.87648 4.64253 3.96617C4.73222 4.05586 4.78261 4.17751 4.78261 4.30435V5.26087C4.78261 5.38771 4.73222 5.50936 4.64253 5.59905C4.55284 5.68874 4.43119 5.73913 4.30435 5.73913Z" fill="#F5F5F5"/>
</svg>
