<svg width="100" height="22" viewBox="0 0 100 22" fill="none" xmlns="http://www.w3.org/2000/svg">
<rect width="100" height="20" rx="10" fill="url(#paint0_linear_221_21504)"/>
<path d="M36.2159 9.63636C36.2159 10.5881 36.0355 11.3977 35.6747 12.0653C35.3168 12.733 34.8281 13.2429 34.2088 13.5952C33.5923 13.9446 32.8991 14.1193 32.1293 14.1193C31.3537 14.1193 30.6577 13.9432 30.0412 13.5909C29.4247 13.2386 28.9375 12.7287 28.5795 12.0611C28.2216 11.3935 28.0426 10.5852 28.0426 9.63636C28.0426 8.68466 28.2216 7.875 28.5795 7.20739C28.9375 6.53977 29.4247 6.03125 30.0412 5.68182C30.6577 5.32955 31.3537 5.15341 32.1293 5.15341C32.8991 5.15341 33.5923 5.32955 34.2088 5.68182C34.8281 6.03125 35.3168 6.53977 35.6747 7.20739C36.0355 7.875 36.2159 8.68466 36.2159 9.63636ZM34.3452 9.63636C34.3452 9.01989 34.2528 8.5 34.0682 8.0767C33.8864 7.65341 33.6293 7.33239 33.2969 7.11364C32.9645 6.89489 32.5753 6.78551 32.1293 6.78551C31.6832 6.78551 31.294 6.89489 30.9616 7.11364C30.6293 7.33239 30.3707 7.65341 30.1861 8.0767C30.0043 8.5 29.9134 9.01989 29.9134 9.63636C29.9134 10.2528 30.0043 10.7727 30.1861 11.196C30.3707 11.6193 30.6293 11.9403 30.9616 12.1591C31.294 12.3778 31.6832 12.4872 32.1293 12.4872C32.5753 12.4872 32.9645 12.3778 33.2969 12.1591C33.6293 11.9403 33.8864 11.6193 34.0682 11.196C34.2528 10.7727 34.3452 10.2528 34.3452 9.63636ZM37.5487 14V7.45455H39.3086V8.59659H39.3768C39.4961 8.19034 39.6964 7.88352 39.9776 7.67614C40.2589 7.46591 40.5827 7.3608 40.9492 7.3608C41.0401 7.3608 41.1381 7.36648 41.2433 7.37784C41.3484 7.3892 41.4407 7.40483 41.5202 7.42472V9.03551C41.435 9.00994 41.3171 8.98722 41.1665 8.96733C41.016 8.94744 40.8782 8.9375 40.7532 8.9375C40.4862 8.9375 40.2475 8.99574 40.0373 9.11222C39.8299 9.22585 39.6651 9.38494 39.543 9.58949C39.4237 9.79403 39.364 10.0298 39.364 10.2969V14H37.5487ZM42.4588 14V7.45455H44.2741V14H42.4588ZM43.3707 6.6108C43.1009 6.6108 42.8693 6.52131 42.6761 6.34233C42.4858 6.16051 42.3906 5.94318 42.3906 5.69034C42.3906 5.44034 42.4858 5.22585 42.6761 5.04688C42.8693 4.86506 43.1009 4.77415 43.3707 4.77415C43.6406 4.77415 43.8707 4.86506 44.0611 5.04688C44.2543 5.22585 44.3509 5.44034 44.3509 5.69034C44.3509 5.94318 44.2543 6.16051 44.0611 6.34233C43.8707 6.52131 43.6406 6.6108 43.3707 6.6108ZM48.6772 16.5909C48.0891 16.5909 47.5849 16.5099 47.1644 16.348C46.7468 16.1889 46.4144 15.9716 46.1673 15.696C45.9201 15.4205 45.7596 15.1108 45.6857 14.767L47.3647 14.5412C47.4158 14.6719 47.4968 14.794 47.6076 14.9077C47.7184 15.0213 47.8647 15.1122 48.0465 15.1804C48.2312 15.2514 48.4556 15.2869 48.7198 15.2869C49.1147 15.2869 49.44 15.1903 49.6957 14.9972C49.9542 14.8068 50.0835 14.4872 50.0835 14.0384V12.8409H50.0067C49.9272 13.0227 49.8079 13.1946 49.6488 13.3565C49.4897 13.5185 49.2852 13.6506 49.0352 13.7528C48.7852 13.8551 48.4869 13.9062 48.1403 13.9062C47.6488 13.9062 47.2013 13.7926 46.7979 13.5653C46.3974 13.3352 46.0778 12.9844 45.8391 12.5128C45.6033 12.0384 45.4854 11.4389 45.4854 10.7145C45.4854 9.97301 45.6062 9.35369 45.8477 8.85653C46.0891 8.35937 46.4102 7.98722 46.8107 7.74006C47.2141 7.4929 47.6559 7.36932 48.136 7.36932C48.5025 7.36932 48.8093 7.43182 49.0565 7.55682C49.3036 7.67898 49.5025 7.83239 49.6531 8.01705C49.8065 8.19886 49.9244 8.37784 50.0067 8.55398H50.0749V7.45455H51.8775V14.0639C51.8775 14.6207 51.7411 15.0866 51.4684 15.4616C51.1957 15.8366 50.8178 16.1179 50.3349 16.3054C49.8548 16.4957 49.3022 16.5909 48.6772 16.5909ZM48.7156 12.5426C49.0082 12.5426 49.2553 12.4702 49.457 12.3253C49.6616 12.1776 49.8178 11.9673 49.9258 11.6946C50.0366 11.419 50.092 11.0895 50.092 10.706C50.092 10.3224 50.038 9.99006 49.93 9.70881C49.8221 9.42472 49.6658 9.20455 49.4613 9.0483C49.2567 8.89205 49.0082 8.81392 48.7156 8.81392C48.4173 8.81392 48.1658 8.89489 47.9613 9.05682C47.7567 9.21591 47.6019 9.4375 47.4968 9.72159C47.3917 10.0057 47.3391 10.3338 47.3391 10.706C47.3391 11.0838 47.3917 11.4105 47.4968 11.6861C47.6048 11.9588 47.7596 12.1705 47.9613 12.321C48.1658 12.4687 48.4173 12.5426 48.7156 12.5426ZM53.3221 14V7.45455H55.1374V14H53.3221ZM54.234 6.6108C53.9641 6.6108 53.7326 6.52131 53.5394 6.34233C53.3491 6.16051 53.2539 5.94318 53.2539 5.69034C53.2539 5.44034 53.3491 5.22585 53.5394 5.04688C53.7326 4.86506 53.9641 4.77415 54.234 4.77415C54.5039 4.77415 54.734 4.86506 54.9244 5.04688C55.1175 5.22585 55.2141 5.44034 55.2141 5.69034C55.2141 5.94318 55.1175 6.16051 54.9244 6.34233C54.734 6.52131 54.5039 6.6108 54.234 6.6108ZM58.407 10.2159V14H56.5916V7.45455H58.3217V8.60938H58.3984C58.5433 8.22869 58.7862 7.92756 59.1271 7.70597C59.468 7.48153 59.8814 7.36932 60.3672 7.36932C60.8217 7.36932 61.218 7.46875 61.5561 7.66761C61.8942 7.86648 62.157 8.15057 62.3445 8.51989C62.532 8.88636 62.6257 9.32386 62.6257 9.83239V14H60.8104V10.1562C60.8132 9.75568 60.7109 9.44318 60.5036 9.21875C60.2962 8.99148 60.0107 8.87784 59.647 8.87784C59.4027 8.87784 59.1868 8.9304 58.9993 9.03551C58.8146 9.14062 58.6697 9.29403 58.5646 9.49574C58.4624 9.6946 58.4098 9.93466 58.407 10.2159ZM65.9229 14.1236C65.5053 14.1236 65.1332 14.0511 64.8065 13.9062C64.4798 13.7585 64.2212 13.5412 64.0309 13.2543C63.8434 12.9645 63.7496 12.6037 63.7496 12.1719C63.7496 11.8082 63.8164 11.5028 63.9499 11.2557C64.0835 11.0085 64.2653 10.8097 64.4954 10.6591C64.7255 10.5085 64.9869 10.3949 65.2795 10.3182C65.5749 10.2415 65.8846 10.1875 66.2085 10.1562C66.5891 10.1165 66.896 10.0795 67.1289 10.0455C67.3619 10.0085 67.5309 9.95455 67.636 9.88352C67.7411 9.8125 67.7937 9.70739 67.7937 9.56818V9.54261C67.7937 9.27273 67.7085 9.06392 67.538 8.91619C67.3704 8.76847 67.1317 8.6946 66.8221 8.6946C66.4954 8.6946 66.2354 8.76705 66.0423 8.91193C65.8491 9.05398 65.7212 9.23295 65.6587 9.44886L63.9798 9.3125C64.065 8.91477 64.2326 8.57102 64.4826 8.28125C64.7326 7.98864 65.055 7.7642 65.4499 7.60795C65.8477 7.44886 66.3079 7.36932 66.8306 7.36932C67.1942 7.36932 67.5423 7.41193 67.8746 7.49716C68.2099 7.58239 68.5067 7.71449 68.7653 7.89347C69.0266 8.07244 69.2326 8.30256 69.3832 8.58381C69.5337 8.86222 69.609 9.19602 69.609 9.58523V14H67.8874V13.0923H67.8363C67.7312 13.2969 67.5906 13.4773 67.4144 13.6335C67.2383 13.7869 67.0266 13.9077 66.7795 13.9957C66.5323 14.081 66.2468 14.1236 65.9229 14.1236ZM66.4428 12.8707C66.7099 12.8707 66.9457 12.8182 67.1502 12.7131C67.3548 12.6051 67.5153 12.4602 67.6317 12.2784C67.7482 12.0966 67.8065 11.8906 67.8065 11.6605V10.9659C67.7496 11.0028 67.6715 11.0369 67.5721 11.0682C67.4755 11.0966 67.3661 11.1236 67.244 11.1491C67.1218 11.1719 66.9996 11.1932 66.8775 11.2131C66.7553 11.2301 66.6445 11.2457 66.5451 11.2599C66.332 11.2912 66.146 11.3409 65.9869 11.4091C65.8278 11.4773 65.7042 11.5696 65.6161 11.6861C65.5281 11.7997 65.484 11.9418 65.484 12.1122C65.484 12.3594 65.5735 12.5483 65.7525 12.679C65.9343 12.8068 66.1644 12.8707 66.4428 12.8707ZM72.8327 5.27273V14H71.0174V5.27273H72.8327Z" fill="white"/>
<defs>
<linearGradient id="paint0_linear_221_21504" x1="100" y1="19.0769" x2="89.0394" y2="-27.764" gradientUnits="userSpaceOnUse">
<stop stop-color="#FF0000"/>
<stop offset="1" stop-color="#FFFF00"/>
</linearGradient>
</defs>
</svg>
